<mxfile host="Electron" agent="Mozilla/5.0 (Windows NT 10.0; Win64; x64) AppleWebKit/537.36 (KHTML, like Gecko) draw.io/24.7.17 Chrome/128.0.6613.36 Electron/32.0.1 Safari/537.36" version="24.7.17">
  <diagram id="R2lEEEUBdFMjLlhIrx00" name="Initial">
    <mxGraphModel dx="4025" dy="1464" grid="1" gridSize="10" guides="1" tooltips="1" connect="1" arrows="1" fold="1" page="1" pageScale="1" pageWidth="850" pageHeight="1100" math="0" shadow="0" extFonts="Permanent Marker^https://fonts.googleapis.com/css?family=Permanent+Marker">
      <root>
        <mxCell id="0" />
        <mxCell id="1" parent="0" />
        <mxCell id="C-vyLk0tnHw3VtMMgP7b-2" value="PostalCodes" style="shape=table;startSize=30;container=1;collapsible=1;childLayout=tableLayout;fixedRows=1;rowLines=0;fontStyle=1;align=center;resizeLast=1;fillColor=#1ba1e2;fontColor=#ffffff;strokeColor=#006EAF;" parent="1" vertex="1">
          <mxGeometry x="110" y="30" width="460" height="160" as="geometry" />
        </mxCell>
        <mxCell id="C-vyLk0tnHw3VtMMgP7b-3" value="" style="shape=partialRectangle;collapsible=0;dropTarget=0;pointerEvents=0;fillColor=none;points=[[0,0.5],[1,0.5]];portConstraint=eastwest;top=0;left=0;right=0;bottom=1;" parent="C-vyLk0tnHw3VtMMgP7b-2" vertex="1">
          <mxGeometry y="30" width="460" height="30" as="geometry" />
        </mxCell>
        <mxCell id="C-vyLk0tnHw3VtMMgP7b-4" value="PK" style="shape=partialRectangle;overflow=hidden;connectable=0;fillColor=none;top=0;left=0;bottom=0;right=0;fontStyle=1;" parent="C-vyLk0tnHw3VtMMgP7b-3" vertex="1">
          <mxGeometry width="30" height="30" as="geometry">
            <mxRectangle width="30" height="30" as="alternateBounds" />
          </mxGeometry>
        </mxCell>
        <mxCell id="C-vyLk0tnHw3VtMMgP7b-5" value="id (INT, PRIMARY KEY, AUTO_INCREMENT, NOT NULL)" style="shape=partialRectangle;overflow=hidden;connectable=0;fillColor=none;top=0;left=0;bottom=0;right=0;align=left;spacingLeft=6;fontStyle=5;" parent="C-vyLk0tnHw3VtMMgP7b-3" vertex="1">
          <mxGeometry x="30" width="430" height="30" as="geometry">
            <mxRectangle width="430" height="30" as="alternateBounds" />
          </mxGeometry>
        </mxCell>
        <mxCell id="C-vyLk0tnHw3VtMMgP7b-6" value="" style="shape=partialRectangle;collapsible=0;dropTarget=0;pointerEvents=0;fillColor=none;points=[[0,0.5],[1,0.5]];portConstraint=eastwest;top=0;left=0;right=0;bottom=0;" parent="C-vyLk0tnHw3VtMMgP7b-2" vertex="1">
          <mxGeometry y="60" width="460" height="30" as="geometry" />
        </mxCell>
        <mxCell id="C-vyLk0tnHw3VtMMgP7b-7" value="" style="shape=partialRectangle;overflow=hidden;connectable=0;fillColor=none;top=0;left=0;bottom=0;right=0;" parent="C-vyLk0tnHw3VtMMgP7b-6" vertex="1">
          <mxGeometry width="30" height="30" as="geometry">
            <mxRectangle width="30" height="30" as="alternateBounds" />
          </mxGeometry>
        </mxCell>
        <mxCell id="C-vyLk0tnHw3VtMMgP7b-8" value="postal_code (VARCHAR(20), NOT NULL)" style="shape=partialRectangle;overflow=hidden;connectable=0;fillColor=none;top=0;left=0;bottom=0;right=0;align=left;spacingLeft=6;" parent="C-vyLk0tnHw3VtMMgP7b-6" vertex="1">
          <mxGeometry x="30" width="430" height="30" as="geometry">
            <mxRectangle width="430" height="30" as="alternateBounds" />
          </mxGeometry>
        </mxCell>
        <mxCell id="C-vyLk0tnHw3VtMMgP7b-9" value="" style="shape=partialRectangle;collapsible=0;dropTarget=0;pointerEvents=0;fillColor=none;points=[[0,0.5],[1,0.5]];portConstraint=eastwest;top=0;left=0;right=0;bottom=0;" parent="C-vyLk0tnHw3VtMMgP7b-2" vertex="1">
          <mxGeometry y="90" width="460" height="30" as="geometry" />
        </mxCell>
        <mxCell id="C-vyLk0tnHw3VtMMgP7b-10" value="FK1" style="shape=partialRectangle;overflow=hidden;connectable=0;fillColor=none;top=0;left=0;bottom=0;right=0;" parent="C-vyLk0tnHw3VtMMgP7b-9" vertex="1">
          <mxGeometry width="30" height="30" as="geometry">
            <mxRectangle width="30" height="30" as="alternateBounds" />
          </mxGeometry>
        </mxCell>
        <mxCell id="C-vyLk0tnHw3VtMMgP7b-11" value="city_id (INT, FOREIGN KEY to Cities, NOT NULL)" style="shape=partialRectangle;overflow=hidden;connectable=0;fillColor=none;top=0;left=0;bottom=0;right=0;align=left;spacingLeft=6;" parent="C-vyLk0tnHw3VtMMgP7b-9" vertex="1">
          <mxGeometry x="30" width="430" height="30" as="geometry">
            <mxRectangle width="430" height="30" as="alternateBounds" />
          </mxGeometry>
        </mxCell>
        <mxCell id="au4fLTNO0eDFEzKA2mFN-4" style="shape=partialRectangle;collapsible=0;dropTarget=0;pointerEvents=0;fillColor=none;points=[[0,0.5],[1,0.5]];portConstraint=eastwest;top=0;left=0;right=0;bottom=0;" parent="C-vyLk0tnHw3VtMMgP7b-2" vertex="1">
          <mxGeometry y="120" width="460" height="30" as="geometry" />
        </mxCell>
        <mxCell id="au4fLTNO0eDFEzKA2mFN-5" style="shape=partialRectangle;overflow=hidden;connectable=0;fillColor=none;top=0;left=0;bottom=0;right=0;" parent="au4fLTNO0eDFEzKA2mFN-4" vertex="1">
          <mxGeometry width="30" height="30" as="geometry">
            <mxRectangle width="30" height="30" as="alternateBounds" />
          </mxGeometry>
        </mxCell>
        <mxCell id="au4fLTNO0eDFEzKA2mFN-6" value="UNIQUE (postal_code, city_id)" style="shape=partialRectangle;overflow=hidden;connectable=0;fillColor=none;top=0;left=0;bottom=0;right=0;align=left;spacingLeft=6;fontStyle=2" parent="au4fLTNO0eDFEzKA2mFN-4" vertex="1">
          <mxGeometry x="30" width="430" height="30" as="geometry">
            <mxRectangle width="430" height="30" as="alternateBounds" />
          </mxGeometry>
        </mxCell>
        <mxCell id="C-vyLk0tnHw3VtMMgP7b-13" value="Cities" style="shape=table;startSize=30;container=1;collapsible=1;childLayout=tableLayout;fixedRows=1;rowLines=0;fontStyle=1;align=center;resizeLast=1;fillColor=#1ba1e2;fontColor=#ffffff;strokeColor=#006EAF;" parent="1" vertex="1">
          <mxGeometry x="610" y="30" width="430" height="130" as="geometry">
            <mxRectangle x="290" y="160" width="100" height="30" as="alternateBounds" />
          </mxGeometry>
        </mxCell>
        <mxCell id="C-vyLk0tnHw3VtMMgP7b-14" value="" style="shape=partialRectangle;collapsible=0;dropTarget=0;pointerEvents=0;fillColor=none;points=[[0,0.5],[1,0.5]];portConstraint=eastwest;top=0;left=0;right=0;bottom=1;" parent="C-vyLk0tnHw3VtMMgP7b-13" vertex="1">
          <mxGeometry y="30" width="430" height="30" as="geometry" />
        </mxCell>
        <mxCell id="C-vyLk0tnHw3VtMMgP7b-15" value="PK" style="shape=partialRectangle;overflow=hidden;connectable=0;fillColor=none;top=0;left=0;bottom=0;right=0;fontStyle=1;" parent="C-vyLk0tnHw3VtMMgP7b-14" vertex="1">
          <mxGeometry width="30" height="30" as="geometry">
            <mxRectangle width="30" height="30" as="alternateBounds" />
          </mxGeometry>
        </mxCell>
        <mxCell id="C-vyLk0tnHw3VtMMgP7b-16" value="id (INT, PRIMARY KEY, AUTO_INCREMENT, NOT NULL)" style="shape=partialRectangle;overflow=hidden;connectable=0;fillColor=none;top=0;left=0;bottom=0;right=0;align=left;spacingLeft=6;fontStyle=5;" parent="C-vyLk0tnHw3VtMMgP7b-14" vertex="1">
          <mxGeometry x="30" width="400" height="30" as="geometry">
            <mxRectangle width="400" height="30" as="alternateBounds" />
          </mxGeometry>
        </mxCell>
        <mxCell id="C-vyLk0tnHw3VtMMgP7b-17" value="" style="shape=partialRectangle;collapsible=0;dropTarget=0;pointerEvents=0;fillColor=none;points=[[0,0.5],[1,0.5]];portConstraint=eastwest;top=0;left=0;right=0;bottom=0;" parent="C-vyLk0tnHw3VtMMgP7b-13" vertex="1">
          <mxGeometry y="60" width="430" height="30" as="geometry" />
        </mxCell>
        <mxCell id="C-vyLk0tnHw3VtMMgP7b-18" value="" style="shape=partialRectangle;overflow=hidden;connectable=0;fillColor=none;top=0;left=0;bottom=0;right=0;" parent="C-vyLk0tnHw3VtMMgP7b-17" vertex="1">
          <mxGeometry width="30" height="30" as="geometry">
            <mxRectangle width="30" height="30" as="alternateBounds" />
          </mxGeometry>
        </mxCell>
        <mxCell id="C-vyLk0tnHw3VtMMgP7b-19" value="name (VARCHAR(100), NOT NULL)" style="shape=partialRectangle;overflow=hidden;connectable=0;fillColor=none;top=0;left=0;bottom=0;right=0;align=left;spacingLeft=6;" parent="C-vyLk0tnHw3VtMMgP7b-17" vertex="1">
          <mxGeometry x="30" width="400" height="30" as="geometry">
            <mxRectangle width="400" height="30" as="alternateBounds" />
          </mxGeometry>
        </mxCell>
        <mxCell id="C-vyLk0tnHw3VtMMgP7b-20" value="" style="shape=partialRectangle;collapsible=0;dropTarget=0;pointerEvents=0;fillColor=none;points=[[0,0.5],[1,0.5]];portConstraint=eastwest;top=0;left=0;right=0;bottom=0;" parent="C-vyLk0tnHw3VtMMgP7b-13" vertex="1">
          <mxGeometry y="90" width="430" height="30" as="geometry" />
        </mxCell>
        <mxCell id="C-vyLk0tnHw3VtMMgP7b-21" value="FK1" style="shape=partialRectangle;overflow=hidden;connectable=0;fillColor=none;top=0;left=0;bottom=0;right=0;" parent="C-vyLk0tnHw3VtMMgP7b-20" vertex="1">
          <mxGeometry width="30" height="30" as="geometry">
            <mxRectangle width="30" height="30" as="alternateBounds" />
          </mxGeometry>
        </mxCell>
        <mxCell id="C-vyLk0tnHw3VtMMgP7b-22" value="state_id (INT, FOREIGN KEY to States, NOT NULL)" style="shape=partialRectangle;overflow=hidden;connectable=0;fillColor=none;top=0;left=0;bottom=0;right=0;align=left;spacingLeft=6;" parent="C-vyLk0tnHw3VtMMgP7b-20" vertex="1">
          <mxGeometry x="30" width="400" height="30" as="geometry">
            <mxRectangle width="400" height="30" as="alternateBounds" />
          </mxGeometry>
        </mxCell>
        <mxCell id="C-vyLk0tnHw3VtMMgP7b-23" value="Addresses" style="shape=table;startSize=30;container=1;collapsible=1;childLayout=tableLayout;fixedRows=1;rowLines=0;fontStyle=1;align=center;resizeLast=1;fillColor=#1ba1e2;fontColor=#ffffff;strokeColor=#006EAF;" parent="1" vertex="1">
          <mxGeometry x="-360" y="30" width="430" height="130" as="geometry" />
        </mxCell>
        <mxCell id="C-vyLk0tnHw3VtMMgP7b-24" value="" style="shape=partialRectangle;collapsible=0;dropTarget=0;pointerEvents=0;fillColor=none;points=[[0,0.5],[1,0.5]];portConstraint=eastwest;top=0;left=0;right=0;bottom=1;" parent="C-vyLk0tnHw3VtMMgP7b-23" vertex="1">
          <mxGeometry y="30" width="430" height="30" as="geometry" />
        </mxCell>
        <mxCell id="C-vyLk0tnHw3VtMMgP7b-25" value="PK" style="shape=partialRectangle;overflow=hidden;connectable=0;fillColor=none;top=0;left=0;bottom=0;right=0;fontStyle=1;" parent="C-vyLk0tnHw3VtMMgP7b-24" vertex="1">
          <mxGeometry width="30" height="30" as="geometry">
            <mxRectangle width="30" height="30" as="alternateBounds" />
          </mxGeometry>
        </mxCell>
        <mxCell id="C-vyLk0tnHw3VtMMgP7b-26" value="id (UUID, PRIMARY KEY, DEFAULT uuid_generate_v4(), NOT NULL)" style="shape=partialRectangle;overflow=hidden;connectable=0;fillColor=none;top=0;left=0;bottom=0;right=0;align=left;spacingLeft=6;fontStyle=5;" parent="C-vyLk0tnHw3VtMMgP7b-24" vertex="1">
          <mxGeometry x="30" width="400" height="30" as="geometry">
            <mxRectangle width="400" height="30" as="alternateBounds" />
          </mxGeometry>
        </mxCell>
        <mxCell id="C-vyLk0tnHw3VtMMgP7b-27" value="" style="shape=partialRectangle;collapsible=0;dropTarget=0;pointerEvents=0;fillColor=none;points=[[0,0.5],[1,0.5]];portConstraint=eastwest;top=0;left=0;right=0;bottom=0;" parent="C-vyLk0tnHw3VtMMgP7b-23" vertex="1">
          <mxGeometry y="60" width="430" height="30" as="geometry" />
        </mxCell>
        <mxCell id="C-vyLk0tnHw3VtMMgP7b-28" value="" style="shape=partialRectangle;overflow=hidden;connectable=0;fillColor=none;top=0;left=0;bottom=0;right=0;" parent="C-vyLk0tnHw3VtMMgP7b-27" vertex="1">
          <mxGeometry width="30" height="30" as="geometry">
            <mxRectangle width="30" height="30" as="alternateBounds" />
          </mxGeometry>
        </mxCell>
        <mxCell id="C-vyLk0tnHw3VtMMgP7b-29" value="street (VARCHAR(255), NOT NULL)" style="shape=partialRectangle;overflow=hidden;connectable=0;fillColor=none;top=0;left=0;bottom=0;right=0;align=left;spacingLeft=6;" parent="C-vyLk0tnHw3VtMMgP7b-27" vertex="1">
          <mxGeometry x="30" width="400" height="30" as="geometry">
            <mxRectangle width="400" height="30" as="alternateBounds" />
          </mxGeometry>
        </mxCell>
        <mxCell id="au4fLTNO0eDFEzKA2mFN-1" style="shape=partialRectangle;collapsible=0;dropTarget=0;pointerEvents=0;fillColor=none;points=[[0,0.5],[1,0.5]];portConstraint=eastwest;top=0;left=0;right=0;bottom=0;" parent="C-vyLk0tnHw3VtMMgP7b-23" vertex="1">
          <mxGeometry y="90" width="430" height="30" as="geometry" />
        </mxCell>
        <mxCell id="au4fLTNO0eDFEzKA2mFN-2" value="FK1" style="shape=partialRectangle;overflow=hidden;connectable=0;fillColor=none;top=0;left=0;bottom=0;right=0;" parent="au4fLTNO0eDFEzKA2mFN-1" vertex="1">
          <mxGeometry width="30" height="30" as="geometry">
            <mxRectangle width="30" height="30" as="alternateBounds" />
          </mxGeometry>
        </mxCell>
        <mxCell id="au4fLTNO0eDFEzKA2mFN-3" value="postal_code_id (INT, FOREIGN KEY to PostalCodes, NOT NULL)" style="shape=partialRectangle;overflow=hidden;connectable=0;fillColor=none;top=0;left=0;bottom=0;right=0;align=left;spacingLeft=6;" parent="au4fLTNO0eDFEzKA2mFN-1" vertex="1">
          <mxGeometry x="30" width="400" height="30" as="geometry">
            <mxRectangle width="400" height="30" as="alternateBounds" />
          </mxGeometry>
        </mxCell>
        <mxCell id="C-vyLk0tnHw3VtMMgP7b-1" value="" style="edgeStyle=orthogonalEdgeStyle;endArrow=ERzeroToMany;startArrow=ERone;endFill=1;startFill=0;entryX=1;entryY=0.5;entryDx=0;entryDy=0;exitX=0;exitY=0.5;exitDx=0;exitDy=0;" parent="1" source="C-vyLk0tnHw3VtMMgP7b-3" target="au4fLTNO0eDFEzKA2mFN-1" edge="1">
          <mxGeometry width="100" height="100" relative="1" as="geometry">
            <mxPoint x="190" y="600" as="sourcePoint" />
            <mxPoint x="290" y="500" as="targetPoint" />
            <Array as="points">
              <mxPoint x="90" y="75" />
              <mxPoint x="90" y="135" />
            </Array>
          </mxGeometry>
        </mxCell>
        <mxCell id="C-vyLk0tnHw3VtMMgP7b-12" value="" style="endArrow=ERzeroToMany;startArrow=ERone;endFill=1;startFill=0;entryX=1;entryY=0.5;entryDx=0;entryDy=0;exitX=0;exitY=0.5;exitDx=0;exitDy=0;edgeStyle=orthogonalEdgeStyle;" parent="1" source="C-vyLk0tnHw3VtMMgP7b-14" target="C-vyLk0tnHw3VtMMgP7b-9" edge="1">
          <mxGeometry width="100" height="100" relative="1" as="geometry">
            <mxPoint x="250" y="60" as="sourcePoint" />
            <mxPoint x="310" y="85" as="targetPoint" />
          </mxGeometry>
        </mxCell>
        <mxCell id="au4fLTNO0eDFEzKA2mFN-7" value="States" style="shape=table;startSize=30;container=1;collapsible=1;childLayout=tableLayout;fixedRows=1;rowLines=0;fontStyle=1;align=center;resizeLast=1;fillColor=#1ba1e2;fontColor=#ffffff;strokeColor=#006EAF;" parent="1" vertex="1">
          <mxGeometry x="610" y="195" width="430" height="130" as="geometry">
            <mxRectangle x="290" y="160" width="100" height="30" as="alternateBounds" />
          </mxGeometry>
        </mxCell>
        <mxCell id="au4fLTNO0eDFEzKA2mFN-8" value="" style="shape=partialRectangle;collapsible=0;dropTarget=0;pointerEvents=0;fillColor=none;points=[[0,0.5],[1,0.5]];portConstraint=eastwest;top=0;left=0;right=0;bottom=1;" parent="au4fLTNO0eDFEzKA2mFN-7" vertex="1">
          <mxGeometry y="30" width="430" height="30" as="geometry" />
        </mxCell>
        <mxCell id="au4fLTNO0eDFEzKA2mFN-9" value="PK" style="shape=partialRectangle;overflow=hidden;connectable=0;fillColor=none;top=0;left=0;bottom=0;right=0;fontStyle=1;" parent="au4fLTNO0eDFEzKA2mFN-8" vertex="1">
          <mxGeometry width="30" height="30" as="geometry">
            <mxRectangle width="30" height="30" as="alternateBounds" />
          </mxGeometry>
        </mxCell>
        <mxCell id="au4fLTNO0eDFEzKA2mFN-10" value="id (INT, PRIMARY KEY, AUTO_INCREMENT, NOT NULL)" style="shape=partialRectangle;overflow=hidden;connectable=0;fillColor=none;top=0;left=0;bottom=0;right=0;align=left;spacingLeft=6;fontStyle=5;" parent="au4fLTNO0eDFEzKA2mFN-8" vertex="1">
          <mxGeometry x="30" width="400" height="30" as="geometry">
            <mxRectangle width="400" height="30" as="alternateBounds" />
          </mxGeometry>
        </mxCell>
        <mxCell id="au4fLTNO0eDFEzKA2mFN-11" value="" style="shape=partialRectangle;collapsible=0;dropTarget=0;pointerEvents=0;fillColor=none;points=[[0,0.5],[1,0.5]];portConstraint=eastwest;top=0;left=0;right=0;bottom=0;" parent="au4fLTNO0eDFEzKA2mFN-7" vertex="1">
          <mxGeometry y="60" width="430" height="30" as="geometry" />
        </mxCell>
        <mxCell id="au4fLTNO0eDFEzKA2mFN-12" value="" style="shape=partialRectangle;overflow=hidden;connectable=0;fillColor=none;top=0;left=0;bottom=0;right=0;" parent="au4fLTNO0eDFEzKA2mFN-11" vertex="1">
          <mxGeometry width="30" height="30" as="geometry">
            <mxRectangle width="30" height="30" as="alternateBounds" />
          </mxGeometry>
        </mxCell>
        <mxCell id="au4fLTNO0eDFEzKA2mFN-13" value="name (VARCHAR(100), NOT NULL)" style="shape=partialRectangle;overflow=hidden;connectable=0;fillColor=none;top=0;left=0;bottom=0;right=0;align=left;spacingLeft=6;" parent="au4fLTNO0eDFEzKA2mFN-11" vertex="1">
          <mxGeometry x="30" width="400" height="30" as="geometry">
            <mxRectangle width="400" height="30" as="alternateBounds" />
          </mxGeometry>
        </mxCell>
        <mxCell id="au4fLTNO0eDFEzKA2mFN-14" value="" style="shape=partialRectangle;collapsible=0;dropTarget=0;pointerEvents=0;fillColor=none;points=[[0,0.5],[1,0.5]];portConstraint=eastwest;top=0;left=0;right=0;bottom=0;" parent="au4fLTNO0eDFEzKA2mFN-7" vertex="1">
          <mxGeometry y="90" width="430" height="30" as="geometry" />
        </mxCell>
        <mxCell id="au4fLTNO0eDFEzKA2mFN-15" value="FK1" style="shape=partialRectangle;overflow=hidden;connectable=0;fillColor=none;top=0;left=0;bottom=0;right=0;" parent="au4fLTNO0eDFEzKA2mFN-14" vertex="1">
          <mxGeometry width="30" height="30" as="geometry">
            <mxRectangle width="30" height="30" as="alternateBounds" />
          </mxGeometry>
        </mxCell>
        <mxCell id="au4fLTNO0eDFEzKA2mFN-16" value="country_id (INT, FOREIGN KEY to Countries, NOT NULL)" style="shape=partialRectangle;overflow=hidden;connectable=0;fillColor=none;top=0;left=0;bottom=0;right=0;align=left;spacingLeft=6;" parent="au4fLTNO0eDFEzKA2mFN-14" vertex="1">
          <mxGeometry x="30" width="400" height="30" as="geometry">
            <mxRectangle width="400" height="30" as="alternateBounds" />
          </mxGeometry>
        </mxCell>
        <mxCell id="au4fLTNO0eDFEzKA2mFN-17" value="" style="edgeStyle=orthogonalEdgeStyle;endArrow=ERzeroToMany;startArrow=ERone;endFill=1;startFill=0;exitX=1;exitY=0.5;exitDx=0;exitDy=0;entryX=1;entryY=0.5;entryDx=0;entryDy=0;" parent="1" source="au4fLTNO0eDFEzKA2mFN-8" target="C-vyLk0tnHw3VtMMgP7b-20" edge="1">
          <mxGeometry width="100" height="100" relative="1" as="geometry">
            <mxPoint x="740" y="85" as="sourcePoint" />
            <mxPoint x="1250" y="190" as="targetPoint" />
            <Array as="points">
              <mxPoint x="1070" y="240" />
              <mxPoint x="1070" y="135" />
            </Array>
          </mxGeometry>
        </mxCell>
        <mxCell id="au4fLTNO0eDFEzKA2mFN-18" value="States" style="shape=table;startSize=30;container=1;collapsible=1;childLayout=tableLayout;fixedRows=1;rowLines=0;fontStyle=1;align=center;resizeLast=1;fillColor=#1ba1e2;fontColor=#ffffff;strokeColor=#006EAF;" parent="1" vertex="1">
          <mxGeometry x="140" y="255" width="430" height="100" as="geometry">
            <mxRectangle x="290" y="160" width="100" height="30" as="alternateBounds" />
          </mxGeometry>
        </mxCell>
        <mxCell id="au4fLTNO0eDFEzKA2mFN-19" value="" style="shape=partialRectangle;collapsible=0;dropTarget=0;pointerEvents=0;fillColor=none;points=[[0,0.5],[1,0.5]];portConstraint=eastwest;top=0;left=0;right=0;bottom=1;" parent="au4fLTNO0eDFEzKA2mFN-18" vertex="1">
          <mxGeometry y="30" width="430" height="30" as="geometry" />
        </mxCell>
        <mxCell id="au4fLTNO0eDFEzKA2mFN-20" value="PK" style="shape=partialRectangle;overflow=hidden;connectable=0;fillColor=none;top=0;left=0;bottom=0;right=0;fontStyle=1;" parent="au4fLTNO0eDFEzKA2mFN-19" vertex="1">
          <mxGeometry width="30" height="30" as="geometry">
            <mxRectangle width="30" height="30" as="alternateBounds" />
          </mxGeometry>
        </mxCell>
        <mxCell id="au4fLTNO0eDFEzKA2mFN-21" value="id (INT, PRIMARY KEY, AUTO_INCREMENT, NOT NULL)" style="shape=partialRectangle;overflow=hidden;connectable=0;fillColor=none;top=0;left=0;bottom=0;right=0;align=left;spacingLeft=6;fontStyle=5;" parent="au4fLTNO0eDFEzKA2mFN-19" vertex="1">
          <mxGeometry x="30" width="400" height="30" as="geometry">
            <mxRectangle width="400" height="30" as="alternateBounds" />
          </mxGeometry>
        </mxCell>
        <mxCell id="au4fLTNO0eDFEzKA2mFN-22" value="" style="shape=partialRectangle;collapsible=0;dropTarget=0;pointerEvents=0;fillColor=none;points=[[0,0.5],[1,0.5]];portConstraint=eastwest;top=0;left=0;right=0;bottom=0;" parent="au4fLTNO0eDFEzKA2mFN-18" vertex="1">
          <mxGeometry y="60" width="430" height="30" as="geometry" />
        </mxCell>
        <mxCell id="au4fLTNO0eDFEzKA2mFN-23" value="" style="shape=partialRectangle;overflow=hidden;connectable=0;fillColor=none;top=0;left=0;bottom=0;right=0;" parent="au4fLTNO0eDFEzKA2mFN-22" vertex="1">
          <mxGeometry width="30" height="30" as="geometry">
            <mxRectangle width="30" height="30" as="alternateBounds" />
          </mxGeometry>
        </mxCell>
        <mxCell id="au4fLTNO0eDFEzKA2mFN-24" value="name (VARCHAR(100), UNIQUE, NOT NULL)" style="shape=partialRectangle;overflow=hidden;connectable=0;fillColor=none;top=0;left=0;bottom=0;right=0;align=left;spacingLeft=6;" parent="au4fLTNO0eDFEzKA2mFN-22" vertex="1">
          <mxGeometry x="30" width="400" height="30" as="geometry">
            <mxRectangle width="400" height="30" as="alternateBounds" />
          </mxGeometry>
        </mxCell>
        <mxCell id="au4fLTNO0eDFEzKA2mFN-28" value="" style="edgeStyle=orthogonalEdgeStyle;endArrow=ERzeroToMany;startArrow=ERone;endFill=1;startFill=0;entryX=0;entryY=0.5;entryDx=0;entryDy=0;exitX=1;exitY=0.5;exitDx=0;exitDy=0;" parent="1" source="au4fLTNO0eDFEzKA2mFN-19" target="au4fLTNO0eDFEzKA2mFN-14" edge="1">
          <mxGeometry width="100" height="100" relative="1" as="geometry">
            <mxPoint x="780" y="270" as="sourcePoint" />
            <mxPoint x="720" y="330" as="targetPoint" />
          </mxGeometry>
        </mxCell>
        <mxCell id="au4fLTNO0eDFEzKA2mFN-29" value="Users" style="shape=table;startSize=30;container=1;collapsible=1;childLayout=tableLayout;fixedRows=1;rowLines=0;fontStyle=1;align=center;resizeLast=1;fillColor=#a20025;fontColor=#ffffff;strokeColor=#6F0000;" parent="1" vertex="1">
          <mxGeometry x="-865" y="220" width="440" height="340" as="geometry" />
        </mxCell>
        <mxCell id="au4fLTNO0eDFEzKA2mFN-30" value="" style="shape=partialRectangle;collapsible=0;dropTarget=0;pointerEvents=0;fillColor=none;points=[[0,0.5],[1,0.5]];portConstraint=eastwest;top=0;left=0;right=0;bottom=1;" parent="au4fLTNO0eDFEzKA2mFN-29" vertex="1">
          <mxGeometry y="30" width="440" height="30" as="geometry" />
        </mxCell>
        <mxCell id="au4fLTNO0eDFEzKA2mFN-31" value="PK" style="shape=partialRectangle;overflow=hidden;connectable=0;fillColor=none;top=0;left=0;bottom=0;right=0;fontStyle=1;" parent="au4fLTNO0eDFEzKA2mFN-30" vertex="1">
          <mxGeometry width="30" height="30" as="geometry">
            <mxRectangle width="30" height="30" as="alternateBounds" />
          </mxGeometry>
        </mxCell>
        <mxCell id="au4fLTNO0eDFEzKA2mFN-32" value="id (UUID, PRIMARY KEY, DEFAULT uuid_generate_v4(), NOT NULL)" style="shape=partialRectangle;overflow=hidden;connectable=0;fillColor=none;top=0;left=0;bottom=0;right=0;align=left;spacingLeft=6;fontStyle=5;" parent="au4fLTNO0eDFEzKA2mFN-30" vertex="1">
          <mxGeometry x="30" width="410" height="30" as="geometry">
            <mxRectangle width="410" height="30" as="alternateBounds" />
          </mxGeometry>
        </mxCell>
        <mxCell id="au4fLTNO0eDFEzKA2mFN-33" value="" style="shape=partialRectangle;collapsible=0;dropTarget=0;pointerEvents=0;fillColor=none;points=[[0,0.5],[1,0.5]];portConstraint=eastwest;top=0;left=0;right=0;bottom=0;" parent="au4fLTNO0eDFEzKA2mFN-29" vertex="1">
          <mxGeometry y="60" width="440" height="30" as="geometry" />
        </mxCell>
        <mxCell id="au4fLTNO0eDFEzKA2mFN-34" value="" style="shape=partialRectangle;overflow=hidden;connectable=0;fillColor=none;top=0;left=0;bottom=0;right=0;" parent="au4fLTNO0eDFEzKA2mFN-33" vertex="1">
          <mxGeometry width="30" height="30" as="geometry">
            <mxRectangle width="30" height="30" as="alternateBounds" />
          </mxGeometry>
        </mxCell>
        <mxCell id="au4fLTNO0eDFEzKA2mFN-35" value="first_name (VARCHAR(50), NOT NULL)" style="shape=partialRectangle;overflow=hidden;connectable=0;fillColor=none;top=0;left=0;bottom=0;right=0;align=left;spacingLeft=6;" parent="au4fLTNO0eDFEzKA2mFN-33" vertex="1">
          <mxGeometry x="30" width="410" height="30" as="geometry">
            <mxRectangle width="410" height="30" as="alternateBounds" />
          </mxGeometry>
        </mxCell>
        <mxCell id="au4fLTNO0eDFEzKA2mFN-36" style="shape=partialRectangle;collapsible=0;dropTarget=0;pointerEvents=0;fillColor=none;points=[[0,0.5],[1,0.5]];portConstraint=eastwest;top=0;left=0;right=0;bottom=0;" parent="au4fLTNO0eDFEzKA2mFN-29" vertex="1">
          <mxGeometry y="90" width="440" height="30" as="geometry" />
        </mxCell>
        <mxCell id="au4fLTNO0eDFEzKA2mFN-37" value="" style="shape=partialRectangle;overflow=hidden;connectable=0;fillColor=none;top=0;left=0;bottom=0;right=0;" parent="au4fLTNO0eDFEzKA2mFN-36" vertex="1">
          <mxGeometry width="30" height="30" as="geometry">
            <mxRectangle width="30" height="30" as="alternateBounds" />
          </mxGeometry>
        </mxCell>
        <mxCell id="au4fLTNO0eDFEzKA2mFN-38" value="last_name (VARCHAR(50), NOT NULL)" style="shape=partialRectangle;overflow=hidden;connectable=0;fillColor=none;top=0;left=0;bottom=0;right=0;align=left;spacingLeft=6;" parent="au4fLTNO0eDFEzKA2mFN-36" vertex="1">
          <mxGeometry x="30" width="410" height="30" as="geometry">
            <mxRectangle width="410" height="30" as="alternateBounds" />
          </mxGeometry>
        </mxCell>
        <mxCell id="au4fLTNO0eDFEzKA2mFN-39" style="shape=partialRectangle;collapsible=0;dropTarget=0;pointerEvents=0;fillColor=none;points=[[0,0.5],[1,0.5]];portConstraint=eastwest;top=0;left=0;right=0;bottom=0;" parent="au4fLTNO0eDFEzKA2mFN-29" vertex="1">
          <mxGeometry y="120" width="440" height="30" as="geometry" />
        </mxCell>
        <mxCell id="au4fLTNO0eDFEzKA2mFN-40" style="shape=partialRectangle;overflow=hidden;connectable=0;fillColor=none;top=0;left=0;bottom=0;right=0;" parent="au4fLTNO0eDFEzKA2mFN-39" vertex="1">
          <mxGeometry width="30" height="30" as="geometry">
            <mxRectangle width="30" height="30" as="alternateBounds" />
          </mxGeometry>
        </mxCell>
        <mxCell id="au4fLTNO0eDFEzKA2mFN-41" value="email (VARCHAR(100), UNIQUE, NOT NULL)" style="shape=partialRectangle;overflow=hidden;connectable=0;fillColor=none;top=0;left=0;bottom=0;right=0;align=left;spacingLeft=6;" parent="au4fLTNO0eDFEzKA2mFN-39" vertex="1">
          <mxGeometry x="30" width="410" height="30" as="geometry">
            <mxRectangle width="410" height="30" as="alternateBounds" />
          </mxGeometry>
        </mxCell>
        <mxCell id="au4fLTNO0eDFEzKA2mFN-42" style="shape=partialRectangle;collapsible=0;dropTarget=0;pointerEvents=0;fillColor=none;points=[[0,0.5],[1,0.5]];portConstraint=eastwest;top=0;left=0;right=0;bottom=0;" parent="au4fLTNO0eDFEzKA2mFN-29" vertex="1">
          <mxGeometry y="150" width="440" height="30" as="geometry" />
        </mxCell>
        <mxCell id="au4fLTNO0eDFEzKA2mFN-43" style="shape=partialRectangle;overflow=hidden;connectable=0;fillColor=none;top=0;left=0;bottom=0;right=0;" parent="au4fLTNO0eDFEzKA2mFN-42" vertex="1">
          <mxGeometry width="30" height="30" as="geometry">
            <mxRectangle width="30" height="30" as="alternateBounds" />
          </mxGeometry>
        </mxCell>
        <mxCell id="au4fLTNO0eDFEzKA2mFN-44" value="password (VARCHAR(255), NOT NULL)" style="shape=partialRectangle;overflow=hidden;connectable=0;fillColor=none;top=0;left=0;bottom=0;right=0;align=left;spacingLeft=6;" parent="au4fLTNO0eDFEzKA2mFN-42" vertex="1">
          <mxGeometry x="30" width="410" height="30" as="geometry">
            <mxRectangle width="410" height="30" as="alternateBounds" />
          </mxGeometry>
        </mxCell>
        <mxCell id="au4fLTNO0eDFEzKA2mFN-45" style="shape=partialRectangle;collapsible=0;dropTarget=0;pointerEvents=0;fillColor=none;points=[[0,0.5],[1,0.5]];portConstraint=eastwest;top=0;left=0;right=0;bottom=0;" parent="au4fLTNO0eDFEzKA2mFN-29" vertex="1">
          <mxGeometry y="180" width="440" height="30" as="geometry" />
        </mxCell>
        <mxCell id="au4fLTNO0eDFEzKA2mFN-46" value="FK1" style="shape=partialRectangle;overflow=hidden;connectable=0;fillColor=none;top=0;left=0;bottom=0;right=0;" parent="au4fLTNO0eDFEzKA2mFN-45" vertex="1">
          <mxGeometry width="30" height="30" as="geometry">
            <mxRectangle width="30" height="30" as="alternateBounds" />
          </mxGeometry>
        </mxCell>
        <mxCell id="au4fLTNO0eDFEzKA2mFN-47" value="address_id (UUID, FOREIGN KEY to Addresses, NULLABLE)" style="shape=partialRectangle;overflow=hidden;connectable=0;fillColor=none;top=0;left=0;bottom=0;right=0;align=left;spacingLeft=6;" parent="au4fLTNO0eDFEzKA2mFN-45" vertex="1">
          <mxGeometry x="30" width="410" height="30" as="geometry">
            <mxRectangle width="410" height="30" as="alternateBounds" />
          </mxGeometry>
        </mxCell>
        <mxCell id="au4fLTNO0eDFEzKA2mFN-48" style="shape=partialRectangle;collapsible=0;dropTarget=0;pointerEvents=0;fillColor=none;points=[[0,0.5],[1,0.5]];portConstraint=eastwest;top=0;left=0;right=0;bottom=0;" parent="au4fLTNO0eDFEzKA2mFN-29" vertex="1">
          <mxGeometry y="210" width="440" height="30" as="geometry" />
        </mxCell>
        <mxCell id="au4fLTNO0eDFEzKA2mFN-49" style="shape=partialRectangle;overflow=hidden;connectable=0;fillColor=none;top=0;left=0;bottom=0;right=0;" parent="au4fLTNO0eDFEzKA2mFN-48" vertex="1">
          <mxGeometry width="30" height="30" as="geometry">
            <mxRectangle width="30" height="30" as="alternateBounds" />
          </mxGeometry>
        </mxCell>
        <mxCell id="au4fLTNO0eDFEzKA2mFN-50" value="is_2fa_enabled (BOOLEAN, DEFAULT FALSE, NOT NULL)" style="shape=partialRectangle;overflow=hidden;connectable=0;fillColor=none;top=0;left=0;bottom=0;right=0;align=left;spacingLeft=6;" parent="au4fLTNO0eDFEzKA2mFN-48" vertex="1">
          <mxGeometry x="30" width="410" height="30" as="geometry">
            <mxRectangle width="410" height="30" as="alternateBounds" />
          </mxGeometry>
        </mxCell>
        <mxCell id="au4fLTNO0eDFEzKA2mFN-51" style="shape=partialRectangle;collapsible=0;dropTarget=0;pointerEvents=0;fillColor=none;points=[[0,0.5],[1,0.5]];portConstraint=eastwest;top=0;left=0;right=0;bottom=0;" parent="au4fLTNO0eDFEzKA2mFN-29" vertex="1">
          <mxGeometry y="240" width="440" height="30" as="geometry" />
        </mxCell>
        <mxCell id="au4fLTNO0eDFEzKA2mFN-52" style="shape=partialRectangle;overflow=hidden;connectable=0;fillColor=none;top=0;left=0;bottom=0;right=0;" parent="au4fLTNO0eDFEzKA2mFN-51" vertex="1">
          <mxGeometry width="30" height="30" as="geometry">
            <mxRectangle width="30" height="30" as="alternateBounds" />
          </mxGeometry>
        </mxCell>
        <mxCell id="au4fLTNO0eDFEzKA2mFN-53" value="is_passkey_enabled (BOOLEAN, DEFAULT FALSE, NOT NULL)" style="shape=partialRectangle;overflow=hidden;connectable=0;fillColor=none;top=0;left=0;bottom=0;right=0;align=left;spacingLeft=6;" parent="au4fLTNO0eDFEzKA2mFN-51" vertex="1">
          <mxGeometry x="30" width="410" height="30" as="geometry">
            <mxRectangle width="410" height="30" as="alternateBounds" />
          </mxGeometry>
        </mxCell>
        <mxCell id="au4fLTNO0eDFEzKA2mFN-54" style="shape=partialRectangle;collapsible=0;dropTarget=0;pointerEvents=0;fillColor=none;points=[[0,0.5],[1,0.5]];portConstraint=eastwest;top=0;left=0;right=0;bottom=0;" parent="au4fLTNO0eDFEzKA2mFN-29" vertex="1">
          <mxGeometry y="270" width="440" height="30" as="geometry" />
        </mxCell>
        <mxCell id="au4fLTNO0eDFEzKA2mFN-55" style="shape=partialRectangle;overflow=hidden;connectable=0;fillColor=none;top=0;left=0;bottom=0;right=0;" parent="au4fLTNO0eDFEzKA2mFN-54" vertex="1">
          <mxGeometry width="30" height="30" as="geometry">
            <mxRectangle width="30" height="30" as="alternateBounds" />
          </mxGeometry>
        </mxCell>
        <mxCell id="au4fLTNO0eDFEzKA2mFN-56" value="created_at (DATETIME, DEFAULT CURRENT_TIMESTAMP, NOT NULL)" style="shape=partialRectangle;overflow=hidden;connectable=0;fillColor=none;top=0;left=0;bottom=0;right=0;align=left;spacingLeft=6;" parent="au4fLTNO0eDFEzKA2mFN-54" vertex="1">
          <mxGeometry x="30" width="410" height="30" as="geometry">
            <mxRectangle width="410" height="30" as="alternateBounds" />
          </mxGeometry>
        </mxCell>
        <mxCell id="au4fLTNO0eDFEzKA2mFN-57" style="shape=partialRectangle;collapsible=0;dropTarget=0;pointerEvents=0;fillColor=none;points=[[0,0.5],[1,0.5]];portConstraint=eastwest;top=0;left=0;right=0;bottom=0;" parent="au4fLTNO0eDFEzKA2mFN-29" vertex="1">
          <mxGeometry y="300" width="440" height="30" as="geometry" />
        </mxCell>
        <mxCell id="au4fLTNO0eDFEzKA2mFN-58" style="shape=partialRectangle;overflow=hidden;connectable=0;fillColor=none;top=0;left=0;bottom=0;right=0;" parent="au4fLTNO0eDFEzKA2mFN-57" vertex="1">
          <mxGeometry width="30" height="30" as="geometry">
            <mxRectangle width="30" height="30" as="alternateBounds" />
          </mxGeometry>
        </mxCell>
        <mxCell id="au4fLTNO0eDFEzKA2mFN-59" value="updated_at (DATETIME, DEFAULT CURRENT_TIMESTAMP, &#xa;                    ON UPDATE CURRENT_TIMESTAMP, NOT NULL)" style="shape=partialRectangle;overflow=hidden;connectable=0;fillColor=none;top=0;left=0;bottom=0;right=0;align=left;spacingLeft=6;" parent="au4fLTNO0eDFEzKA2mFN-57" vertex="1">
          <mxGeometry x="30" width="410" height="30" as="geometry">
            <mxRectangle width="410" height="30" as="alternateBounds" />
          </mxGeometry>
        </mxCell>
        <mxCell id="au4fLTNO0eDFEzKA2mFN-60" value="Clubs" style="shape=table;startSize=30;container=1;collapsible=1;childLayout=tableLayout;fixedRows=1;rowLines=0;fontStyle=1;align=center;resizeLast=1;fillColor=#008a00;fontColor=#ffffff;strokeColor=#005700;" parent="1" vertex="1">
          <mxGeometry x="-865" y="-15" width="440" height="220" as="geometry" />
        </mxCell>
        <mxCell id="au4fLTNO0eDFEzKA2mFN-61" value="" style="shape=partialRectangle;collapsible=0;dropTarget=0;pointerEvents=0;fillColor=none;points=[[0,0.5],[1,0.5]];portConstraint=eastwest;top=0;left=0;right=0;bottom=1;" parent="au4fLTNO0eDFEzKA2mFN-60" vertex="1">
          <mxGeometry y="30" width="440" height="30" as="geometry" />
        </mxCell>
        <mxCell id="au4fLTNO0eDFEzKA2mFN-62" value="PK" style="shape=partialRectangle;overflow=hidden;connectable=0;fillColor=none;top=0;left=0;bottom=0;right=0;fontStyle=1;" parent="au4fLTNO0eDFEzKA2mFN-61" vertex="1">
          <mxGeometry width="30" height="30" as="geometry">
            <mxRectangle width="30" height="30" as="alternateBounds" />
          </mxGeometry>
        </mxCell>
        <mxCell id="au4fLTNO0eDFEzKA2mFN-63" value="id (UUID, PRIMARY KEY, DEFAULT uuid_generate_v4(), NOT NULL)" style="shape=partialRectangle;overflow=hidden;connectable=0;fillColor=none;top=0;left=0;bottom=0;right=0;align=left;spacingLeft=6;fontStyle=5;" parent="au4fLTNO0eDFEzKA2mFN-61" vertex="1">
          <mxGeometry x="30" width="410" height="30" as="geometry">
            <mxRectangle width="410" height="30" as="alternateBounds" />
          </mxGeometry>
        </mxCell>
        <mxCell id="au4fLTNO0eDFEzKA2mFN-64" value="" style="shape=partialRectangle;collapsible=0;dropTarget=0;pointerEvents=0;fillColor=none;points=[[0,0.5],[1,0.5]];portConstraint=eastwest;top=0;left=0;right=0;bottom=0;" parent="au4fLTNO0eDFEzKA2mFN-60" vertex="1">
          <mxGeometry y="60" width="440" height="30" as="geometry" />
        </mxCell>
        <mxCell id="au4fLTNO0eDFEzKA2mFN-65" value="" style="shape=partialRectangle;overflow=hidden;connectable=0;fillColor=none;top=0;left=0;bottom=0;right=0;" parent="au4fLTNO0eDFEzKA2mFN-64" vertex="1">
          <mxGeometry width="30" height="30" as="geometry">
            <mxRectangle width="30" height="30" as="alternateBounds" />
          </mxGeometry>
        </mxCell>
        <mxCell id="au4fLTNO0eDFEzKA2mFN-66" value="name (VARCHAR(100), NOT NULL)" style="shape=partialRectangle;overflow=hidden;connectable=0;fillColor=none;top=0;left=0;bottom=0;right=0;align=left;spacingLeft=6;" parent="au4fLTNO0eDFEzKA2mFN-64" vertex="1">
          <mxGeometry x="30" width="410" height="30" as="geometry">
            <mxRectangle width="410" height="30" as="alternateBounds" />
          </mxGeometry>
        </mxCell>
        <mxCell id="au4fLTNO0eDFEzKA2mFN-67" style="shape=partialRectangle;collapsible=0;dropTarget=0;pointerEvents=0;fillColor=none;points=[[0,0.5],[1,0.5]];portConstraint=eastwest;top=0;left=0;right=0;bottom=0;" parent="au4fLTNO0eDFEzKA2mFN-60" vertex="1">
          <mxGeometry y="90" width="440" height="30" as="geometry" />
        </mxCell>
        <mxCell id="au4fLTNO0eDFEzKA2mFN-68" value="" style="shape=partialRectangle;overflow=hidden;connectable=0;fillColor=none;top=0;left=0;bottom=0;right=0;" parent="au4fLTNO0eDFEzKA2mFN-67" vertex="1">
          <mxGeometry width="30" height="30" as="geometry">
            <mxRectangle width="30" height="30" as="alternateBounds" />
          </mxGeometry>
        </mxCell>
        <mxCell id="au4fLTNO0eDFEzKA2mFN-69" value="description (TEXT, NULLABLE)" style="shape=partialRectangle;overflow=hidden;connectable=0;fillColor=none;top=0;left=0;bottom=0;right=0;align=left;spacingLeft=6;" parent="au4fLTNO0eDFEzKA2mFN-67" vertex="1">
          <mxGeometry x="30" width="410" height="30" as="geometry">
            <mxRectangle width="410" height="30" as="alternateBounds" />
          </mxGeometry>
        </mxCell>
        <mxCell id="au4fLTNO0eDFEzKA2mFN-70" style="shape=partialRectangle;collapsible=0;dropTarget=0;pointerEvents=0;fillColor=none;points=[[0,0.5],[1,0.5]];portConstraint=eastwest;top=0;left=0;right=0;bottom=0;" parent="au4fLTNO0eDFEzKA2mFN-60" vertex="1">
          <mxGeometry y="120" width="440" height="30" as="geometry" />
        </mxCell>
        <mxCell id="au4fLTNO0eDFEzKA2mFN-71" value="FK1" style="shape=partialRectangle;overflow=hidden;connectable=0;fillColor=none;top=0;left=0;bottom=0;right=0;" parent="au4fLTNO0eDFEzKA2mFN-70" vertex="1">
          <mxGeometry width="30" height="30" as="geometry">
            <mxRectangle width="30" height="30" as="alternateBounds" />
          </mxGeometry>
        </mxCell>
        <mxCell id="au4fLTNO0eDFEzKA2mFN-72" value="address_id (UUID, FOREIGN KEY zu Addresses, NOT NULL)" style="shape=partialRectangle;overflow=hidden;connectable=0;fillColor=none;top=0;left=0;bottom=0;right=0;align=left;spacingLeft=6;" parent="au4fLTNO0eDFEzKA2mFN-70" vertex="1">
          <mxGeometry x="30" width="410" height="30" as="geometry">
            <mxRectangle width="410" height="30" as="alternateBounds" />
          </mxGeometry>
        </mxCell>
        <mxCell id="au4fLTNO0eDFEzKA2mFN-73" style="shape=partialRectangle;collapsible=0;dropTarget=0;pointerEvents=0;fillColor=none;points=[[0,0.5],[1,0.5]];portConstraint=eastwest;top=0;left=0;right=0;bottom=0;" parent="au4fLTNO0eDFEzKA2mFN-60" vertex="1">
          <mxGeometry y="150" width="440" height="30" as="geometry" />
        </mxCell>
        <mxCell id="au4fLTNO0eDFEzKA2mFN-74" style="shape=partialRectangle;overflow=hidden;connectable=0;fillColor=none;top=0;left=0;bottom=0;right=0;" parent="au4fLTNO0eDFEzKA2mFN-73" vertex="1">
          <mxGeometry width="30" height="30" as="geometry">
            <mxRectangle width="30" height="30" as="alternateBounds" />
          </mxGeometry>
        </mxCell>
        <mxCell id="au4fLTNO0eDFEzKA2mFN-75" value="is_verfied (BOOLEAN, NOT NULL, DEFAULT FALSE)" style="shape=partialRectangle;overflow=hidden;connectable=0;fillColor=none;top=0;left=0;bottom=0;right=0;align=left;spacingLeft=6;" parent="au4fLTNO0eDFEzKA2mFN-73" vertex="1">
          <mxGeometry x="30" width="410" height="30" as="geometry">
            <mxRectangle width="410" height="30" as="alternateBounds" />
          </mxGeometry>
        </mxCell>
        <mxCell id="r57OtNzRVVPUp7_2qa3u-1" style="shape=partialRectangle;collapsible=0;dropTarget=0;pointerEvents=0;fillColor=none;points=[[0,0.5],[1,0.5]];portConstraint=eastwest;top=0;left=0;right=0;bottom=0;" vertex="1" parent="au4fLTNO0eDFEzKA2mFN-60">
          <mxGeometry y="180" width="440" height="30" as="geometry" />
        </mxCell>
        <mxCell id="r57OtNzRVVPUp7_2qa3u-2" style="shape=partialRectangle;overflow=hidden;connectable=0;fillColor=none;top=0;left=0;bottom=0;right=0;" vertex="1" parent="r57OtNzRVVPUp7_2qa3u-1">
          <mxGeometry width="30" height="30" as="geometry">
            <mxRectangle width="30" height="30" as="alternateBounds" />
          </mxGeometry>
        </mxCell>
        <mxCell id="r57OtNzRVVPUp7_2qa3u-3" value="created_at (DATETIME, DEFAULT CURRENT_TIMESTAMP, NOT NULL)" style="shape=partialRectangle;overflow=hidden;connectable=0;fillColor=none;top=0;left=0;bottom=0;right=0;align=left;spacingLeft=6;" vertex="1" parent="r57OtNzRVVPUp7_2qa3u-1">
          <mxGeometry x="30" width="410" height="30" as="geometry">
            <mxRectangle width="410" height="30" as="alternateBounds" />
          </mxGeometry>
        </mxCell>
        <mxCell id="au4fLTNO0eDFEzKA2mFN-76" value="Programs" style="shape=table;startSize=30;container=1;collapsible=1;childLayout=tableLayout;fixedRows=1;rowLines=0;fontStyle=1;align=center;resizeLast=1;fillColor=#008a00;fontColor=#ffffff;strokeColor=#005700;" parent="1" vertex="1">
          <mxGeometry x="-1420" y="-140" width="440" height="250" as="geometry" />
        </mxCell>
        <mxCell id="au4fLTNO0eDFEzKA2mFN-77" value="" style="shape=partialRectangle;collapsible=0;dropTarget=0;pointerEvents=0;fillColor=none;points=[[0,0.5],[1,0.5]];portConstraint=eastwest;top=0;left=0;right=0;bottom=1;" parent="au4fLTNO0eDFEzKA2mFN-76" vertex="1">
          <mxGeometry y="30" width="440" height="30" as="geometry" />
        </mxCell>
        <mxCell id="au4fLTNO0eDFEzKA2mFN-78" value="PK" style="shape=partialRectangle;overflow=hidden;connectable=0;fillColor=none;top=0;left=0;bottom=0;right=0;fontStyle=1;" parent="au4fLTNO0eDFEzKA2mFN-77" vertex="1">
          <mxGeometry width="30" height="30" as="geometry">
            <mxRectangle width="30" height="30" as="alternateBounds" />
          </mxGeometry>
        </mxCell>
        <mxCell id="au4fLTNO0eDFEzKA2mFN-79" value="id (UUID, PRIMARY KEY, DEFAULT uuid_generate_v4(), NOT NULL)" style="shape=partialRectangle;overflow=hidden;connectable=0;fillColor=none;top=0;left=0;bottom=0;right=0;align=left;spacingLeft=6;fontStyle=5;" parent="au4fLTNO0eDFEzKA2mFN-77" vertex="1">
          <mxGeometry x="30" width="410" height="30" as="geometry">
            <mxRectangle width="410" height="30" as="alternateBounds" />
          </mxGeometry>
        </mxCell>
        <mxCell id="au4fLTNO0eDFEzKA2mFN-80" value="" style="shape=partialRectangle;collapsible=0;dropTarget=0;pointerEvents=0;fillColor=none;points=[[0,0.5],[1,0.5]];portConstraint=eastwest;top=0;left=0;right=0;bottom=0;" parent="au4fLTNO0eDFEzKA2mFN-76" vertex="1">
          <mxGeometry y="60" width="440" height="30" as="geometry" />
        </mxCell>
        <mxCell id="au4fLTNO0eDFEzKA2mFN-81" value="" style="shape=partialRectangle;overflow=hidden;connectable=0;fillColor=none;top=0;left=0;bottom=0;right=0;" parent="au4fLTNO0eDFEzKA2mFN-80" vertex="1">
          <mxGeometry width="30" height="30" as="geometry">
            <mxRectangle width="30" height="30" as="alternateBounds" />
          </mxGeometry>
        </mxCell>
        <mxCell id="au4fLTNO0eDFEzKA2mFN-82" value="name (VARCHAR(100), NOT NULL)" style="shape=partialRectangle;overflow=hidden;connectable=0;fillColor=none;top=0;left=0;bottom=0;right=0;align=left;spacingLeft=6;" parent="au4fLTNO0eDFEzKA2mFN-80" vertex="1">
          <mxGeometry x="30" width="410" height="30" as="geometry">
            <mxRectangle width="410" height="30" as="alternateBounds" />
          </mxGeometry>
        </mxCell>
        <mxCell id="au4fLTNO0eDFEzKA2mFN-83" style="shape=partialRectangle;collapsible=0;dropTarget=0;pointerEvents=0;fillColor=none;points=[[0,0.5],[1,0.5]];portConstraint=eastwest;top=0;left=0;right=0;bottom=0;" parent="au4fLTNO0eDFEzKA2mFN-76" vertex="1">
          <mxGeometry y="90" width="440" height="30" as="geometry" />
        </mxCell>
        <mxCell id="au4fLTNO0eDFEzKA2mFN-84" value="" style="shape=partialRectangle;overflow=hidden;connectable=0;fillColor=none;top=0;left=0;bottom=0;right=0;" parent="au4fLTNO0eDFEzKA2mFN-83" vertex="1">
          <mxGeometry width="30" height="30" as="geometry">
            <mxRectangle width="30" height="30" as="alternateBounds" />
          </mxGeometry>
        </mxCell>
        <mxCell id="au4fLTNO0eDFEzKA2mFN-85" value="description (TEXT, NULLABLE)" style="shape=partialRectangle;overflow=hidden;connectable=0;fillColor=none;top=0;left=0;bottom=0;right=0;align=left;spacingLeft=6;" parent="au4fLTNO0eDFEzKA2mFN-83" vertex="1">
          <mxGeometry x="30" width="410" height="30" as="geometry">
            <mxRectangle width="410" height="30" as="alternateBounds" />
          </mxGeometry>
        </mxCell>
        <mxCell id="au4fLTNO0eDFEzKA2mFN-86" style="shape=partialRectangle;collapsible=0;dropTarget=0;pointerEvents=0;fillColor=none;points=[[0,0.5],[1,0.5]];portConstraint=eastwest;top=0;left=0;right=0;bottom=0;" parent="au4fLTNO0eDFEzKA2mFN-76" vertex="1">
          <mxGeometry y="120" width="440" height="30" as="geometry" />
        </mxCell>
        <mxCell id="au4fLTNO0eDFEzKA2mFN-87" value="FK1" style="shape=partialRectangle;overflow=hidden;connectable=0;fillColor=none;top=0;left=0;bottom=0;right=0;" parent="au4fLTNO0eDFEzKA2mFN-86" vertex="1">
          <mxGeometry width="30" height="30" as="geometry">
            <mxRectangle width="30" height="30" as="alternateBounds" />
          </mxGeometry>
        </mxCell>
        <mxCell id="au4fLTNO0eDFEzKA2mFN-88" value="type_id (INT, FOREIGN KEY zu ProgramTypes, NOT NULL)" style="shape=partialRectangle;overflow=hidden;connectable=0;fillColor=none;top=0;left=0;bottom=0;right=0;align=left;spacingLeft=6;" parent="au4fLTNO0eDFEzKA2mFN-86" vertex="1">
          <mxGeometry x="30" width="410" height="30" as="geometry">
            <mxRectangle width="410" height="30" as="alternateBounds" />
          </mxGeometry>
        </mxCell>
        <mxCell id="au4fLTNO0eDFEzKA2mFN-89" style="shape=partialRectangle;collapsible=0;dropTarget=0;pointerEvents=0;fillColor=none;points=[[0,0.5],[1,0.5]];portConstraint=eastwest;top=0;left=0;right=0;bottom=0;" parent="au4fLTNO0eDFEzKA2mFN-76" vertex="1">
          <mxGeometry y="150" width="440" height="30" as="geometry" />
        </mxCell>
        <mxCell id="au4fLTNO0eDFEzKA2mFN-90" value="FK2" style="shape=partialRectangle;overflow=hidden;connectable=0;fillColor=none;top=0;left=0;bottom=0;right=0;" parent="au4fLTNO0eDFEzKA2mFN-89" vertex="1">
          <mxGeometry width="30" height="30" as="geometry">
            <mxRectangle width="30" height="30" as="alternateBounds" />
          </mxGeometry>
        </mxCell>
        <mxCell id="au4fLTNO0eDFEzKA2mFN-91" value="club_id (UUID, FOREIGN KEY zu Clubs, NOT NULL)" style="shape=partialRectangle;overflow=hidden;connectable=0;fillColor=none;top=0;left=0;bottom=0;right=0;align=left;spacingLeft=6;" parent="au4fLTNO0eDFEzKA2mFN-89" vertex="1">
          <mxGeometry x="30" width="410" height="30" as="geometry">
            <mxRectangle width="410" height="30" as="alternateBounds" />
          </mxGeometry>
        </mxCell>
        <mxCell id="au4fLTNO0eDFEzKA2mFN-92" style="shape=partialRectangle;collapsible=0;dropTarget=0;pointerEvents=0;fillColor=none;points=[[0,0.5],[1,0.5]];portConstraint=eastwest;top=0;left=0;right=0;bottom=0;" parent="au4fLTNO0eDFEzKA2mFN-76" vertex="1">
          <mxGeometry y="180" width="440" height="30" as="geometry" />
        </mxCell>
        <mxCell id="au4fLTNO0eDFEzKA2mFN-93" style="shape=partialRectangle;overflow=hidden;connectable=0;fillColor=none;top=0;left=0;bottom=0;right=0;" parent="au4fLTNO0eDFEzKA2mFN-92" vertex="1">
          <mxGeometry width="30" height="30" as="geometry">
            <mxRectangle width="30" height="30" as="alternateBounds" />
          </mxGeometry>
        </mxCell>
        <mxCell id="au4fLTNO0eDFEzKA2mFN-94" value="created_at (DATETIME, DEFAULT CURRENT_TIMESTAMP, NOT NULL)" style="shape=partialRectangle;overflow=hidden;connectable=0;fillColor=none;top=0;left=0;bottom=0;right=0;align=left;spacingLeft=6;" parent="au4fLTNO0eDFEzKA2mFN-92" vertex="1">
          <mxGeometry x="30" width="410" height="30" as="geometry">
            <mxRectangle width="410" height="30" as="alternateBounds" />
          </mxGeometry>
        </mxCell>
        <mxCell id="au4fLTNO0eDFEzKA2mFN-95" style="shape=partialRectangle;collapsible=0;dropTarget=0;pointerEvents=0;fillColor=none;points=[[0,0.5],[1,0.5]];portConstraint=eastwest;top=0;left=0;right=0;bottom=0;" parent="au4fLTNO0eDFEzKA2mFN-76" vertex="1">
          <mxGeometry y="210" width="440" height="30" as="geometry" />
        </mxCell>
        <mxCell id="au4fLTNO0eDFEzKA2mFN-96" style="shape=partialRectangle;overflow=hidden;connectable=0;fillColor=none;top=0;left=0;bottom=0;right=0;" parent="au4fLTNO0eDFEzKA2mFN-95" vertex="1">
          <mxGeometry width="30" height="30" as="geometry">
            <mxRectangle width="30" height="30" as="alternateBounds" />
          </mxGeometry>
        </mxCell>
        <mxCell id="au4fLTNO0eDFEzKA2mFN-97" value="updated_at (DATETIME, DEFAULT CURRENT_TIMESTAMP,&#xa; ON UPDATE CURRENT_TIMESTAMP, NOT NULL)" style="shape=partialRectangle;overflow=hidden;connectable=0;fillColor=none;top=0;left=0;bottom=0;right=0;align=left;spacingLeft=6;" parent="au4fLTNO0eDFEzKA2mFN-95" vertex="1">
          <mxGeometry x="30" width="410" height="30" as="geometry">
            <mxRectangle width="410" height="30" as="alternateBounds" />
          </mxGeometry>
        </mxCell>
        <mxCell id="au4fLTNO0eDFEzKA2mFN-99" value="" style="edgeStyle=orthogonalEdgeStyle;endArrow=ERzeroToMany;startArrow=ERone;endFill=1;startFill=0;entryX=1;entryY=0.5;entryDx=0;entryDy=0;exitX=0;exitY=0.5;exitDx=0;exitDy=0;" parent="1" source="au4fLTNO0eDFEzKA2mFN-61" target="au4fLTNO0eDFEzKA2mFN-89" edge="1">
          <mxGeometry width="100" height="100" relative="1" as="geometry">
            <mxPoint x="-760" y="-220" as="sourcePoint" />
            <mxPoint x="-820" y="-160" as="targetPoint" />
            <Array as="points">
              <mxPoint x="-910" y="30" />
              <mxPoint x="-910" y="25" />
            </Array>
          </mxGeometry>
        </mxCell>
        <mxCell id="au4fLTNO0eDFEzKA2mFN-100" value="" style="edgeStyle=orthogonalEdgeStyle;endArrow=ERzeroToMany;startArrow=ERone;endFill=1;startFill=0;entryX=1;entryY=0.5;entryDx=0;entryDy=0;exitX=0;exitY=0.5;exitDx=0;exitDy=0;" parent="1" source="C-vyLk0tnHw3VtMMgP7b-24" target="au4fLTNO0eDFEzKA2mFN-70" edge="1">
          <mxGeometry width="100" height="100" relative="1" as="geometry">
            <mxPoint x="-330" y="120" as="sourcePoint" />
            <mxPoint x="-390" y="180" as="targetPoint" />
            <Array as="points">
              <mxPoint x="-380" y="75" />
              <mxPoint x="-380" y="120" />
            </Array>
          </mxGeometry>
        </mxCell>
        <mxCell id="au4fLTNO0eDFEzKA2mFN-101" value="" style="edgeStyle=orthogonalEdgeStyle;endArrow=ERzeroToMany;startArrow=ERone;endFill=1;startFill=0;entryX=1;entryY=0.5;entryDx=0;entryDy=0;exitX=0;exitY=0.5;exitDx=0;exitDy=0;" parent="1" source="C-vyLk0tnHw3VtMMgP7b-24" target="au4fLTNO0eDFEzKA2mFN-45" edge="1">
          <mxGeometry width="100" height="100" relative="1" as="geometry">
            <mxPoint x="-240" y="247.5" as="sourcePoint" />
            <mxPoint x="-450" y="322.5" as="targetPoint" />
            <Array as="points">
              <mxPoint x="-380" y="75" />
              <mxPoint x="-380" y="415" />
            </Array>
          </mxGeometry>
        </mxCell>
        <mxCell id="au4fLTNO0eDFEzKA2mFN-102" value="ProgramTypes" style="shape=table;startSize=30;container=1;collapsible=1;childLayout=tableLayout;fixedRows=1;rowLines=0;fontStyle=1;align=center;resizeLast=1;fillColor=#008a00;fontColor=#ffffff;strokeColor=#005700;" parent="1" vertex="1">
          <mxGeometry x="-1930" y="-140" width="360" height="100" as="geometry" />
        </mxCell>
        <mxCell id="au4fLTNO0eDFEzKA2mFN-103" value="" style="shape=partialRectangle;collapsible=0;dropTarget=0;pointerEvents=0;fillColor=none;points=[[0,0.5],[1,0.5]];portConstraint=eastwest;top=0;left=0;right=0;bottom=1;" parent="au4fLTNO0eDFEzKA2mFN-102" vertex="1">
          <mxGeometry y="30" width="360" height="30" as="geometry" />
        </mxCell>
        <mxCell id="au4fLTNO0eDFEzKA2mFN-104" value="PK" style="shape=partialRectangle;overflow=hidden;connectable=0;fillColor=none;top=0;left=0;bottom=0;right=0;fontStyle=1;" parent="au4fLTNO0eDFEzKA2mFN-103" vertex="1">
          <mxGeometry width="30" height="30" as="geometry">
            <mxRectangle width="30" height="30" as="alternateBounds" />
          </mxGeometry>
        </mxCell>
        <mxCell id="au4fLTNO0eDFEzKA2mFN-105" value="id (INT, PRIMARY KEY, AUTO_INCREMENT, NOT NULL)" style="shape=partialRectangle;overflow=hidden;connectable=0;fillColor=none;top=0;left=0;bottom=0;right=0;align=left;spacingLeft=6;fontStyle=5;" parent="au4fLTNO0eDFEzKA2mFN-103" vertex="1">
          <mxGeometry x="30" width="330" height="30" as="geometry">
            <mxRectangle width="330" height="30" as="alternateBounds" />
          </mxGeometry>
        </mxCell>
        <mxCell id="au4fLTNO0eDFEzKA2mFN-106" value="" style="shape=partialRectangle;collapsible=0;dropTarget=0;pointerEvents=0;fillColor=none;points=[[0,0.5],[1,0.5]];portConstraint=eastwest;top=0;left=0;right=0;bottom=0;" parent="au4fLTNO0eDFEzKA2mFN-102" vertex="1">
          <mxGeometry y="60" width="360" height="30" as="geometry" />
        </mxCell>
        <mxCell id="au4fLTNO0eDFEzKA2mFN-107" value="" style="shape=partialRectangle;overflow=hidden;connectable=0;fillColor=none;top=0;left=0;bottom=0;right=0;" parent="au4fLTNO0eDFEzKA2mFN-106" vertex="1">
          <mxGeometry width="30" height="30" as="geometry">
            <mxRectangle width="30" height="30" as="alternateBounds" />
          </mxGeometry>
        </mxCell>
        <mxCell id="au4fLTNO0eDFEzKA2mFN-108" value="name (VARCHAR(50), UNIQUE, NOT NULL)" style="shape=partialRectangle;overflow=hidden;connectable=0;fillColor=none;top=0;left=0;bottom=0;right=0;align=left;spacingLeft=6;" parent="au4fLTNO0eDFEzKA2mFN-106" vertex="1">
          <mxGeometry x="30" width="330" height="30" as="geometry">
            <mxRectangle width="330" height="30" as="alternateBounds" />
          </mxGeometry>
        </mxCell>
        <mxCell id="au4fLTNO0eDFEzKA2mFN-123" value="Courses" style="shape=table;startSize=30;container=1;collapsible=1;childLayout=tableLayout;fixedRows=1;rowLines=0;fontStyle=1;align=center;resizeLast=1;fillColor=#008a00;fontColor=#ffffff;strokeColor=#005700;" parent="1" vertex="1">
          <mxGeometry x="-1940" y="20" width="440" height="250" as="geometry" />
        </mxCell>
        <mxCell id="au4fLTNO0eDFEzKA2mFN-124" value="" style="shape=partialRectangle;collapsible=0;dropTarget=0;pointerEvents=0;fillColor=none;points=[[0,0.5],[1,0.5]];portConstraint=eastwest;top=0;left=0;right=0;bottom=1;" parent="au4fLTNO0eDFEzKA2mFN-123" vertex="1">
          <mxGeometry y="30" width="440" height="30" as="geometry" />
        </mxCell>
        <mxCell id="au4fLTNO0eDFEzKA2mFN-125" value="PK" style="shape=partialRectangle;overflow=hidden;connectable=0;fillColor=none;top=0;left=0;bottom=0;right=0;fontStyle=1;" parent="au4fLTNO0eDFEzKA2mFN-124" vertex="1">
          <mxGeometry width="30" height="30" as="geometry">
            <mxRectangle width="30" height="30" as="alternateBounds" />
          </mxGeometry>
        </mxCell>
        <mxCell id="au4fLTNO0eDFEzKA2mFN-126" value="id (UUID, PRIMARY KEY, DEFAULT uuid_generate_v4(), NOT NULL)" style="shape=partialRectangle;overflow=hidden;connectable=0;fillColor=none;top=0;left=0;bottom=0;right=0;align=left;spacingLeft=6;fontStyle=5;" parent="au4fLTNO0eDFEzKA2mFN-124" vertex="1">
          <mxGeometry x="30" width="410" height="30" as="geometry">
            <mxRectangle width="410" height="30" as="alternateBounds" />
          </mxGeometry>
        </mxCell>
        <mxCell id="au4fLTNO0eDFEzKA2mFN-127" value="" style="shape=partialRectangle;collapsible=0;dropTarget=0;pointerEvents=0;fillColor=none;points=[[0,0.5],[1,0.5]];portConstraint=eastwest;top=0;left=0;right=0;bottom=0;" parent="au4fLTNO0eDFEzKA2mFN-123" vertex="1">
          <mxGeometry y="60" width="440" height="30" as="geometry" />
        </mxCell>
        <mxCell id="au4fLTNO0eDFEzKA2mFN-128" value="FK1" style="shape=partialRectangle;overflow=hidden;connectable=0;fillColor=none;top=0;left=0;bottom=0;right=0;" parent="au4fLTNO0eDFEzKA2mFN-127" vertex="1">
          <mxGeometry width="30" height="30" as="geometry">
            <mxRectangle width="30" height="30" as="alternateBounds" />
          </mxGeometry>
        </mxCell>
        <mxCell id="au4fLTNO0eDFEzKA2mFN-129" value="program_id (UUID, FOREIGN KEY to Programs, NOT NULL)" style="shape=partialRectangle;overflow=hidden;connectable=0;fillColor=none;top=0;left=0;bottom=0;right=0;align=left;spacingLeft=6;" parent="au4fLTNO0eDFEzKA2mFN-127" vertex="1">
          <mxGeometry x="30" width="410" height="30" as="geometry">
            <mxRectangle width="410" height="30" as="alternateBounds" />
          </mxGeometry>
        </mxCell>
        <mxCell id="au4fLTNO0eDFEzKA2mFN-130" style="shape=partialRectangle;collapsible=0;dropTarget=0;pointerEvents=0;fillColor=none;points=[[0,0.5],[1,0.5]];portConstraint=eastwest;top=0;left=0;right=0;bottom=0;" parent="au4fLTNO0eDFEzKA2mFN-123" vertex="1">
          <mxGeometry y="90" width="440" height="30" as="geometry" />
        </mxCell>
        <mxCell id="au4fLTNO0eDFEzKA2mFN-131" value="" style="shape=partialRectangle;overflow=hidden;connectable=0;fillColor=none;top=0;left=0;bottom=0;right=0;" parent="au4fLTNO0eDFEzKA2mFN-130" vertex="1">
          <mxGeometry width="30" height="30" as="geometry">
            <mxRectangle width="30" height="30" as="alternateBounds" />
          </mxGeometry>
        </mxCell>
        <mxCell id="au4fLTNO0eDFEzKA2mFN-132" value="price (DECIMAL(10,2), NULLABLE)" style="shape=partialRectangle;overflow=hidden;connectable=0;fillColor=none;top=0;left=0;bottom=0;right=0;align=left;spacingLeft=6;" parent="au4fLTNO0eDFEzKA2mFN-130" vertex="1">
          <mxGeometry x="30" width="410" height="30" as="geometry">
            <mxRectangle width="410" height="30" as="alternateBounds" />
          </mxGeometry>
        </mxCell>
        <mxCell id="au4fLTNO0eDFEzKA2mFN-133" style="shape=partialRectangle;collapsible=0;dropTarget=0;pointerEvents=0;fillColor=none;points=[[0,0.5],[1,0.5]];portConstraint=eastwest;top=0;left=0;right=0;bottom=0;" parent="au4fLTNO0eDFEzKA2mFN-123" vertex="1">
          <mxGeometry y="120" width="440" height="30" as="geometry" />
        </mxCell>
        <mxCell id="au4fLTNO0eDFEzKA2mFN-134" value="" style="shape=partialRectangle;overflow=hidden;connectable=0;fillColor=none;top=0;left=0;bottom=0;right=0;" parent="au4fLTNO0eDFEzKA2mFN-133" vertex="1">
          <mxGeometry width="30" height="30" as="geometry">
            <mxRectangle width="30" height="30" as="alternateBounds" />
          </mxGeometry>
        </mxCell>
        <mxCell id="au4fLTNO0eDFEzKA2mFN-135" value="currency (CHAR(3), NOT NULL) -- ISO 4217 Code (e.g. EUR, USD)." style="shape=partialRectangle;overflow=hidden;connectable=0;fillColor=none;top=0;left=0;bottom=0;right=0;align=left;spacingLeft=6;" parent="au4fLTNO0eDFEzKA2mFN-133" vertex="1">
          <mxGeometry x="30" width="410" height="30" as="geometry">
            <mxRectangle width="410" height="30" as="alternateBounds" />
          </mxGeometry>
        </mxCell>
        <mxCell id="au4fLTNO0eDFEzKA2mFN-136" style="shape=partialRectangle;collapsible=0;dropTarget=0;pointerEvents=0;fillColor=none;points=[[0,0.5],[1,0.5]];portConstraint=eastwest;top=0;left=0;right=0;bottom=0;" parent="au4fLTNO0eDFEzKA2mFN-123" vertex="1">
          <mxGeometry y="150" width="440" height="30" as="geometry" />
        </mxCell>
        <mxCell id="au4fLTNO0eDFEzKA2mFN-137" value="" style="shape=partialRectangle;overflow=hidden;connectable=0;fillColor=none;top=0;left=0;bottom=0;right=0;" parent="au4fLTNO0eDFEzKA2mFN-136" vertex="1">
          <mxGeometry width="30" height="30" as="geometry">
            <mxRectangle width="30" height="30" as="alternateBounds" />
          </mxGeometry>
        </mxCell>
        <mxCell id="au4fLTNO0eDFEzKA2mFN-138" value="subscription_required (BOOLEAN, DEFAULT FALSE, NOT NULL)" style="shape=partialRectangle;overflow=hidden;connectable=0;fillColor=none;top=0;left=0;bottom=0;right=0;align=left;spacingLeft=6;" parent="au4fLTNO0eDFEzKA2mFN-136" vertex="1">
          <mxGeometry x="30" width="410" height="30" as="geometry">
            <mxRectangle width="410" height="30" as="alternateBounds" />
          </mxGeometry>
        </mxCell>
        <mxCell id="au4fLTNO0eDFEzKA2mFN-139" style="shape=partialRectangle;collapsible=0;dropTarget=0;pointerEvents=0;fillColor=none;points=[[0,0.5],[1,0.5]];portConstraint=eastwest;top=0;left=0;right=0;bottom=0;" parent="au4fLTNO0eDFEzKA2mFN-123" vertex="1">
          <mxGeometry y="180" width="440" height="30" as="geometry" />
        </mxCell>
        <mxCell id="au4fLTNO0eDFEzKA2mFN-140" style="shape=partialRectangle;overflow=hidden;connectable=0;fillColor=none;top=0;left=0;bottom=0;right=0;" parent="au4fLTNO0eDFEzKA2mFN-139" vertex="1">
          <mxGeometry width="30" height="30" as="geometry">
            <mxRectangle width="30" height="30" as="alternateBounds" />
          </mxGeometry>
        </mxCell>
        <mxCell id="au4fLTNO0eDFEzKA2mFN-141" value="created_at (DATETIME, DEFAULT CURRENT_TIMESTAMP, NOT NULL)" style="shape=partialRectangle;overflow=hidden;connectable=0;fillColor=none;top=0;left=0;bottom=0;right=0;align=left;spacingLeft=6;" parent="au4fLTNO0eDFEzKA2mFN-139" vertex="1">
          <mxGeometry x="30" width="410" height="30" as="geometry">
            <mxRectangle width="410" height="30" as="alternateBounds" />
          </mxGeometry>
        </mxCell>
        <mxCell id="au4fLTNO0eDFEzKA2mFN-142" style="shape=partialRectangle;collapsible=0;dropTarget=0;pointerEvents=0;fillColor=none;points=[[0,0.5],[1,0.5]];portConstraint=eastwest;top=0;left=0;right=0;bottom=0;" parent="au4fLTNO0eDFEzKA2mFN-123" vertex="1">
          <mxGeometry y="210" width="440" height="30" as="geometry" />
        </mxCell>
        <mxCell id="au4fLTNO0eDFEzKA2mFN-143" style="shape=partialRectangle;overflow=hidden;connectable=0;fillColor=none;top=0;left=0;bottom=0;right=0;" parent="au4fLTNO0eDFEzKA2mFN-142" vertex="1">
          <mxGeometry width="30" height="30" as="geometry">
            <mxRectangle width="30" height="30" as="alternateBounds" />
          </mxGeometry>
        </mxCell>
        <mxCell id="au4fLTNO0eDFEzKA2mFN-144" value="updated_at (DATETIME, DEFAULT CURRENT_TIMESTAMP,&#xa; ON UPDATE CURRENT_TIMESTAMP, NOT NULL)" style="shape=partialRectangle;overflow=hidden;connectable=0;fillColor=none;top=0;left=0;bottom=0;right=0;align=left;spacingLeft=6;" parent="au4fLTNO0eDFEzKA2mFN-142" vertex="1">
          <mxGeometry x="30" width="410" height="30" as="geometry">
            <mxRectangle width="410" height="30" as="alternateBounds" />
          </mxGeometry>
        </mxCell>
        <mxCell id="au4fLTNO0eDFEzKA2mFN-146" value="" style="edgeStyle=orthogonalEdgeStyle;endArrow=ERone;startArrow=ERone;endFill=0;startFill=0;entryX=0;entryY=0.5;entryDx=0;entryDy=0;exitX=1;exitY=0.5;exitDx=0;exitDy=0;" parent="1" source="au4fLTNO0eDFEzKA2mFN-127" target="au4fLTNO0eDFEzKA2mFN-77" edge="1">
          <mxGeometry width="100" height="100" relative="1" as="geometry">
            <mxPoint x="-1510" y="130" as="sourcePoint" />
            <mxPoint x="-1430" y="290" as="targetPoint" />
            <Array as="points">
              <mxPoint x="-1480" y="95" />
              <mxPoint x="-1480" y="-95" />
            </Array>
          </mxGeometry>
        </mxCell>
        <mxCell id="au4fLTNO0eDFEzKA2mFN-147" value="Sessions" style="shape=table;startSize=30;container=1;collapsible=1;childLayout=tableLayout;fixedRows=1;rowLines=0;fontStyle=1;align=center;resizeLast=1;fillColor=#008a00;fontColor=#ffffff;strokeColor=#005700;" parent="1" vertex="1">
          <mxGeometry x="-2650" y="30" width="670" height="280" as="geometry" />
        </mxCell>
        <mxCell id="au4fLTNO0eDFEzKA2mFN-148" value="" style="shape=partialRectangle;collapsible=0;dropTarget=0;pointerEvents=0;fillColor=none;points=[[0,0.5],[1,0.5]];portConstraint=eastwest;top=0;left=0;right=0;bottom=1;" parent="au4fLTNO0eDFEzKA2mFN-147" vertex="1">
          <mxGeometry y="30" width="670" height="30" as="geometry" />
        </mxCell>
        <mxCell id="au4fLTNO0eDFEzKA2mFN-149" value="PK" style="shape=partialRectangle;overflow=hidden;connectable=0;fillColor=none;top=0;left=0;bottom=0;right=0;fontStyle=1;" parent="au4fLTNO0eDFEzKA2mFN-148" vertex="1">
          <mxGeometry width="30" height="30" as="geometry">
            <mxRectangle width="30" height="30" as="alternateBounds" />
          </mxGeometry>
        </mxCell>
        <mxCell id="au4fLTNO0eDFEzKA2mFN-150" value="id (UUID, PRIMARY KEY, DEFAULT uuid_generate_v4(), NOT NULL)" style="shape=partialRectangle;overflow=hidden;connectable=0;fillColor=none;top=0;left=0;bottom=0;right=0;align=left;spacingLeft=6;fontStyle=5;" parent="au4fLTNO0eDFEzKA2mFN-148" vertex="1">
          <mxGeometry x="30" width="640" height="30" as="geometry">
            <mxRectangle width="640" height="30" as="alternateBounds" />
          </mxGeometry>
        </mxCell>
        <mxCell id="au4fLTNO0eDFEzKA2mFN-151" value="" style="shape=partialRectangle;collapsible=0;dropTarget=0;pointerEvents=0;fillColor=none;points=[[0,0.5],[1,0.5]];portConstraint=eastwest;top=0;left=0;right=0;bottom=0;" parent="au4fLTNO0eDFEzKA2mFN-147" vertex="1">
          <mxGeometry y="60" width="670" height="30" as="geometry" />
        </mxCell>
        <mxCell id="au4fLTNO0eDFEzKA2mFN-152" value="FK1" style="shape=partialRectangle;overflow=hidden;connectable=0;fillColor=none;top=0;left=0;bottom=0;right=0;" parent="au4fLTNO0eDFEzKA2mFN-151" vertex="1">
          <mxGeometry width="30" height="30" as="geometry">
            <mxRectangle width="30" height="30" as="alternateBounds" />
          </mxGeometry>
        </mxCell>
        <mxCell id="au4fLTNO0eDFEzKA2mFN-153" value="course_id (UUID, FOREIGN KEY to Courses, NOT NULL)" style="shape=partialRectangle;overflow=hidden;connectable=0;fillColor=none;top=0;left=0;bottom=0;right=0;align=left;spacingLeft=6;" parent="au4fLTNO0eDFEzKA2mFN-151" vertex="1">
          <mxGeometry x="30" width="640" height="30" as="geometry">
            <mxRectangle width="640" height="30" as="alternateBounds" />
          </mxGeometry>
        </mxCell>
        <mxCell id="au4fLTNO0eDFEzKA2mFN-154" style="shape=partialRectangle;collapsible=0;dropTarget=0;pointerEvents=0;fillColor=none;points=[[0,0.5],[1,0.5]];portConstraint=eastwest;top=0;left=0;right=0;bottom=0;" parent="au4fLTNO0eDFEzKA2mFN-147" vertex="1">
          <mxGeometry y="90" width="670" height="30" as="geometry" />
        </mxCell>
        <mxCell id="au4fLTNO0eDFEzKA2mFN-155" value="" style="shape=partialRectangle;overflow=hidden;connectable=0;fillColor=none;top=0;left=0;bottom=0;right=0;" parent="au4fLTNO0eDFEzKA2mFN-154" vertex="1">
          <mxGeometry width="30" height="30" as="geometry">
            <mxRectangle width="30" height="30" as="alternateBounds" />
          </mxGeometry>
        </mxCell>
        <mxCell id="au4fLTNO0eDFEzKA2mFN-156" value="day_of_week (ENUM(&#39;Monday&#39;, &#39;Tuesday&#39;, &#39;Wednesday&#39;, &#39;Thursday&#39;, &#39;Friday&#39;, &#39;Saturday&#39;, &#39;Sunday&#39;), NULLABLE)" style="shape=partialRectangle;overflow=hidden;connectable=0;fillColor=none;top=0;left=0;bottom=0;right=0;align=left;spacingLeft=6;" parent="au4fLTNO0eDFEzKA2mFN-154" vertex="1">
          <mxGeometry x="30" width="640" height="30" as="geometry">
            <mxRectangle width="640" height="30" as="alternateBounds" />
          </mxGeometry>
        </mxCell>
        <mxCell id="au4fLTNO0eDFEzKA2mFN-157" style="shape=partialRectangle;collapsible=0;dropTarget=0;pointerEvents=0;fillColor=none;points=[[0,0.5],[1,0.5]];portConstraint=eastwest;top=0;left=0;right=0;bottom=0;" parent="au4fLTNO0eDFEzKA2mFN-147" vertex="1">
          <mxGeometry y="120" width="670" height="30" as="geometry" />
        </mxCell>
        <mxCell id="au4fLTNO0eDFEzKA2mFN-158" value="" style="shape=partialRectangle;overflow=hidden;connectable=0;fillColor=none;top=0;left=0;bottom=0;right=0;" parent="au4fLTNO0eDFEzKA2mFN-157" vertex="1">
          <mxGeometry width="30" height="30" as="geometry">
            <mxRectangle width="30" height="30" as="alternateBounds" />
          </mxGeometry>
        </mxCell>
        <mxCell id="au4fLTNO0eDFEzKA2mFN-159" value="start_time (TIME, NOT NULL)" style="shape=partialRectangle;overflow=hidden;connectable=0;fillColor=none;top=0;left=0;bottom=0;right=0;align=left;spacingLeft=6;" parent="au4fLTNO0eDFEzKA2mFN-157" vertex="1">
          <mxGeometry x="30" width="640" height="30" as="geometry">
            <mxRectangle width="640" height="30" as="alternateBounds" />
          </mxGeometry>
        </mxCell>
        <mxCell id="au4fLTNO0eDFEzKA2mFN-160" style="shape=partialRectangle;collapsible=0;dropTarget=0;pointerEvents=0;fillColor=none;points=[[0,0.5],[1,0.5]];portConstraint=eastwest;top=0;left=0;right=0;bottom=0;" parent="au4fLTNO0eDFEzKA2mFN-147" vertex="1">
          <mxGeometry y="150" width="670" height="30" as="geometry" />
        </mxCell>
        <mxCell id="au4fLTNO0eDFEzKA2mFN-161" value="" style="shape=partialRectangle;overflow=hidden;connectable=0;fillColor=none;top=0;left=0;bottom=0;right=0;" parent="au4fLTNO0eDFEzKA2mFN-160" vertex="1">
          <mxGeometry width="30" height="30" as="geometry">
            <mxRectangle width="30" height="30" as="alternateBounds" />
          </mxGeometry>
        </mxCell>
        <mxCell id="au4fLTNO0eDFEzKA2mFN-162" value="end_time (TIME, NOT NULL)" style="shape=partialRectangle;overflow=hidden;connectable=0;fillColor=none;top=0;left=0;bottom=0;right=0;align=left;spacingLeft=6;" parent="au4fLTNO0eDFEzKA2mFN-160" vertex="1">
          <mxGeometry x="30" width="640" height="30" as="geometry">
            <mxRectangle width="640" height="30" as="alternateBounds" />
          </mxGeometry>
        </mxCell>
        <mxCell id="au4fLTNO0eDFEzKA2mFN-163" style="shape=partialRectangle;collapsible=0;dropTarget=0;pointerEvents=0;fillColor=none;points=[[0,0.5],[1,0.5]];portConstraint=eastwest;top=0;left=0;right=0;bottom=0;" parent="au4fLTNO0eDFEzKA2mFN-147" vertex="1">
          <mxGeometry y="180" width="670" height="30" as="geometry" />
        </mxCell>
        <mxCell id="au4fLTNO0eDFEzKA2mFN-164" style="shape=partialRectangle;overflow=hidden;connectable=0;fillColor=none;top=0;left=0;bottom=0;right=0;" parent="au4fLTNO0eDFEzKA2mFN-163" vertex="1">
          <mxGeometry width="30" height="30" as="geometry">
            <mxRectangle width="30" height="30" as="alternateBounds" />
          </mxGeometry>
        </mxCell>
        <mxCell id="au4fLTNO0eDFEzKA2mFN-165" value="start_date (DATE, NULLABLE)" style="shape=partialRectangle;overflow=hidden;connectable=0;fillColor=none;top=0;left=0;bottom=0;right=0;align=left;spacingLeft=6;" parent="au4fLTNO0eDFEzKA2mFN-163" vertex="1">
          <mxGeometry x="30" width="640" height="30" as="geometry">
            <mxRectangle width="640" height="30" as="alternateBounds" />
          </mxGeometry>
        </mxCell>
        <mxCell id="au4fLTNO0eDFEzKA2mFN-166" style="shape=partialRectangle;collapsible=0;dropTarget=0;pointerEvents=0;fillColor=none;points=[[0,0.5],[1,0.5]];portConstraint=eastwest;top=0;left=0;right=0;bottom=0;" parent="au4fLTNO0eDFEzKA2mFN-147" vertex="1">
          <mxGeometry y="210" width="670" height="30" as="geometry" />
        </mxCell>
        <mxCell id="au4fLTNO0eDFEzKA2mFN-167" style="shape=partialRectangle;overflow=hidden;connectable=0;fillColor=none;top=0;left=0;bottom=0;right=0;" parent="au4fLTNO0eDFEzKA2mFN-166" vertex="1">
          <mxGeometry width="30" height="30" as="geometry">
            <mxRectangle width="30" height="30" as="alternateBounds" />
          </mxGeometry>
        </mxCell>
        <mxCell id="au4fLTNO0eDFEzKA2mFN-168" value="end_date (DATE, NULLABLE)" style="shape=partialRectangle;overflow=hidden;connectable=0;fillColor=none;top=0;left=0;bottom=0;right=0;align=left;spacingLeft=6;" parent="au4fLTNO0eDFEzKA2mFN-166" vertex="1">
          <mxGeometry x="30" width="640" height="30" as="geometry">
            <mxRectangle width="640" height="30" as="alternateBounds" />
          </mxGeometry>
        </mxCell>
        <mxCell id="au4fLTNO0eDFEzKA2mFN-169" style="shape=partialRectangle;collapsible=0;dropTarget=0;pointerEvents=0;fillColor=none;points=[[0,0.5],[1,0.5]];portConstraint=eastwest;top=0;left=0;right=0;bottom=0;" parent="au4fLTNO0eDFEzKA2mFN-147" vertex="1">
          <mxGeometry y="240" width="670" height="30" as="geometry" />
        </mxCell>
        <mxCell id="au4fLTNO0eDFEzKA2mFN-170" value="FK2" style="shape=partialRectangle;overflow=hidden;connectable=0;fillColor=none;top=0;left=0;bottom=0;right=0;" parent="au4fLTNO0eDFEzKA2mFN-169" vertex="1">
          <mxGeometry width="30" height="30" as="geometry">
            <mxRectangle width="30" height="30" as="alternateBounds" />
          </mxGeometry>
        </mxCell>
        <mxCell id="au4fLTNO0eDFEzKA2mFN-171" value="address_id (UUID, FOREIGN KEY to Addresses, NULLABLE)" style="shape=partialRectangle;overflow=hidden;connectable=0;fillColor=none;top=0;left=0;bottom=0;right=0;align=left;spacingLeft=6;" parent="au4fLTNO0eDFEzKA2mFN-169" vertex="1">
          <mxGeometry x="30" width="640" height="30" as="geometry">
            <mxRectangle width="640" height="30" as="alternateBounds" />
          </mxGeometry>
        </mxCell>
        <mxCell id="au4fLTNO0eDFEzKA2mFN-175" value="" style="edgeStyle=orthogonalEdgeStyle;endArrow=ERzeroToMany;startArrow=ERone;endFill=1;startFill=0;entryX=1;entryY=0.5;entryDx=0;entryDy=0;exitX=0;exitY=0.5;exitDx=0;exitDy=0;" parent="1" source="au4fLTNO0eDFEzKA2mFN-124" target="au4fLTNO0eDFEzKA2mFN-151" edge="1">
          <mxGeometry width="100" height="100" relative="1" as="geometry">
            <mxPoint x="-1490" y="-155" as="sourcePoint" />
            <mxPoint x="-1410" y="5" as="targetPoint" />
            <Array as="points">
              <mxPoint x="-1960" y="65" />
              <mxPoint x="-1960" y="105" />
            </Array>
          </mxGeometry>
        </mxCell>
        <mxCell id="au4fLTNO0eDFEzKA2mFN-176" value="" style="edgeStyle=orthogonalEdgeStyle;endArrow=ERzeroToMany;startArrow=ERone;endFill=1;startFill=0;entryX=1;entryY=0.5;entryDx=0;entryDy=0;exitX=0;exitY=0.5;exitDx=0;exitDy=0;" parent="1" source="C-vyLk0tnHw3VtMMgP7b-24" target="au4fLTNO0eDFEzKA2mFN-169" edge="1">
          <mxGeometry width="100" height="100" relative="1" as="geometry">
            <mxPoint x="-270" y="85" as="sourcePoint" />
            <mxPoint x="-480" y="425" as="targetPoint" />
            <Array as="points">
              <mxPoint x="-380" y="75" />
              <mxPoint x="-380" y="600" />
              <mxPoint x="-1960" y="600" />
              <mxPoint x="-1960" y="285" />
            </Array>
          </mxGeometry>
        </mxCell>
        <mxCell id="au4fLTNO0eDFEzKA2mFN-177" value="Memberships" style="shape=table;startSize=30;container=1;collapsible=1;childLayout=tableLayout;fixedRows=1;rowLines=0;fontStyle=1;align=center;resizeLast=1;fillColor=#008a00;fontColor=#ffffff;strokeColor=#005700;" parent="1" vertex="1">
          <mxGeometry x="-1930" y="-440" width="440" height="280" as="geometry" />
        </mxCell>
        <mxCell id="au4fLTNO0eDFEzKA2mFN-178" value="" style="shape=partialRectangle;collapsible=0;dropTarget=0;pointerEvents=0;fillColor=none;points=[[0,0.5],[1,0.5]];portConstraint=eastwest;top=0;left=0;right=0;bottom=1;" parent="au4fLTNO0eDFEzKA2mFN-177" vertex="1">
          <mxGeometry y="30" width="440" height="30" as="geometry" />
        </mxCell>
        <mxCell id="au4fLTNO0eDFEzKA2mFN-179" value="PK" style="shape=partialRectangle;overflow=hidden;connectable=0;fillColor=none;top=0;left=0;bottom=0;right=0;fontStyle=1;" parent="au4fLTNO0eDFEzKA2mFN-178" vertex="1">
          <mxGeometry width="30" height="30" as="geometry">
            <mxRectangle width="30" height="30" as="alternateBounds" />
          </mxGeometry>
        </mxCell>
        <mxCell id="au4fLTNO0eDFEzKA2mFN-180" value="id (UUID, PRIMARY KEY, DEFAULT uuid_generate_v4(), NOT NULL)" style="shape=partialRectangle;overflow=hidden;connectable=0;fillColor=none;top=0;left=0;bottom=0;right=0;align=left;spacingLeft=6;fontStyle=5;" parent="au4fLTNO0eDFEzKA2mFN-178" vertex="1">
          <mxGeometry x="30" width="410" height="30" as="geometry">
            <mxRectangle width="410" height="30" as="alternateBounds" />
          </mxGeometry>
        </mxCell>
        <mxCell id="au4fLTNO0eDFEzKA2mFN-181" value="" style="shape=partialRectangle;collapsible=0;dropTarget=0;pointerEvents=0;fillColor=none;points=[[0,0.5],[1,0.5]];portConstraint=eastwest;top=0;left=0;right=0;bottom=0;" parent="au4fLTNO0eDFEzKA2mFN-177" vertex="1">
          <mxGeometry y="60" width="440" height="30" as="geometry" />
        </mxCell>
        <mxCell id="au4fLTNO0eDFEzKA2mFN-182" value="FK1" style="shape=partialRectangle;overflow=hidden;connectable=0;fillColor=none;top=0;left=0;bottom=0;right=0;" parent="au4fLTNO0eDFEzKA2mFN-181" vertex="1">
          <mxGeometry width="30" height="30" as="geometry">
            <mxRectangle width="30" height="30" as="alternateBounds" />
          </mxGeometry>
        </mxCell>
        <mxCell id="au4fLTNO0eDFEzKA2mFN-183" value="club_id (UUID, FOREIGN KEY to Clubs, NOT NULL)" style="shape=partialRectangle;overflow=hidden;connectable=0;fillColor=none;top=0;left=0;bottom=0;right=0;align=left;spacingLeft=6;" parent="au4fLTNO0eDFEzKA2mFN-181" vertex="1">
          <mxGeometry x="30" width="410" height="30" as="geometry">
            <mxRectangle width="410" height="30" as="alternateBounds" />
          </mxGeometry>
        </mxCell>
        <mxCell id="au4fLTNO0eDFEzKA2mFN-184" style="shape=partialRectangle;collapsible=0;dropTarget=0;pointerEvents=0;fillColor=none;points=[[0,0.5],[1,0.5]];portConstraint=eastwest;top=0;left=0;right=0;bottom=0;" parent="au4fLTNO0eDFEzKA2mFN-177" vertex="1">
          <mxGeometry y="90" width="440" height="30" as="geometry" />
        </mxCell>
        <mxCell id="au4fLTNO0eDFEzKA2mFN-185" value="" style="shape=partialRectangle;overflow=hidden;connectable=0;fillColor=none;top=0;left=0;bottom=0;right=0;" parent="au4fLTNO0eDFEzKA2mFN-184" vertex="1">
          <mxGeometry width="30" height="30" as="geometry">
            <mxRectangle width="30" height="30" as="alternateBounds" />
          </mxGeometry>
        </mxCell>
        <mxCell id="au4fLTNO0eDFEzKA2mFN-186" value="name (VARCHAR(100), NOT NULL)" style="shape=partialRectangle;overflow=hidden;connectable=0;fillColor=none;top=0;left=0;bottom=0;right=0;align=left;spacingLeft=6;" parent="au4fLTNO0eDFEzKA2mFN-184" vertex="1">
          <mxGeometry x="30" width="410" height="30" as="geometry">
            <mxRectangle width="410" height="30" as="alternateBounds" />
          </mxGeometry>
        </mxCell>
        <mxCell id="au4fLTNO0eDFEzKA2mFN-187" style="shape=partialRectangle;collapsible=0;dropTarget=0;pointerEvents=0;fillColor=none;points=[[0,0.5],[1,0.5]];portConstraint=eastwest;top=0;left=0;right=0;bottom=0;" parent="au4fLTNO0eDFEzKA2mFN-177" vertex="1">
          <mxGeometry y="120" width="440" height="30" as="geometry" />
        </mxCell>
        <mxCell id="au4fLTNO0eDFEzKA2mFN-188" value="" style="shape=partialRectangle;overflow=hidden;connectable=0;fillColor=none;top=0;left=0;bottom=0;right=0;" parent="au4fLTNO0eDFEzKA2mFN-187" vertex="1">
          <mxGeometry width="30" height="30" as="geometry">
            <mxRectangle width="30" height="30" as="alternateBounds" />
          </mxGeometry>
        </mxCell>
        <mxCell id="au4fLTNO0eDFEzKA2mFN-189" value="description (TEXT, NULLABLE)" style="shape=partialRectangle;overflow=hidden;connectable=0;fillColor=none;top=0;left=0;bottom=0;right=0;align=left;spacingLeft=6;" parent="au4fLTNO0eDFEzKA2mFN-187" vertex="1">
          <mxGeometry x="30" width="410" height="30" as="geometry">
            <mxRectangle width="410" height="30" as="alternateBounds" />
          </mxGeometry>
        </mxCell>
        <mxCell id="au4fLTNO0eDFEzKA2mFN-190" style="shape=partialRectangle;collapsible=0;dropTarget=0;pointerEvents=0;fillColor=none;points=[[0,0.5],[1,0.5]];portConstraint=eastwest;top=0;left=0;right=0;bottom=0;" parent="au4fLTNO0eDFEzKA2mFN-177" vertex="1">
          <mxGeometry y="150" width="440" height="30" as="geometry" />
        </mxCell>
        <mxCell id="au4fLTNO0eDFEzKA2mFN-191" value="" style="shape=partialRectangle;overflow=hidden;connectable=0;fillColor=none;top=0;left=0;bottom=0;right=0;" parent="au4fLTNO0eDFEzKA2mFN-190" vertex="1">
          <mxGeometry width="30" height="30" as="geometry">
            <mxRectangle width="30" height="30" as="alternateBounds" />
          </mxGeometry>
        </mxCell>
        <mxCell id="au4fLTNO0eDFEzKA2mFN-192" value="price (DECIMAL(10,2), NOT NULL)" style="shape=partialRectangle;overflow=hidden;connectable=0;fillColor=none;top=0;left=0;bottom=0;right=0;align=left;spacingLeft=6;" parent="au4fLTNO0eDFEzKA2mFN-190" vertex="1">
          <mxGeometry x="30" width="410" height="30" as="geometry">
            <mxRectangle width="410" height="30" as="alternateBounds" />
          </mxGeometry>
        </mxCell>
        <mxCell id="au4fLTNO0eDFEzKA2mFN-193" style="shape=partialRectangle;collapsible=0;dropTarget=0;pointerEvents=0;fillColor=none;points=[[0,0.5],[1,0.5]];portConstraint=eastwest;top=0;left=0;right=0;bottom=0;" parent="au4fLTNO0eDFEzKA2mFN-177" vertex="1">
          <mxGeometry y="180" width="440" height="30" as="geometry" />
        </mxCell>
        <mxCell id="au4fLTNO0eDFEzKA2mFN-194" style="shape=partialRectangle;overflow=hidden;connectable=0;fillColor=none;top=0;left=0;bottom=0;right=0;" parent="au4fLTNO0eDFEzKA2mFN-193" vertex="1">
          <mxGeometry width="30" height="30" as="geometry">
            <mxRectangle width="30" height="30" as="alternateBounds" />
          </mxGeometry>
        </mxCell>
        <mxCell id="au4fLTNO0eDFEzKA2mFN-195" value="currency (CHAR(3), NOT NULL) -- ISO 4217 Code." style="shape=partialRectangle;overflow=hidden;connectable=0;fillColor=none;top=0;left=0;bottom=0;right=0;align=left;spacingLeft=6;" parent="au4fLTNO0eDFEzKA2mFN-193" vertex="1">
          <mxGeometry x="30" width="410" height="30" as="geometry">
            <mxRectangle width="410" height="30" as="alternateBounds" />
          </mxGeometry>
        </mxCell>
        <mxCell id="au4fLTNO0eDFEzKA2mFN-196" style="shape=partialRectangle;collapsible=0;dropTarget=0;pointerEvents=0;fillColor=none;points=[[0,0.5],[1,0.5]];portConstraint=eastwest;top=0;left=0;right=0;bottom=0;" parent="au4fLTNO0eDFEzKA2mFN-177" vertex="1">
          <mxGeometry y="210" width="440" height="30" as="geometry" />
        </mxCell>
        <mxCell id="au4fLTNO0eDFEzKA2mFN-197" style="shape=partialRectangle;overflow=hidden;connectable=0;fillColor=none;top=0;left=0;bottom=0;right=0;" parent="au4fLTNO0eDFEzKA2mFN-196" vertex="1">
          <mxGeometry width="30" height="30" as="geometry">
            <mxRectangle width="30" height="30" as="alternateBounds" />
          </mxGeometry>
        </mxCell>
        <mxCell id="au4fLTNO0eDFEzKA2mFN-198" value="duration (INT, NOT NULL) -- In Months" style="shape=partialRectangle;overflow=hidden;connectable=0;fillColor=none;top=0;left=0;bottom=0;right=0;align=left;spacingLeft=6;" parent="au4fLTNO0eDFEzKA2mFN-196" vertex="1">
          <mxGeometry x="30" width="410" height="30" as="geometry">
            <mxRectangle width="410" height="30" as="alternateBounds" />
          </mxGeometry>
        </mxCell>
        <mxCell id="au4fLTNO0eDFEzKA2mFN-199" style="shape=partialRectangle;collapsible=0;dropTarget=0;pointerEvents=0;fillColor=none;points=[[0,0.5],[1,0.5]];portConstraint=eastwest;top=0;left=0;right=0;bottom=0;" parent="au4fLTNO0eDFEzKA2mFN-177" vertex="1">
          <mxGeometry y="240" width="440" height="30" as="geometry" />
        </mxCell>
        <mxCell id="au4fLTNO0eDFEzKA2mFN-200" style="shape=partialRectangle;overflow=hidden;connectable=0;fillColor=none;top=0;left=0;bottom=0;right=0;" parent="au4fLTNO0eDFEzKA2mFN-199" vertex="1">
          <mxGeometry width="30" height="30" as="geometry">
            <mxRectangle width="30" height="30" as="alternateBounds" />
          </mxGeometry>
        </mxCell>
        <mxCell id="au4fLTNO0eDFEzKA2mFN-201" value="created_at (DATETIME, DEFAULT CURRENT_TIMESTAMP, NOT NULL)" style="shape=partialRectangle;overflow=hidden;connectable=0;fillColor=none;top=0;left=0;bottom=0;right=0;align=left;spacingLeft=6;" parent="au4fLTNO0eDFEzKA2mFN-199" vertex="1">
          <mxGeometry x="30" width="410" height="30" as="geometry">
            <mxRectangle width="410" height="30" as="alternateBounds" />
          </mxGeometry>
        </mxCell>
        <mxCell id="au4fLTNO0eDFEzKA2mFN-227" value="MembershipAccess" style="shape=table;startSize=30;container=1;collapsible=1;childLayout=tableLayout;fixedRows=1;rowLines=0;fontStyle=1;align=center;resizeLast=1;fillColor=#008a00;fontColor=#ffffff;strokeColor=#005700;" parent="1" vertex="1">
          <mxGeometry x="-1420" y="-410" width="430" height="160" as="geometry" />
        </mxCell>
        <mxCell id="au4fLTNO0eDFEzKA2mFN-231" value="" style="shape=partialRectangle;collapsible=0;dropTarget=0;pointerEvents=0;fillColor=none;points=[[0,0.5],[1,0.5]];portConstraint=eastwest;top=0;left=0;right=0;bottom=0;" parent="au4fLTNO0eDFEzKA2mFN-227" vertex="1">
          <mxGeometry y="30" width="430" height="30" as="geometry" />
        </mxCell>
        <mxCell id="au4fLTNO0eDFEzKA2mFN-232" value="FK1" style="shape=partialRectangle;overflow=hidden;connectable=0;fillColor=none;top=0;left=0;bottom=0;right=0;" parent="au4fLTNO0eDFEzKA2mFN-231" vertex="1">
          <mxGeometry width="30" height="30" as="geometry">
            <mxRectangle width="30" height="30" as="alternateBounds" />
          </mxGeometry>
        </mxCell>
        <mxCell id="au4fLTNO0eDFEzKA2mFN-233" value="membership_id (UUID, FOREIGN KEY zu Memberships, NOT NULL)" style="shape=partialRectangle;overflow=hidden;connectable=0;fillColor=none;top=0;left=0;bottom=0;right=0;align=left;spacingLeft=6;" parent="au4fLTNO0eDFEzKA2mFN-231" vertex="1">
          <mxGeometry x="30" width="400" height="30" as="geometry">
            <mxRectangle width="400" height="30" as="alternateBounds" />
          </mxGeometry>
        </mxCell>
        <mxCell id="au4fLTNO0eDFEzKA2mFN-234" style="shape=partialRectangle;collapsible=0;dropTarget=0;pointerEvents=0;fillColor=none;points=[[0,0.5],[1,0.5]];portConstraint=eastwest;top=0;left=0;right=0;bottom=0;" parent="au4fLTNO0eDFEzKA2mFN-227" vertex="1">
          <mxGeometry y="60" width="430" height="30" as="geometry" />
        </mxCell>
        <mxCell id="au4fLTNO0eDFEzKA2mFN-235" value="FK2" style="shape=partialRectangle;overflow=hidden;connectable=0;fillColor=none;top=0;left=0;bottom=0;right=0;" parent="au4fLTNO0eDFEzKA2mFN-234" vertex="1">
          <mxGeometry width="30" height="30" as="geometry">
            <mxRectangle width="30" height="30" as="alternateBounds" />
          </mxGeometry>
        </mxCell>
        <mxCell id="au4fLTNO0eDFEzKA2mFN-236" value="program_id (UUID, FOREIGN KEY zu Programs, NOT NULL)" style="shape=partialRectangle;overflow=hidden;connectable=0;fillColor=none;top=0;left=0;bottom=0;right=0;align=left;spacingLeft=6;" parent="au4fLTNO0eDFEzKA2mFN-234" vertex="1">
          <mxGeometry x="30" width="400" height="30" as="geometry">
            <mxRectangle width="400" height="30" as="alternateBounds" />
          </mxGeometry>
        </mxCell>
        <mxCell id="au4fLTNO0eDFEzKA2mFN-237" style="shape=partialRectangle;collapsible=0;dropTarget=0;pointerEvents=0;fillColor=none;points=[[0,0.5],[1,0.5]];portConstraint=eastwest;top=0;left=0;right=0;bottom=0;" parent="au4fLTNO0eDFEzKA2mFN-227" vertex="1">
          <mxGeometry y="90" width="430" height="30" as="geometry" />
        </mxCell>
        <mxCell id="au4fLTNO0eDFEzKA2mFN-238" style="shape=partialRectangle;overflow=hidden;connectable=0;fillColor=none;top=0;left=0;bottom=0;right=0;" parent="au4fLTNO0eDFEzKA2mFN-237" vertex="1">
          <mxGeometry width="30" height="30" as="geometry">
            <mxRectangle width="30" height="30" as="alternateBounds" />
          </mxGeometry>
        </mxCell>
        <mxCell id="au4fLTNO0eDFEzKA2mFN-239" value="additional_fee (DECIMAL(10,2), NULLABLE)" style="shape=partialRectangle;overflow=hidden;connectable=0;fillColor=none;top=0;left=0;bottom=0;right=0;align=left;spacingLeft=6;" parent="au4fLTNO0eDFEzKA2mFN-237" vertex="1">
          <mxGeometry x="30" width="400" height="30" as="geometry">
            <mxRectangle width="400" height="30" as="alternateBounds" />
          </mxGeometry>
        </mxCell>
        <mxCell id="au4fLTNO0eDFEzKA2mFN-458" style="shape=partialRectangle;collapsible=0;dropTarget=0;pointerEvents=0;fillColor=none;points=[[0,0.5],[1,0.5]];portConstraint=eastwest;top=0;left=0;right=0;bottom=0;" parent="au4fLTNO0eDFEzKA2mFN-227" vertex="1">
          <mxGeometry y="120" width="430" height="30" as="geometry" />
        </mxCell>
        <mxCell id="au4fLTNO0eDFEzKA2mFN-459" style="shape=partialRectangle;overflow=hidden;connectable=0;fillColor=none;top=0;left=0;bottom=0;right=0;" parent="au4fLTNO0eDFEzKA2mFN-458" vertex="1">
          <mxGeometry width="30" height="30" as="geometry">
            <mxRectangle width="30" height="30" as="alternateBounds" />
          </mxGeometry>
        </mxCell>
        <mxCell id="au4fLTNO0eDFEzKA2mFN-460" value="PRIMARY KEY (membership_id, program_id)" style="shape=partialRectangle;overflow=hidden;connectable=0;fillColor=none;top=0;left=0;bottom=0;right=0;align=left;spacingLeft=6;fontStyle=2" parent="au4fLTNO0eDFEzKA2mFN-458" vertex="1">
          <mxGeometry x="30" width="400" height="30" as="geometry">
            <mxRectangle width="400" height="30" as="alternateBounds" />
          </mxGeometry>
        </mxCell>
        <mxCell id="au4fLTNO0eDFEzKA2mFN-240" value="" style="edgeStyle=orthogonalEdgeStyle;endArrow=ERzeroToMany;startArrow=ERone;endFill=1;startFill=0;entryX=0;entryY=0.5;entryDx=0;entryDy=0;exitX=1;exitY=0.5;exitDx=0;exitDy=0;" parent="1" source="au4fLTNO0eDFEzKA2mFN-181" target="au4fLTNO0eDFEzKA2mFN-231" edge="1">
          <mxGeometry width="100" height="100" relative="1" as="geometry">
            <mxPoint x="-1100" y="-530" as="sourcePoint" />
            <mxPoint x="-1190" y="-160" as="targetPoint" />
          </mxGeometry>
        </mxCell>
        <mxCell id="au4fLTNO0eDFEzKA2mFN-243" value="" style="edgeStyle=orthogonalEdgeStyle;endArrow=ERzeroToMany;startArrow=ERone;endFill=1;startFill=0;entryX=1;entryY=0.5;entryDx=0;entryDy=0;exitX=1;exitY=0.5;exitDx=0;exitDy=0;" parent="1" source="au4fLTNO0eDFEzKA2mFN-77" target="au4fLTNO0eDFEzKA2mFN-234" edge="1">
          <mxGeometry width="100" height="100" relative="1" as="geometry">
            <mxPoint x="-1420" y="-645" as="sourcePoint" />
            <mxPoint x="-1380" y="-645" as="targetPoint" />
            <Array as="points">
              <mxPoint x="-960" y="-95" />
              <mxPoint x="-960" y="-335" />
            </Array>
          </mxGeometry>
        </mxCell>
        <mxCell id="au4fLTNO0eDFEzKA2mFN-244" value="Bookings" style="shape=table;startSize=30;container=1;collapsible=1;childLayout=tableLayout;fixedRows=1;rowLines=0;fontStyle=1;align=center;resizeLast=1;fillColor=#6d8764;fontColor=#ffffff;strokeColor=#3A5431;" parent="1" vertex="1">
          <mxGeometry x="-1940" y="310" width="440" height="250" as="geometry" />
        </mxCell>
        <mxCell id="au4fLTNO0eDFEzKA2mFN-245" value="" style="shape=partialRectangle;collapsible=0;dropTarget=0;pointerEvents=0;fillColor=none;points=[[0,0.5],[1,0.5]];portConstraint=eastwest;top=0;left=0;right=0;bottom=1;" parent="au4fLTNO0eDFEzKA2mFN-244" vertex="1">
          <mxGeometry y="30" width="440" height="30" as="geometry" />
        </mxCell>
        <mxCell id="au4fLTNO0eDFEzKA2mFN-246" value="PK" style="shape=partialRectangle;overflow=hidden;connectable=0;fillColor=none;top=0;left=0;bottom=0;right=0;fontStyle=1;" parent="au4fLTNO0eDFEzKA2mFN-245" vertex="1">
          <mxGeometry width="30" height="30" as="geometry">
            <mxRectangle width="30" height="30" as="alternateBounds" />
          </mxGeometry>
        </mxCell>
        <mxCell id="au4fLTNO0eDFEzKA2mFN-247" value="id (UUID, PRIMARY KEY, DEFAULT uuid_generate_v4(), NOT NULL)" style="shape=partialRectangle;overflow=hidden;connectable=0;fillColor=none;top=0;left=0;bottom=0;right=0;align=left;spacingLeft=6;fontStyle=5;" parent="au4fLTNO0eDFEzKA2mFN-245" vertex="1">
          <mxGeometry x="30" width="410" height="30" as="geometry">
            <mxRectangle width="410" height="30" as="alternateBounds" />
          </mxGeometry>
        </mxCell>
        <mxCell id="au4fLTNO0eDFEzKA2mFN-248" value="" style="shape=partialRectangle;collapsible=0;dropTarget=0;pointerEvents=0;fillColor=none;points=[[0,0.5],[1,0.5]];portConstraint=eastwest;top=0;left=0;right=0;bottom=0;" parent="au4fLTNO0eDFEzKA2mFN-244" vertex="1">
          <mxGeometry y="60" width="440" height="30" as="geometry" />
        </mxCell>
        <mxCell id="au4fLTNO0eDFEzKA2mFN-249" value="FK1" style="shape=partialRectangle;overflow=hidden;connectable=0;fillColor=none;top=0;left=0;bottom=0;right=0;" parent="au4fLTNO0eDFEzKA2mFN-248" vertex="1">
          <mxGeometry width="30" height="30" as="geometry">
            <mxRectangle width="30" height="30" as="alternateBounds" />
          </mxGeometry>
        </mxCell>
        <mxCell id="au4fLTNO0eDFEzKA2mFN-250" value="user_id (UUID, FOREIGN KEY to Users, NOT NULL)" style="shape=partialRectangle;overflow=hidden;connectable=0;fillColor=none;top=0;left=0;bottom=0;right=0;align=left;spacingLeft=6;" parent="au4fLTNO0eDFEzKA2mFN-248" vertex="1">
          <mxGeometry x="30" width="410" height="30" as="geometry">
            <mxRectangle width="410" height="30" as="alternateBounds" />
          </mxGeometry>
        </mxCell>
        <mxCell id="au4fLTNO0eDFEzKA2mFN-251" style="shape=partialRectangle;collapsible=0;dropTarget=0;pointerEvents=0;fillColor=none;points=[[0,0.5],[1,0.5]];portConstraint=eastwest;top=0;left=0;right=0;bottom=0;" parent="au4fLTNO0eDFEzKA2mFN-244" vertex="1">
          <mxGeometry y="90" width="440" height="30" as="geometry" />
        </mxCell>
        <mxCell id="au4fLTNO0eDFEzKA2mFN-252" value="" style="shape=partialRectangle;overflow=hidden;connectable=0;fillColor=none;top=0;left=0;bottom=0;right=0;" parent="au4fLTNO0eDFEzKA2mFN-251" vertex="1">
          <mxGeometry width="30" height="30" as="geometry">
            <mxRectangle width="30" height="30" as="alternateBounds" />
          </mxGeometry>
        </mxCell>
        <mxCell id="au4fLTNO0eDFEzKA2mFN-253" value="program_id (UUID, FOREIGN KEY zu Programs, NOT NULL)" style="shape=partialRectangle;overflow=hidden;connectable=0;fillColor=none;top=0;left=0;bottom=0;right=0;align=left;spacingLeft=6;" parent="au4fLTNO0eDFEzKA2mFN-251" vertex="1">
          <mxGeometry x="30" width="410" height="30" as="geometry">
            <mxRectangle width="410" height="30" as="alternateBounds" />
          </mxGeometry>
        </mxCell>
        <mxCell id="au4fLTNO0eDFEzKA2mFN-254" style="shape=partialRectangle;collapsible=0;dropTarget=0;pointerEvents=0;fillColor=none;points=[[0,0.5],[1,0.5]];portConstraint=eastwest;top=0;left=0;right=0;bottom=0;" parent="au4fLTNO0eDFEzKA2mFN-244" vertex="1">
          <mxGeometry y="120" width="440" height="30" as="geometry" />
        </mxCell>
        <mxCell id="au4fLTNO0eDFEzKA2mFN-255" value="FK2" style="shape=partialRectangle;overflow=hidden;connectable=0;fillColor=none;top=0;left=0;bottom=0;right=0;" parent="au4fLTNO0eDFEzKA2mFN-254" vertex="1">
          <mxGeometry width="30" height="30" as="geometry">
            <mxRectangle width="30" height="30" as="alternateBounds" />
          </mxGeometry>
        </mxCell>
        <mxCell id="au4fLTNO0eDFEzKA2mFN-256" value="type_id (INT, FOREIGN KEY zu BookingTypes, NOT NULL)" style="shape=partialRectangle;overflow=hidden;connectable=0;fillColor=none;top=0;left=0;bottom=0;right=0;align=left;spacingLeft=6;" parent="au4fLTNO0eDFEzKA2mFN-254" vertex="1">
          <mxGeometry x="30" width="410" height="30" as="geometry">
            <mxRectangle width="410" height="30" as="alternateBounds" />
          </mxGeometry>
        </mxCell>
        <mxCell id="au4fLTNO0eDFEzKA2mFN-257" style="shape=partialRectangle;collapsible=0;dropTarget=0;pointerEvents=0;fillColor=none;points=[[0,0.5],[1,0.5]];portConstraint=eastwest;top=0;left=0;right=0;bottom=0;" parent="au4fLTNO0eDFEzKA2mFN-244" vertex="1">
          <mxGeometry y="150" width="440" height="30" as="geometry" />
        </mxCell>
        <mxCell id="au4fLTNO0eDFEzKA2mFN-258" value="" style="shape=partialRectangle;overflow=hidden;connectable=0;fillColor=none;top=0;left=0;bottom=0;right=0;" parent="au4fLTNO0eDFEzKA2mFN-257" vertex="1">
          <mxGeometry width="30" height="30" as="geometry">
            <mxRectangle width="30" height="30" as="alternateBounds" />
          </mxGeometry>
        </mxCell>
        <mxCell id="au4fLTNO0eDFEzKA2mFN-259" value="status (ENUM(&#39;confirmed&#39;, &#39;pending&#39;, &#39;canceled&#39;), NOT NULL)" style="shape=partialRectangle;overflow=hidden;connectable=0;fillColor=none;top=0;left=0;bottom=0;right=0;align=left;spacingLeft=6;" parent="au4fLTNO0eDFEzKA2mFN-257" vertex="1">
          <mxGeometry x="30" width="410" height="30" as="geometry">
            <mxRectangle width="410" height="30" as="alternateBounds" />
          </mxGeometry>
        </mxCell>
        <mxCell id="au4fLTNO0eDFEzKA2mFN-260" style="shape=partialRectangle;collapsible=0;dropTarget=0;pointerEvents=0;fillColor=none;points=[[0,0.5],[1,0.5]];portConstraint=eastwest;top=0;left=0;right=0;bottom=0;" parent="au4fLTNO0eDFEzKA2mFN-244" vertex="1">
          <mxGeometry y="180" width="440" height="30" as="geometry" />
        </mxCell>
        <mxCell id="au4fLTNO0eDFEzKA2mFN-261" value="FK3" style="shape=partialRectangle;overflow=hidden;connectable=0;fillColor=none;top=0;left=0;bottom=0;right=0;" parent="au4fLTNO0eDFEzKA2mFN-260" vertex="1">
          <mxGeometry width="30" height="30" as="geometry">
            <mxRectangle width="30" height="30" as="alternateBounds" />
          </mxGeometry>
        </mxCell>
        <mxCell id="au4fLTNO0eDFEzKA2mFN-262" value="transaction_id (UUID, FOREIGN KEY to Transactions, NULLABLE)" style="shape=partialRectangle;overflow=hidden;connectable=0;fillColor=none;top=0;left=0;bottom=0;right=0;align=left;spacingLeft=6;" parent="au4fLTNO0eDFEzKA2mFN-260" vertex="1">
          <mxGeometry x="30" width="410" height="30" as="geometry">
            <mxRectangle width="410" height="30" as="alternateBounds" />
          </mxGeometry>
        </mxCell>
        <mxCell id="au4fLTNO0eDFEzKA2mFN-263" style="shape=partialRectangle;collapsible=0;dropTarget=0;pointerEvents=0;fillColor=none;points=[[0,0.5],[1,0.5]];portConstraint=eastwest;top=0;left=0;right=0;bottom=0;" parent="au4fLTNO0eDFEzKA2mFN-244" vertex="1">
          <mxGeometry y="210" width="440" height="30" as="geometry" />
        </mxCell>
        <mxCell id="au4fLTNO0eDFEzKA2mFN-264" style="shape=partialRectangle;overflow=hidden;connectable=0;fillColor=none;top=0;left=0;bottom=0;right=0;" parent="au4fLTNO0eDFEzKA2mFN-263" vertex="1">
          <mxGeometry width="30" height="30" as="geometry">
            <mxRectangle width="30" height="30" as="alternateBounds" />
          </mxGeometry>
        </mxCell>
        <mxCell id="au4fLTNO0eDFEzKA2mFN-265" value="created_at (DATETIME, DEFAULT CURRENT_TIMESTAMP, NOT NULL)" style="shape=partialRectangle;overflow=hidden;connectable=0;fillColor=none;top=0;left=0;bottom=0;right=0;align=left;spacingLeft=6;" parent="au4fLTNO0eDFEzKA2mFN-263" vertex="1">
          <mxGeometry x="30" width="410" height="30" as="geometry">
            <mxRectangle width="410" height="30" as="alternateBounds" />
          </mxGeometry>
        </mxCell>
        <mxCell id="au4fLTNO0eDFEzKA2mFN-266" value="BookingTypes" style="shape=table;startSize=30;container=1;collapsible=1;childLayout=tableLayout;fixedRows=1;rowLines=0;fontStyle=1;align=center;resizeLast=1;fillColor=#6d8764;fontColor=#ffffff;strokeColor=#3A5431;" parent="1" vertex="1">
          <mxGeometry x="-2410" y="400" width="430" height="100" as="geometry" />
        </mxCell>
        <mxCell id="au4fLTNO0eDFEzKA2mFN-267" value="" style="shape=partialRectangle;collapsible=0;dropTarget=0;pointerEvents=0;fillColor=none;points=[[0,0.5],[1,0.5]];portConstraint=eastwest;top=0;left=0;right=0;bottom=1;" parent="au4fLTNO0eDFEzKA2mFN-266" vertex="1">
          <mxGeometry y="30" width="430" height="30" as="geometry" />
        </mxCell>
        <mxCell id="au4fLTNO0eDFEzKA2mFN-268" value="PK" style="shape=partialRectangle;overflow=hidden;connectable=0;fillColor=none;top=0;left=0;bottom=0;right=0;fontStyle=1;" parent="au4fLTNO0eDFEzKA2mFN-267" vertex="1">
          <mxGeometry width="30" height="30" as="geometry">
            <mxRectangle width="30" height="30" as="alternateBounds" />
          </mxGeometry>
        </mxCell>
        <mxCell id="au4fLTNO0eDFEzKA2mFN-269" value="id (INT, PRIMARY KEY, AUTO_INCREMENT, NOT NULL)" style="shape=partialRectangle;overflow=hidden;connectable=0;fillColor=none;top=0;left=0;bottom=0;right=0;align=left;spacingLeft=6;fontStyle=5;" parent="au4fLTNO0eDFEzKA2mFN-267" vertex="1">
          <mxGeometry x="30" width="400" height="30" as="geometry">
            <mxRectangle width="400" height="30" as="alternateBounds" />
          </mxGeometry>
        </mxCell>
        <mxCell id="au4fLTNO0eDFEzKA2mFN-270" value="" style="shape=partialRectangle;collapsible=0;dropTarget=0;pointerEvents=0;fillColor=none;points=[[0,0.5],[1,0.5]];portConstraint=eastwest;top=0;left=0;right=0;bottom=0;" parent="au4fLTNO0eDFEzKA2mFN-266" vertex="1">
          <mxGeometry y="60" width="430" height="30" as="geometry" />
        </mxCell>
        <mxCell id="au4fLTNO0eDFEzKA2mFN-271" value="" style="shape=partialRectangle;overflow=hidden;connectable=0;fillColor=none;top=0;left=0;bottom=0;right=0;" parent="au4fLTNO0eDFEzKA2mFN-270" vertex="1">
          <mxGeometry width="30" height="30" as="geometry">
            <mxRectangle width="30" height="30" as="alternateBounds" />
          </mxGeometry>
        </mxCell>
        <mxCell id="au4fLTNO0eDFEzKA2mFN-272" value="name (VARCHAR(50), UNIQUE, NOT NULL)" style="shape=partialRectangle;overflow=hidden;connectable=0;fillColor=none;top=0;left=0;bottom=0;right=0;align=left;spacingLeft=6;" parent="au4fLTNO0eDFEzKA2mFN-270" vertex="1">
          <mxGeometry x="30" width="400" height="30" as="geometry">
            <mxRectangle width="400" height="30" as="alternateBounds" />
          </mxGeometry>
        </mxCell>
        <mxCell id="au4fLTNO0eDFEzKA2mFN-279" value="" style="edgeStyle=orthogonalEdgeStyle;endArrow=ERone;startArrow=ERone;endFill=0;startFill=0;exitX=1;exitY=0.5;exitDx=0;exitDy=0;entryX=0;entryY=0.5;entryDx=0;entryDy=0;" parent="1" source="au4fLTNO0eDFEzKA2mFN-267" target="au4fLTNO0eDFEzKA2mFN-254" edge="1">
          <mxGeometry width="100" height="100" relative="1" as="geometry">
            <mxPoint x="-3065" y="525" as="sourcePoint" />
            <mxPoint x="-2915" y="615" as="targetPoint" />
            <Array as="points">
              <mxPoint x="-1960" y="445" />
              <mxPoint x="-1960" y="445" />
            </Array>
          </mxGeometry>
        </mxCell>
        <mxCell id="au4fLTNO0eDFEzKA2mFN-280" value="Transactions" style="shape=table;startSize=30;container=1;collapsible=1;childLayout=tableLayout;fixedRows=1;rowLines=0;fontStyle=1;align=center;resizeLast=1;fillColor=#6d8764;fontColor=#ffffff;strokeColor=#3A5431;" parent="1" vertex="1">
          <mxGeometry x="-1440" y="250" width="480" height="310" as="geometry" />
        </mxCell>
        <mxCell id="au4fLTNO0eDFEzKA2mFN-281" value="" style="shape=partialRectangle;collapsible=0;dropTarget=0;pointerEvents=0;fillColor=none;points=[[0,0.5],[1,0.5]];portConstraint=eastwest;top=0;left=0;right=0;bottom=1;" parent="au4fLTNO0eDFEzKA2mFN-280" vertex="1">
          <mxGeometry y="30" width="480" height="30" as="geometry" />
        </mxCell>
        <mxCell id="au4fLTNO0eDFEzKA2mFN-282" value="PK" style="shape=partialRectangle;overflow=hidden;connectable=0;fillColor=none;top=0;left=0;bottom=0;right=0;fontStyle=1;" parent="au4fLTNO0eDFEzKA2mFN-281" vertex="1">
          <mxGeometry width="30" height="30" as="geometry">
            <mxRectangle width="30" height="30" as="alternateBounds" />
          </mxGeometry>
        </mxCell>
        <mxCell id="au4fLTNO0eDFEzKA2mFN-283" value="id (UUID, PRIMARY KEY, DEFAULT uuid_generate_v4(), NOT NULL)" style="shape=partialRectangle;overflow=hidden;connectable=0;fillColor=none;top=0;left=0;bottom=0;right=0;align=left;spacingLeft=6;fontStyle=5;" parent="au4fLTNO0eDFEzKA2mFN-281" vertex="1">
          <mxGeometry x="30" width="450" height="30" as="geometry">
            <mxRectangle width="450" height="30" as="alternateBounds" />
          </mxGeometry>
        </mxCell>
        <mxCell id="au4fLTNO0eDFEzKA2mFN-284" value="" style="shape=partialRectangle;collapsible=0;dropTarget=0;pointerEvents=0;fillColor=none;points=[[0,0.5],[1,0.5]];portConstraint=eastwest;top=0;left=0;right=0;bottom=0;" parent="au4fLTNO0eDFEzKA2mFN-280" vertex="1">
          <mxGeometry y="60" width="480" height="30" as="geometry" />
        </mxCell>
        <mxCell id="au4fLTNO0eDFEzKA2mFN-285" value="FK1" style="shape=partialRectangle;overflow=hidden;connectable=0;fillColor=none;top=0;left=0;bottom=0;right=0;" parent="au4fLTNO0eDFEzKA2mFN-284" vertex="1">
          <mxGeometry width="30" height="30" as="geometry">
            <mxRectangle width="30" height="30" as="alternateBounds" />
          </mxGeometry>
        </mxCell>
        <mxCell id="au4fLTNO0eDFEzKA2mFN-286" value="user_id (UUID, FOREIGN KEY to Users, NOT NULL)" style="shape=partialRectangle;overflow=hidden;connectable=0;fillColor=none;top=0;left=0;bottom=0;right=0;align=left;spacingLeft=6;" parent="au4fLTNO0eDFEzKA2mFN-284" vertex="1">
          <mxGeometry x="30" width="450" height="30" as="geometry">
            <mxRectangle width="450" height="30" as="alternateBounds" />
          </mxGeometry>
        </mxCell>
        <mxCell id="au4fLTNO0eDFEzKA2mFN-287" style="shape=partialRectangle;collapsible=0;dropTarget=0;pointerEvents=0;fillColor=none;points=[[0,0.5],[1,0.5]];portConstraint=eastwest;top=0;left=0;right=0;bottom=0;" parent="au4fLTNO0eDFEzKA2mFN-280" vertex="1">
          <mxGeometry y="90" width="480" height="30" as="geometry" />
        </mxCell>
        <mxCell id="au4fLTNO0eDFEzKA2mFN-288" value="" style="shape=partialRectangle;overflow=hidden;connectable=0;fillColor=none;top=0;left=0;bottom=0;right=0;" parent="au4fLTNO0eDFEzKA2mFN-287" vertex="1">
          <mxGeometry width="30" height="30" as="geometry">
            <mxRectangle width="30" height="30" as="alternateBounds" />
          </mxGeometry>
        </mxCell>
        <mxCell id="au4fLTNO0eDFEzKA2mFN-289" value="amount (DECIMAL(10,2), NOT NULL)" style="shape=partialRectangle;overflow=hidden;connectable=0;fillColor=none;top=0;left=0;bottom=0;right=0;align=left;spacingLeft=6;" parent="au4fLTNO0eDFEzKA2mFN-287" vertex="1">
          <mxGeometry x="30" width="450" height="30" as="geometry">
            <mxRectangle width="450" height="30" as="alternateBounds" />
          </mxGeometry>
        </mxCell>
        <mxCell id="au4fLTNO0eDFEzKA2mFN-290" style="shape=partialRectangle;collapsible=0;dropTarget=0;pointerEvents=0;fillColor=none;points=[[0,0.5],[1,0.5]];portConstraint=eastwest;top=0;left=0;right=0;bottom=0;" parent="au4fLTNO0eDFEzKA2mFN-280" vertex="1">
          <mxGeometry y="120" width="480" height="30" as="geometry" />
        </mxCell>
        <mxCell id="au4fLTNO0eDFEzKA2mFN-291" value="" style="shape=partialRectangle;overflow=hidden;connectable=0;fillColor=none;top=0;left=0;bottom=0;right=0;" parent="au4fLTNO0eDFEzKA2mFN-290" vertex="1">
          <mxGeometry width="30" height="30" as="geometry">
            <mxRectangle width="30" height="30" as="alternateBounds" />
          </mxGeometry>
        </mxCell>
        <mxCell id="au4fLTNO0eDFEzKA2mFN-292" value="currency (CHAR(3), NOT NULL) -- ISO 4217 Code." style="shape=partialRectangle;overflow=hidden;connectable=0;fillColor=none;top=0;left=0;bottom=0;right=0;align=left;spacingLeft=6;" parent="au4fLTNO0eDFEzKA2mFN-290" vertex="1">
          <mxGeometry x="30" width="450" height="30" as="geometry">
            <mxRectangle width="450" height="30" as="alternateBounds" />
          </mxGeometry>
        </mxCell>
        <mxCell id="au4fLTNO0eDFEzKA2mFN-293" style="shape=partialRectangle;collapsible=0;dropTarget=0;pointerEvents=0;fillColor=none;points=[[0,0.5],[1,0.5]];portConstraint=eastwest;top=0;left=0;right=0;bottom=0;" parent="au4fLTNO0eDFEzKA2mFN-280" vertex="1">
          <mxGeometry y="150" width="480" height="30" as="geometry" />
        </mxCell>
        <mxCell id="au4fLTNO0eDFEzKA2mFN-294" value="" style="shape=partialRectangle;overflow=hidden;connectable=0;fillColor=none;top=0;left=0;bottom=0;right=0;" parent="au4fLTNO0eDFEzKA2mFN-293" vertex="1">
          <mxGeometry width="30" height="30" as="geometry">
            <mxRectangle width="30" height="30" as="alternateBounds" />
          </mxGeometry>
        </mxCell>
        <mxCell id="au4fLTNO0eDFEzKA2mFN-295" value="status (ENUM(&#39;success&#39;, &#39;failed&#39;, &#39;pending&#39;), NOT NULL)" style="shape=partialRectangle;overflow=hidden;connectable=0;fillColor=none;top=0;left=0;bottom=0;right=0;align=left;spacingLeft=6;" parent="au4fLTNO0eDFEzKA2mFN-293" vertex="1">
          <mxGeometry x="30" width="450" height="30" as="geometry">
            <mxRectangle width="450" height="30" as="alternateBounds" />
          </mxGeometry>
        </mxCell>
        <mxCell id="au4fLTNO0eDFEzKA2mFN-296" style="shape=partialRectangle;collapsible=0;dropTarget=0;pointerEvents=0;fillColor=none;points=[[0,0.5],[1,0.5]];portConstraint=eastwest;top=0;left=0;right=0;bottom=0;" parent="au4fLTNO0eDFEzKA2mFN-280" vertex="1">
          <mxGeometry y="180" width="480" height="30" as="geometry" />
        </mxCell>
        <mxCell id="au4fLTNO0eDFEzKA2mFN-297" style="shape=partialRectangle;overflow=hidden;connectable=0;fillColor=none;top=0;left=0;bottom=0;right=0;" parent="au4fLTNO0eDFEzKA2mFN-296" vertex="1">
          <mxGeometry width="30" height="30" as="geometry">
            <mxRectangle width="30" height="30" as="alternateBounds" />
          </mxGeometry>
        </mxCell>
        <mxCell id="au4fLTNO0eDFEzKA2mFN-298" value="transaction_date (DATETIME, DEFAULT CURRENT_TIMESTAMP, NOT NULL)" style="shape=partialRectangle;overflow=hidden;connectable=0;fillColor=none;top=0;left=0;bottom=0;right=0;align=left;spacingLeft=6;" parent="au4fLTNO0eDFEzKA2mFN-296" vertex="1">
          <mxGeometry x="30" width="450" height="30" as="geometry">
            <mxRectangle width="450" height="30" as="alternateBounds" />
          </mxGeometry>
        </mxCell>
        <mxCell id="au4fLTNO0eDFEzKA2mFN-299" style="shape=partialRectangle;collapsible=0;dropTarget=0;pointerEvents=0;fillColor=none;points=[[0,0.5],[1,0.5]];portConstraint=eastwest;top=0;left=0;right=0;bottom=0;" parent="au4fLTNO0eDFEzKA2mFN-280" vertex="1">
          <mxGeometry y="210" width="480" height="30" as="geometry" />
        </mxCell>
        <mxCell id="au4fLTNO0eDFEzKA2mFN-300" style="shape=partialRectangle;overflow=hidden;connectable=0;fillColor=none;top=0;left=0;bottom=0;right=0;" parent="au4fLTNO0eDFEzKA2mFN-299" vertex="1">
          <mxGeometry width="30" height="30" as="geometry">
            <mxRectangle width="30" height="30" as="alternateBounds" />
          </mxGeometry>
        </mxCell>
        <mxCell id="au4fLTNO0eDFEzKA2mFN-301" value="payment_method (ENUM(&#39;Stripe&#39;, &#39;PayPal&#39;, &#39;Other&#39;), NOT NULL)" style="shape=partialRectangle;overflow=hidden;connectable=0;fillColor=none;top=0;left=0;bottom=0;right=0;align=left;spacingLeft=6;" parent="au4fLTNO0eDFEzKA2mFN-299" vertex="1">
          <mxGeometry x="30" width="450" height="30" as="geometry">
            <mxRectangle width="450" height="30" as="alternateBounds" />
          </mxGeometry>
        </mxCell>
        <mxCell id="au4fLTNO0eDFEzKA2mFN-302" style="shape=partialRectangle;collapsible=0;dropTarget=0;pointerEvents=0;fillColor=none;points=[[0,0.5],[1,0.5]];portConstraint=eastwest;top=0;left=0;right=0;bottom=0;" parent="au4fLTNO0eDFEzKA2mFN-280" vertex="1">
          <mxGeometry y="240" width="480" height="30" as="geometry" />
        </mxCell>
        <mxCell id="au4fLTNO0eDFEzKA2mFN-303" value="FK2" style="shape=partialRectangle;overflow=hidden;connectable=0;fillColor=none;top=0;left=0;bottom=0;right=0;" parent="au4fLTNO0eDFEzKA2mFN-302" vertex="1">
          <mxGeometry width="30" height="30" as="geometry">
            <mxRectangle width="30" height="30" as="alternateBounds" />
          </mxGeometry>
        </mxCell>
        <mxCell id="au4fLTNO0eDFEzKA2mFN-304" value="program_id (UUID, FOREIGN KEY to Programs, NULLABLE)" style="shape=partialRectangle;overflow=hidden;connectable=0;fillColor=none;top=0;left=0;bottom=0;right=0;align=left;spacingLeft=6;" parent="au4fLTNO0eDFEzKA2mFN-302" vertex="1">
          <mxGeometry x="30" width="450" height="30" as="geometry">
            <mxRectangle width="450" height="30" as="alternateBounds" />
          </mxGeometry>
        </mxCell>
        <mxCell id="au4fLTNO0eDFEzKA2mFN-305" style="shape=partialRectangle;collapsible=0;dropTarget=0;pointerEvents=0;fillColor=none;points=[[0,0.5],[1,0.5]];portConstraint=eastwest;top=0;left=0;right=0;bottom=0;" parent="au4fLTNO0eDFEzKA2mFN-280" vertex="1">
          <mxGeometry y="270" width="480" height="30" as="geometry" />
        </mxCell>
        <mxCell id="au4fLTNO0eDFEzKA2mFN-306" value="FK3" style="shape=partialRectangle;overflow=hidden;connectable=0;fillColor=none;top=0;left=0;bottom=0;right=0;" parent="au4fLTNO0eDFEzKA2mFN-305" vertex="1">
          <mxGeometry width="30" height="30" as="geometry">
            <mxRectangle width="30" height="30" as="alternateBounds" />
          </mxGeometry>
        </mxCell>
        <mxCell id="au4fLTNO0eDFEzKA2mFN-307" value="membership_id (UUID, FOREIGN KEY to Memberships, NULLABLE)" style="shape=partialRectangle;overflow=hidden;connectable=0;fillColor=none;top=0;left=0;bottom=0;right=0;align=left;spacingLeft=6;" parent="au4fLTNO0eDFEzKA2mFN-305" vertex="1">
          <mxGeometry x="30" width="450" height="30" as="geometry">
            <mxRectangle width="450" height="30" as="alternateBounds" />
          </mxGeometry>
        </mxCell>
        <mxCell id="au4fLTNO0eDFEzKA2mFN-312" value="Roles" style="shape=table;startSize=30;container=1;collapsible=1;childLayout=tableLayout;fixedRows=1;rowLines=0;fontStyle=1;align=center;resizeLast=1;fillColor=#a20025;fontColor=#ffffff;strokeColor=#6F0000;" parent="1" vertex="1">
          <mxGeometry x="-1880" y="640" width="430" height="130" as="geometry" />
        </mxCell>
        <mxCell id="au4fLTNO0eDFEzKA2mFN-313" value="" style="shape=partialRectangle;collapsible=0;dropTarget=0;pointerEvents=0;fillColor=none;points=[[0,0.5],[1,0.5]];portConstraint=eastwest;top=0;left=0;right=0;bottom=1;" parent="au4fLTNO0eDFEzKA2mFN-312" vertex="1">
          <mxGeometry y="30" width="430" height="30" as="geometry" />
        </mxCell>
        <mxCell id="au4fLTNO0eDFEzKA2mFN-314" value="PK" style="shape=partialRectangle;overflow=hidden;connectable=0;fillColor=none;top=0;left=0;bottom=0;right=0;fontStyle=1;" parent="au4fLTNO0eDFEzKA2mFN-313" vertex="1">
          <mxGeometry width="30" height="30" as="geometry">
            <mxRectangle width="30" height="30" as="alternateBounds" />
          </mxGeometry>
        </mxCell>
        <mxCell id="au4fLTNO0eDFEzKA2mFN-315" value="id (INT, PRIMARY KEY, AUTO_INCREMENT, NOT NULL)" style="shape=partialRectangle;overflow=hidden;connectable=0;fillColor=none;top=0;left=0;bottom=0;right=0;align=left;spacingLeft=6;fontStyle=5;" parent="au4fLTNO0eDFEzKA2mFN-313" vertex="1">
          <mxGeometry x="30" width="400" height="30" as="geometry">
            <mxRectangle width="400" height="30" as="alternateBounds" />
          </mxGeometry>
        </mxCell>
        <mxCell id="au4fLTNO0eDFEzKA2mFN-316" value="" style="shape=partialRectangle;collapsible=0;dropTarget=0;pointerEvents=0;fillColor=none;points=[[0,0.5],[1,0.5]];portConstraint=eastwest;top=0;left=0;right=0;bottom=0;" parent="au4fLTNO0eDFEzKA2mFN-312" vertex="1">
          <mxGeometry y="60" width="430" height="30" as="geometry" />
        </mxCell>
        <mxCell id="au4fLTNO0eDFEzKA2mFN-317" value="" style="shape=partialRectangle;overflow=hidden;connectable=0;fillColor=none;top=0;left=0;bottom=0;right=0;" parent="au4fLTNO0eDFEzKA2mFN-316" vertex="1">
          <mxGeometry width="30" height="30" as="geometry">
            <mxRectangle width="30" height="30" as="alternateBounds" />
          </mxGeometry>
        </mxCell>
        <mxCell id="au4fLTNO0eDFEzKA2mFN-318" value="name (VARCHAR(50), UNIQUE, NOT NULL)" style="shape=partialRectangle;overflow=hidden;connectable=0;fillColor=none;top=0;left=0;bottom=0;right=0;align=left;spacingLeft=6;" parent="au4fLTNO0eDFEzKA2mFN-316" vertex="1">
          <mxGeometry x="30" width="400" height="30" as="geometry">
            <mxRectangle width="400" height="30" as="alternateBounds" />
          </mxGeometry>
        </mxCell>
        <mxCell id="au4fLTNO0eDFEzKA2mFN-319" style="shape=partialRectangle;collapsible=0;dropTarget=0;pointerEvents=0;fillColor=none;points=[[0,0.5],[1,0.5]];portConstraint=eastwest;top=0;left=0;right=0;bottom=0;" parent="au4fLTNO0eDFEzKA2mFN-312" vertex="1">
          <mxGeometry y="90" width="430" height="30" as="geometry" />
        </mxCell>
        <mxCell id="au4fLTNO0eDFEzKA2mFN-320" style="shape=partialRectangle;overflow=hidden;connectable=0;fillColor=none;top=0;left=0;bottom=0;right=0;" parent="au4fLTNO0eDFEzKA2mFN-319" vertex="1">
          <mxGeometry width="30" height="30" as="geometry">
            <mxRectangle width="30" height="30" as="alternateBounds" />
          </mxGeometry>
        </mxCell>
        <mxCell id="au4fLTNO0eDFEzKA2mFN-321" value="description (TEXT, NULLABLE)" style="shape=partialRectangle;overflow=hidden;connectable=0;fillColor=none;top=0;left=0;bottom=0;right=0;align=left;spacingLeft=6;" parent="au4fLTNO0eDFEzKA2mFN-319" vertex="1">
          <mxGeometry x="30" width="400" height="30" as="geometry">
            <mxRectangle width="400" height="30" as="alternateBounds" />
          </mxGeometry>
        </mxCell>
        <mxCell id="au4fLTNO0eDFEzKA2mFN-322" value="UserRoles" style="shape=table;startSize=30;container=1;collapsible=1;childLayout=tableLayout;fixedRows=1;rowLines=0;fontStyle=1;align=center;resizeLast=1;fillColor=#a20025;fontColor=#ffffff;strokeColor=#6F0000;" parent="1" vertex="1">
          <mxGeometry x="-1400" y="640" width="440" height="160" as="geometry" />
        </mxCell>
        <mxCell id="au4fLTNO0eDFEzKA2mFN-326" value="" style="shape=partialRectangle;collapsible=0;dropTarget=0;pointerEvents=0;fillColor=none;points=[[0,0.5],[1,0.5]];portConstraint=eastwest;top=0;left=0;right=0;bottom=0;" parent="au4fLTNO0eDFEzKA2mFN-322" vertex="1">
          <mxGeometry y="30" width="440" height="30" as="geometry" />
        </mxCell>
        <mxCell id="au4fLTNO0eDFEzKA2mFN-327" value="FK1" style="shape=partialRectangle;overflow=hidden;connectable=0;fillColor=none;top=0;left=0;bottom=0;right=0;" parent="au4fLTNO0eDFEzKA2mFN-326" vertex="1">
          <mxGeometry width="30" height="30" as="geometry">
            <mxRectangle width="30" height="30" as="alternateBounds" />
          </mxGeometry>
        </mxCell>
        <mxCell id="au4fLTNO0eDFEzKA2mFN-328" value="user_id (UUID, FOREIGN KEY to Users, NOT NULL)" style="shape=partialRectangle;overflow=hidden;connectable=0;fillColor=none;top=0;left=0;bottom=0;right=0;align=left;spacingLeft=6;" parent="au4fLTNO0eDFEzKA2mFN-326" vertex="1">
          <mxGeometry x="30" width="410" height="30" as="geometry">
            <mxRectangle width="410" height="30" as="alternateBounds" />
          </mxGeometry>
        </mxCell>
        <mxCell id="au4fLTNO0eDFEzKA2mFN-329" style="shape=partialRectangle;collapsible=0;dropTarget=0;pointerEvents=0;fillColor=none;points=[[0,0.5],[1,0.5]];portConstraint=eastwest;top=0;left=0;right=0;bottom=0;" parent="au4fLTNO0eDFEzKA2mFN-322" vertex="1">
          <mxGeometry y="60" width="440" height="30" as="geometry" />
        </mxCell>
        <mxCell id="au4fLTNO0eDFEzKA2mFN-330" value="FK2" style="shape=partialRectangle;overflow=hidden;connectable=0;fillColor=none;top=0;left=0;bottom=0;right=0;" parent="au4fLTNO0eDFEzKA2mFN-329" vertex="1">
          <mxGeometry width="30" height="30" as="geometry">
            <mxRectangle width="30" height="30" as="alternateBounds" />
          </mxGeometry>
        </mxCell>
        <mxCell id="au4fLTNO0eDFEzKA2mFN-331" value="role_id (INT, FOREIGN KEY to Roles, NOT NULL)" style="shape=partialRectangle;overflow=hidden;connectable=0;fillColor=none;top=0;left=0;bottom=0;right=0;align=left;spacingLeft=6;" parent="au4fLTNO0eDFEzKA2mFN-329" vertex="1">
          <mxGeometry x="30" width="410" height="30" as="geometry">
            <mxRectangle width="410" height="30" as="alternateBounds" />
          </mxGeometry>
        </mxCell>
        <mxCell id="au4fLTNO0eDFEzKA2mFN-332" style="shape=partialRectangle;collapsible=0;dropTarget=0;pointerEvents=0;fillColor=none;points=[[0,0.5],[1,0.5]];portConstraint=eastwest;top=0;left=0;right=0;bottom=0;" parent="au4fLTNO0eDFEzKA2mFN-322" vertex="1">
          <mxGeometry y="90" width="440" height="30" as="geometry" />
        </mxCell>
        <mxCell id="au4fLTNO0eDFEzKA2mFN-333" style="shape=partialRectangle;overflow=hidden;connectable=0;fillColor=none;top=0;left=0;bottom=0;right=0;" parent="au4fLTNO0eDFEzKA2mFN-332" vertex="1">
          <mxGeometry width="30" height="30" as="geometry">
            <mxRectangle width="30" height="30" as="alternateBounds" />
          </mxGeometry>
        </mxCell>
        <mxCell id="au4fLTNO0eDFEzKA2mFN-334" value="assigned_at (DATETIME, DEFAULT CURRENT_TIMESTAMP, NOT NULL)" style="shape=partialRectangle;overflow=hidden;connectable=0;fillColor=none;top=0;left=0;bottom=0;right=0;align=left;spacingLeft=6;" parent="au4fLTNO0eDFEzKA2mFN-332" vertex="1">
          <mxGeometry x="30" width="410" height="30" as="geometry">
            <mxRectangle width="410" height="30" as="alternateBounds" />
          </mxGeometry>
        </mxCell>
        <mxCell id="au4fLTNO0eDFEzKA2mFN-461" style="shape=partialRectangle;collapsible=0;dropTarget=0;pointerEvents=0;fillColor=none;points=[[0,0.5],[1,0.5]];portConstraint=eastwest;top=0;left=0;right=0;bottom=0;" parent="au4fLTNO0eDFEzKA2mFN-322" vertex="1">
          <mxGeometry y="120" width="440" height="30" as="geometry" />
        </mxCell>
        <mxCell id="au4fLTNO0eDFEzKA2mFN-462" style="shape=partialRectangle;overflow=hidden;connectable=0;fillColor=none;top=0;left=0;bottom=0;right=0;" parent="au4fLTNO0eDFEzKA2mFN-461" vertex="1">
          <mxGeometry width="30" height="30" as="geometry">
            <mxRectangle width="30" height="30" as="alternateBounds" />
          </mxGeometry>
        </mxCell>
        <mxCell id="au4fLTNO0eDFEzKA2mFN-463" value="PRIMARY KEY (user_id , role_id)" style="shape=partialRectangle;overflow=hidden;connectable=0;fillColor=none;top=0;left=0;bottom=0;right=0;align=left;spacingLeft=6;" parent="au4fLTNO0eDFEzKA2mFN-461" vertex="1">
          <mxGeometry x="30" width="410" height="30" as="geometry">
            <mxRectangle width="410" height="30" as="alternateBounds" />
          </mxGeometry>
        </mxCell>
        <mxCell id="au4fLTNO0eDFEzKA2mFN-335" value="ClubRoles" style="shape=table;startSize=30;container=1;collapsible=1;childLayout=tableLayout;fixedRows=1;rowLines=0;fontStyle=1;align=center;resizeLast=1;fillColor=#008a00;fontColor=#ffffff;strokeColor=#005700;" parent="1" vertex="1">
          <mxGeometry x="-1880" y="880" width="430" height="130" as="geometry" />
        </mxCell>
        <mxCell id="au4fLTNO0eDFEzKA2mFN-336" value="" style="shape=partialRectangle;collapsible=0;dropTarget=0;pointerEvents=0;fillColor=none;points=[[0,0.5],[1,0.5]];portConstraint=eastwest;top=0;left=0;right=0;bottom=1;" parent="au4fLTNO0eDFEzKA2mFN-335" vertex="1">
          <mxGeometry y="30" width="430" height="30" as="geometry" />
        </mxCell>
        <mxCell id="au4fLTNO0eDFEzKA2mFN-337" value="PK" style="shape=partialRectangle;overflow=hidden;connectable=0;fillColor=none;top=0;left=0;bottom=0;right=0;fontStyle=1;" parent="au4fLTNO0eDFEzKA2mFN-336" vertex="1">
          <mxGeometry width="30" height="30" as="geometry">
            <mxRectangle width="30" height="30" as="alternateBounds" />
          </mxGeometry>
        </mxCell>
        <mxCell id="au4fLTNO0eDFEzKA2mFN-338" value="id (INT, PRIMARY KEY, AUTO_INCREMENT, NOT NULL)" style="shape=partialRectangle;overflow=hidden;connectable=0;fillColor=none;top=0;left=0;bottom=0;right=0;align=left;spacingLeft=6;fontStyle=5;" parent="au4fLTNO0eDFEzKA2mFN-336" vertex="1">
          <mxGeometry x="30" width="400" height="30" as="geometry">
            <mxRectangle width="400" height="30" as="alternateBounds" />
          </mxGeometry>
        </mxCell>
        <mxCell id="au4fLTNO0eDFEzKA2mFN-339" value="" style="shape=partialRectangle;collapsible=0;dropTarget=0;pointerEvents=0;fillColor=none;points=[[0,0.5],[1,0.5]];portConstraint=eastwest;top=0;left=0;right=0;bottom=0;" parent="au4fLTNO0eDFEzKA2mFN-335" vertex="1">
          <mxGeometry y="60" width="430" height="30" as="geometry" />
        </mxCell>
        <mxCell id="au4fLTNO0eDFEzKA2mFN-340" value="" style="shape=partialRectangle;overflow=hidden;connectable=0;fillColor=none;top=0;left=0;bottom=0;right=0;" parent="au4fLTNO0eDFEzKA2mFN-339" vertex="1">
          <mxGeometry width="30" height="30" as="geometry">
            <mxRectangle width="30" height="30" as="alternateBounds" />
          </mxGeometry>
        </mxCell>
        <mxCell id="au4fLTNO0eDFEzKA2mFN-341" value="name (VARCHAR(50), UNIQUE, NOT NULL)" style="shape=partialRectangle;overflow=hidden;connectable=0;fillColor=none;top=0;left=0;bottom=0;right=0;align=left;spacingLeft=6;" parent="au4fLTNO0eDFEzKA2mFN-339" vertex="1">
          <mxGeometry x="30" width="400" height="30" as="geometry">
            <mxRectangle width="400" height="30" as="alternateBounds" />
          </mxGeometry>
        </mxCell>
        <mxCell id="au4fLTNO0eDFEzKA2mFN-342" style="shape=partialRectangle;collapsible=0;dropTarget=0;pointerEvents=0;fillColor=none;points=[[0,0.5],[1,0.5]];portConstraint=eastwest;top=0;left=0;right=0;bottom=0;" parent="au4fLTNO0eDFEzKA2mFN-335" vertex="1">
          <mxGeometry y="90" width="430" height="30" as="geometry" />
        </mxCell>
        <mxCell id="au4fLTNO0eDFEzKA2mFN-343" style="shape=partialRectangle;overflow=hidden;connectable=0;fillColor=none;top=0;left=0;bottom=0;right=0;" parent="au4fLTNO0eDFEzKA2mFN-342" vertex="1">
          <mxGeometry width="30" height="30" as="geometry">
            <mxRectangle width="30" height="30" as="alternateBounds" />
          </mxGeometry>
        </mxCell>
        <mxCell id="au4fLTNO0eDFEzKA2mFN-344" value="description (TEXT, NULLABLE)" style="shape=partialRectangle;overflow=hidden;connectable=0;fillColor=none;top=0;left=0;bottom=0;right=0;align=left;spacingLeft=6;" parent="au4fLTNO0eDFEzKA2mFN-342" vertex="1">
          <mxGeometry x="30" width="400" height="30" as="geometry">
            <mxRectangle width="400" height="30" as="alternateBounds" />
          </mxGeometry>
        </mxCell>
        <mxCell id="au4fLTNO0eDFEzKA2mFN-345" value="UserClubRoles" style="shape=table;startSize=30;container=1;collapsible=1;childLayout=tableLayout;fixedRows=1;rowLines=0;fontStyle=1;align=center;resizeLast=1;fillColor=#008a00;fontColor=#ffffff;strokeColor=#005700;" parent="1" vertex="1">
          <mxGeometry x="-1400" y="820" width="440" height="220" as="geometry" />
        </mxCell>
        <mxCell id="au4fLTNO0eDFEzKA2mFN-346" value="" style="shape=partialRectangle;collapsible=0;dropTarget=0;pointerEvents=0;fillColor=none;points=[[0,0.5],[1,0.5]];portConstraint=eastwest;top=0;left=0;right=0;bottom=0;" parent="au4fLTNO0eDFEzKA2mFN-345" vertex="1">
          <mxGeometry y="30" width="440" height="30" as="geometry" />
        </mxCell>
        <mxCell id="au4fLTNO0eDFEzKA2mFN-347" value="FK1" style="shape=partialRectangle;overflow=hidden;connectable=0;fillColor=none;top=0;left=0;bottom=0;right=0;" parent="au4fLTNO0eDFEzKA2mFN-346" vertex="1">
          <mxGeometry width="30" height="30" as="geometry">
            <mxRectangle width="30" height="30" as="alternateBounds" />
          </mxGeometry>
        </mxCell>
        <mxCell id="au4fLTNO0eDFEzKA2mFN-348" value="user_id (UUID, FOREIGN KEY to Users, NOT NULL)" style="shape=partialRectangle;overflow=hidden;connectable=0;fillColor=none;top=0;left=0;bottom=0;right=0;align=left;spacingLeft=6;" parent="au4fLTNO0eDFEzKA2mFN-346" vertex="1">
          <mxGeometry x="30" width="410" height="30" as="geometry">
            <mxRectangle width="410" height="30" as="alternateBounds" />
          </mxGeometry>
        </mxCell>
        <mxCell id="au4fLTNO0eDFEzKA2mFN-349" style="shape=partialRectangle;collapsible=0;dropTarget=0;pointerEvents=0;fillColor=none;points=[[0,0.5],[1,0.5]];portConstraint=eastwest;top=0;left=0;right=0;bottom=0;" parent="au4fLTNO0eDFEzKA2mFN-345" vertex="1">
          <mxGeometry y="60" width="440" height="30" as="geometry" />
        </mxCell>
        <mxCell id="au4fLTNO0eDFEzKA2mFN-350" value="FK2" style="shape=partialRectangle;overflow=hidden;connectable=0;fillColor=none;top=0;left=0;bottom=0;right=0;" parent="au4fLTNO0eDFEzKA2mFN-349" vertex="1">
          <mxGeometry width="30" height="30" as="geometry">
            <mxRectangle width="30" height="30" as="alternateBounds" />
          </mxGeometry>
        </mxCell>
        <mxCell id="au4fLTNO0eDFEzKA2mFN-351" value="club_id (UUID, FOREIGN KEYto Clubs, NOT NULL)" style="shape=partialRectangle;overflow=hidden;connectable=0;fillColor=none;top=0;left=0;bottom=0;right=0;align=left;spacingLeft=6;" parent="au4fLTNO0eDFEzKA2mFN-349" vertex="1">
          <mxGeometry x="30" width="410" height="30" as="geometry">
            <mxRectangle width="410" height="30" as="alternateBounds" />
          </mxGeometry>
        </mxCell>
        <mxCell id="au4fLTNO0eDFEzKA2mFN-352" style="shape=partialRectangle;collapsible=0;dropTarget=0;pointerEvents=0;fillColor=none;points=[[0,0.5],[1,0.5]];portConstraint=eastwest;top=0;left=0;right=0;bottom=0;" parent="au4fLTNO0eDFEzKA2mFN-345" vertex="1">
          <mxGeometry y="90" width="440" height="30" as="geometry" />
        </mxCell>
        <mxCell id="au4fLTNO0eDFEzKA2mFN-353" value="FK3" style="shape=partialRectangle;overflow=hidden;connectable=0;fillColor=none;top=0;left=0;bottom=0;right=0;" parent="au4fLTNO0eDFEzKA2mFN-352" vertex="1">
          <mxGeometry width="30" height="30" as="geometry">
            <mxRectangle width="30" height="30" as="alternateBounds" />
          </mxGeometry>
        </mxCell>
        <mxCell id="au4fLTNO0eDFEzKA2mFN-354" value="club_role_id (INT, FOREIGN KEY to ClubRoles, NOT NULL)" style="shape=partialRectangle;overflow=hidden;connectable=0;fillColor=none;top=0;left=0;bottom=0;right=0;align=left;spacingLeft=6;" parent="au4fLTNO0eDFEzKA2mFN-352" vertex="1">
          <mxGeometry x="30" width="410" height="30" as="geometry">
            <mxRectangle width="410" height="30" as="alternateBounds" />
          </mxGeometry>
        </mxCell>
        <mxCell id="au4fLTNO0eDFEzKA2mFN-355" style="shape=partialRectangle;collapsible=0;dropTarget=0;pointerEvents=0;fillColor=none;points=[[0,0.5],[1,0.5]];portConstraint=eastwest;top=0;left=0;right=0;bottom=0;" parent="au4fLTNO0eDFEzKA2mFN-345" vertex="1">
          <mxGeometry y="120" width="440" height="30" as="geometry" />
        </mxCell>
        <mxCell id="au4fLTNO0eDFEzKA2mFN-356" style="shape=partialRectangle;overflow=hidden;connectable=0;fillColor=none;top=0;left=0;bottom=0;right=0;" parent="au4fLTNO0eDFEzKA2mFN-355" vertex="1">
          <mxGeometry width="30" height="30" as="geometry">
            <mxRectangle width="30" height="30" as="alternateBounds" />
          </mxGeometry>
        </mxCell>
        <mxCell id="au4fLTNO0eDFEzKA2mFN-357" value="assigned_at (DATETIME, DEFAULT CURRENT_TIMESTAMP, NOT NULL)" style="shape=partialRectangle;overflow=hidden;connectable=0;fillColor=none;top=0;left=0;bottom=0;right=0;align=left;spacingLeft=6;" parent="au4fLTNO0eDFEzKA2mFN-355" vertex="1">
          <mxGeometry x="30" width="410" height="30" as="geometry">
            <mxRectangle width="410" height="30" as="alternateBounds" />
          </mxGeometry>
        </mxCell>
        <mxCell id="au4fLTNO0eDFEzKA2mFN-450" style="shape=partialRectangle;collapsible=0;dropTarget=0;pointerEvents=0;fillColor=none;points=[[0,0.5],[1,0.5]];portConstraint=eastwest;top=0;left=0;right=0;bottom=0;" parent="au4fLTNO0eDFEzKA2mFN-345" vertex="1">
          <mxGeometry y="150" width="440" height="30" as="geometry" />
        </mxCell>
        <mxCell id="au4fLTNO0eDFEzKA2mFN-451" style="shape=partialRectangle;overflow=hidden;connectable=0;fillColor=none;top=0;left=0;bottom=0;right=0;" parent="au4fLTNO0eDFEzKA2mFN-450" vertex="1">
          <mxGeometry width="30" height="30" as="geometry">
            <mxRectangle width="30" height="30" as="alternateBounds" />
          </mxGeometry>
        </mxCell>
        <mxCell id="au4fLTNO0eDFEzKA2mFN-452" value="UNIQUE (user_id, club_id)" style="shape=partialRectangle;overflow=hidden;connectable=0;fillColor=none;top=0;left=0;bottom=0;right=0;align=left;spacingLeft=6;fontStyle=2" parent="au4fLTNO0eDFEzKA2mFN-450" vertex="1">
          <mxGeometry x="30" width="410" height="30" as="geometry">
            <mxRectangle width="410" height="30" as="alternateBounds" />
          </mxGeometry>
        </mxCell>
        <mxCell id="au4fLTNO0eDFEzKA2mFN-475" style="shape=partialRectangle;collapsible=0;dropTarget=0;pointerEvents=0;fillColor=none;points=[[0,0.5],[1,0.5]];portConstraint=eastwest;top=0;left=0;right=0;bottom=0;" parent="au4fLTNO0eDFEzKA2mFN-345" vertex="1">
          <mxGeometry y="180" width="440" height="30" as="geometry" />
        </mxCell>
        <mxCell id="au4fLTNO0eDFEzKA2mFN-476" style="shape=partialRectangle;overflow=hidden;connectable=0;fillColor=none;top=0;left=0;bottom=0;right=0;" parent="au4fLTNO0eDFEzKA2mFN-475" vertex="1">
          <mxGeometry width="30" height="30" as="geometry">
            <mxRectangle width="30" height="30" as="alternateBounds" />
          </mxGeometry>
        </mxCell>
        <mxCell id="au4fLTNO0eDFEzKA2mFN-477" value="PRIMARY KEY (user_id , club_role_id)" style="shape=partialRectangle;overflow=hidden;connectable=0;fillColor=none;top=0;left=0;bottom=0;right=0;align=left;spacingLeft=6;fontStyle=2" parent="au4fLTNO0eDFEzKA2mFN-475" vertex="1">
          <mxGeometry x="30" width="410" height="30" as="geometry">
            <mxRectangle width="410" height="30" as="alternateBounds" />
          </mxGeometry>
        </mxCell>
        <mxCell id="au4fLTNO0eDFEzKA2mFN-359" value="User2FA" style="shape=table;startSize=30;container=1;collapsible=1;childLayout=tableLayout;fixedRows=1;rowLines=0;fontStyle=1;align=center;resizeLast=1;fillColor=#a20025;fontColor=#ffffff;strokeColor=#6F0000;" parent="1" vertex="1">
          <mxGeometry x="-1390" y="1060" width="430" height="220" as="geometry" />
        </mxCell>
        <mxCell id="au4fLTNO0eDFEzKA2mFN-360" value="" style="shape=partialRectangle;collapsible=0;dropTarget=0;pointerEvents=0;fillColor=none;points=[[0,0.5],[1,0.5]];portConstraint=eastwest;top=0;left=0;right=0;bottom=1;" parent="au4fLTNO0eDFEzKA2mFN-359" vertex="1">
          <mxGeometry y="30" width="430" height="30" as="geometry" />
        </mxCell>
        <mxCell id="au4fLTNO0eDFEzKA2mFN-361" value="PK" style="shape=partialRectangle;overflow=hidden;connectable=0;fillColor=none;top=0;left=0;bottom=0;right=0;fontStyle=1;" parent="au4fLTNO0eDFEzKA2mFN-360" vertex="1">
          <mxGeometry width="30" height="30" as="geometry">
            <mxRectangle width="30" height="30" as="alternateBounds" />
          </mxGeometry>
        </mxCell>
        <mxCell id="au4fLTNO0eDFEzKA2mFN-362" value="id (INT, PRIMARY KEY, AUTO_INCREMENT, NOT NULL)" style="shape=partialRectangle;overflow=hidden;connectable=0;fillColor=none;top=0;left=0;bottom=0;right=0;align=left;spacingLeft=6;fontStyle=5;" parent="au4fLTNO0eDFEzKA2mFN-360" vertex="1">
          <mxGeometry x="30" width="400" height="30" as="geometry">
            <mxRectangle width="400" height="30" as="alternateBounds" />
          </mxGeometry>
        </mxCell>
        <mxCell id="au4fLTNO0eDFEzKA2mFN-363" value="" style="shape=partialRectangle;collapsible=0;dropTarget=0;pointerEvents=0;fillColor=none;points=[[0,0.5],[1,0.5]];portConstraint=eastwest;top=0;left=0;right=0;bottom=0;" parent="au4fLTNO0eDFEzKA2mFN-359" vertex="1">
          <mxGeometry y="60" width="430" height="30" as="geometry" />
        </mxCell>
        <mxCell id="au4fLTNO0eDFEzKA2mFN-364" value="FK1" style="shape=partialRectangle;overflow=hidden;connectable=0;fillColor=none;top=0;left=0;bottom=0;right=0;" parent="au4fLTNO0eDFEzKA2mFN-363" vertex="1">
          <mxGeometry width="30" height="30" as="geometry">
            <mxRectangle width="30" height="30" as="alternateBounds" />
          </mxGeometry>
        </mxCell>
        <mxCell id="au4fLTNO0eDFEzKA2mFN-365" value="user_id (UUID, FOREIGN KEY to Users, NOT NULL)" style="shape=partialRectangle;overflow=hidden;connectable=0;fillColor=none;top=0;left=0;bottom=0;right=0;align=left;spacingLeft=6;" parent="au4fLTNO0eDFEzKA2mFN-363" vertex="1">
          <mxGeometry x="30" width="400" height="30" as="geometry">
            <mxRectangle width="400" height="30" as="alternateBounds" />
          </mxGeometry>
        </mxCell>
        <mxCell id="au4fLTNO0eDFEzKA2mFN-366" style="shape=partialRectangle;collapsible=0;dropTarget=0;pointerEvents=0;fillColor=none;points=[[0,0.5],[1,0.5]];portConstraint=eastwest;top=0;left=0;right=0;bottom=0;" parent="au4fLTNO0eDFEzKA2mFN-359" vertex="1">
          <mxGeometry y="90" width="430" height="30" as="geometry" />
        </mxCell>
        <mxCell id="au4fLTNO0eDFEzKA2mFN-367" style="shape=partialRectangle;overflow=hidden;connectable=0;fillColor=none;top=0;left=0;bottom=0;right=0;" parent="au4fLTNO0eDFEzKA2mFN-366" vertex="1">
          <mxGeometry width="30" height="30" as="geometry">
            <mxRectangle width="30" height="30" as="alternateBounds" />
          </mxGeometry>
        </mxCell>
        <mxCell id="au4fLTNO0eDFEzKA2mFN-368" value="method (ENUM(&#39;totp&#39;, &#39;email&#39;), NOT NULL)" style="shape=partialRectangle;overflow=hidden;connectable=0;fillColor=none;top=0;left=0;bottom=0;right=0;align=left;spacingLeft=6;" parent="au4fLTNO0eDFEzKA2mFN-366" vertex="1">
          <mxGeometry x="30" width="400" height="30" as="geometry">
            <mxRectangle width="400" height="30" as="alternateBounds" />
          </mxGeometry>
        </mxCell>
        <mxCell id="au4fLTNO0eDFEzKA2mFN-369" style="shape=partialRectangle;collapsible=0;dropTarget=0;pointerEvents=0;fillColor=none;points=[[0,0.5],[1,0.5]];portConstraint=eastwest;top=0;left=0;right=0;bottom=0;" parent="au4fLTNO0eDFEzKA2mFN-359" vertex="1">
          <mxGeometry y="120" width="430" height="30" as="geometry" />
        </mxCell>
        <mxCell id="au4fLTNO0eDFEzKA2mFN-370" style="shape=partialRectangle;overflow=hidden;connectable=0;fillColor=none;top=0;left=0;bottom=0;right=0;" parent="au4fLTNO0eDFEzKA2mFN-369" vertex="1">
          <mxGeometry width="30" height="30" as="geometry">
            <mxRectangle width="30" height="30" as="alternateBounds" />
          </mxGeometry>
        </mxCell>
        <mxCell id="au4fLTNO0eDFEzKA2mFN-371" value="secret (VARCHAR(255), NOT NULL) -- TOTP-Secret or E-Mail-Code" style="shape=partialRectangle;overflow=hidden;connectable=0;fillColor=none;top=0;left=0;bottom=0;right=0;align=left;spacingLeft=6;" parent="au4fLTNO0eDFEzKA2mFN-369" vertex="1">
          <mxGeometry x="30" width="400" height="30" as="geometry">
            <mxRectangle width="400" height="30" as="alternateBounds" />
          </mxGeometry>
        </mxCell>
        <mxCell id="au4fLTNO0eDFEzKA2mFN-372" style="shape=partialRectangle;collapsible=0;dropTarget=0;pointerEvents=0;fillColor=none;points=[[0,0.5],[1,0.5]];portConstraint=eastwest;top=0;left=0;right=0;bottom=0;" parent="au4fLTNO0eDFEzKA2mFN-359" vertex="1">
          <mxGeometry y="150" width="430" height="30" as="geometry" />
        </mxCell>
        <mxCell id="au4fLTNO0eDFEzKA2mFN-373" style="shape=partialRectangle;overflow=hidden;connectable=0;fillColor=none;top=0;left=0;bottom=0;right=0;" parent="au4fLTNO0eDFEzKA2mFN-372" vertex="1">
          <mxGeometry width="30" height="30" as="geometry">
            <mxRectangle width="30" height="30" as="alternateBounds" />
          </mxGeometry>
        </mxCell>
        <mxCell id="au4fLTNO0eDFEzKA2mFN-374" value="email (VARCHAR(100), NULLABLE) -- Only for E-Mail-based 2FA" style="shape=partialRectangle;overflow=hidden;connectable=0;fillColor=none;top=0;left=0;bottom=0;right=0;align=left;spacingLeft=6;" parent="au4fLTNO0eDFEzKA2mFN-372" vertex="1">
          <mxGeometry x="30" width="400" height="30" as="geometry">
            <mxRectangle width="400" height="30" as="alternateBounds" />
          </mxGeometry>
        </mxCell>
        <mxCell id="au4fLTNO0eDFEzKA2mFN-375" style="shape=partialRectangle;collapsible=0;dropTarget=0;pointerEvents=0;fillColor=none;points=[[0,0.5],[1,0.5]];portConstraint=eastwest;top=0;left=0;right=0;bottom=0;" parent="au4fLTNO0eDFEzKA2mFN-359" vertex="1">
          <mxGeometry y="180" width="430" height="30" as="geometry" />
        </mxCell>
        <mxCell id="au4fLTNO0eDFEzKA2mFN-376" style="shape=partialRectangle;overflow=hidden;connectable=0;fillColor=none;top=0;left=0;bottom=0;right=0;" parent="au4fLTNO0eDFEzKA2mFN-375" vertex="1">
          <mxGeometry width="30" height="30" as="geometry">
            <mxRectangle width="30" height="30" as="alternateBounds" />
          </mxGeometry>
        </mxCell>
        <mxCell id="au4fLTNO0eDFEzKA2mFN-377" value="created_at (DATETIME, DEFAULT CURRENT_TIMESTAMP, NOT NULL)" style="shape=partialRectangle;overflow=hidden;connectable=0;fillColor=none;top=0;left=0;bottom=0;right=0;align=left;spacingLeft=6;" parent="au4fLTNO0eDFEzKA2mFN-375" vertex="1">
          <mxGeometry x="30" width="400" height="30" as="geometry">
            <mxRectangle width="400" height="30" as="alternateBounds" />
          </mxGeometry>
        </mxCell>
        <mxCell id="au4fLTNO0eDFEzKA2mFN-378" value="UserPasskeys" style="shape=table;startSize=30;container=1;collapsible=1;childLayout=tableLayout;fixedRows=1;rowLines=0;fontStyle=1;align=center;resizeLast=1;fillColor=#a20025;fontColor=#ffffff;strokeColor=#6F0000;" parent="1" vertex="1">
          <mxGeometry x="-865" y="1040" width="640" height="250" as="geometry" />
        </mxCell>
        <mxCell id="au4fLTNO0eDFEzKA2mFN-379" value="" style="shape=partialRectangle;collapsible=0;dropTarget=0;pointerEvents=0;fillColor=none;points=[[0,0.5],[1,0.5]];portConstraint=eastwest;top=0;left=0;right=0;bottom=1;" parent="au4fLTNO0eDFEzKA2mFN-378" vertex="1">
          <mxGeometry y="30" width="640" height="30" as="geometry" />
        </mxCell>
        <mxCell id="au4fLTNO0eDFEzKA2mFN-380" value="PK" style="shape=partialRectangle;overflow=hidden;connectable=0;fillColor=none;top=0;left=0;bottom=0;right=0;fontStyle=1;" parent="au4fLTNO0eDFEzKA2mFN-379" vertex="1">
          <mxGeometry width="30" height="30" as="geometry">
            <mxRectangle width="30" height="30" as="alternateBounds" />
          </mxGeometry>
        </mxCell>
        <mxCell id="au4fLTNO0eDFEzKA2mFN-381" value="id (INT, PRIMARY KEY, AUTO_INCREMENT, NOT NULL)" style="shape=partialRectangle;overflow=hidden;connectable=0;fillColor=none;top=0;left=0;bottom=0;right=0;align=left;spacingLeft=6;fontStyle=5;" parent="au4fLTNO0eDFEzKA2mFN-379" vertex="1">
          <mxGeometry x="30" width="610" height="30" as="geometry">
            <mxRectangle width="610" height="30" as="alternateBounds" />
          </mxGeometry>
        </mxCell>
        <mxCell id="au4fLTNO0eDFEzKA2mFN-382" value="" style="shape=partialRectangle;collapsible=0;dropTarget=0;pointerEvents=0;fillColor=none;points=[[0,0.5],[1,0.5]];portConstraint=eastwest;top=0;left=0;right=0;bottom=0;" parent="au4fLTNO0eDFEzKA2mFN-378" vertex="1">
          <mxGeometry y="60" width="640" height="30" as="geometry" />
        </mxCell>
        <mxCell id="au4fLTNO0eDFEzKA2mFN-383" value="FK1" style="shape=partialRectangle;overflow=hidden;connectable=0;fillColor=none;top=0;left=0;bottom=0;right=0;" parent="au4fLTNO0eDFEzKA2mFN-382" vertex="1">
          <mxGeometry width="30" height="30" as="geometry">
            <mxRectangle width="30" height="30" as="alternateBounds" />
          </mxGeometry>
        </mxCell>
        <mxCell id="au4fLTNO0eDFEzKA2mFN-384" value="user_id (UUID, FOREIGN KEY zu Users, NOT NULL)" style="shape=partialRectangle;overflow=hidden;connectable=0;fillColor=none;top=0;left=0;bottom=0;right=0;align=left;spacingLeft=6;" parent="au4fLTNO0eDFEzKA2mFN-382" vertex="1">
          <mxGeometry x="30" width="610" height="30" as="geometry">
            <mxRectangle width="610" height="30" as="alternateBounds" />
          </mxGeometry>
        </mxCell>
        <mxCell id="au4fLTNO0eDFEzKA2mFN-385" style="shape=partialRectangle;collapsible=0;dropTarget=0;pointerEvents=0;fillColor=none;points=[[0,0.5],[1,0.5]];portConstraint=eastwest;top=0;left=0;right=0;bottom=0;" parent="au4fLTNO0eDFEzKA2mFN-378" vertex="1">
          <mxGeometry y="90" width="640" height="30" as="geometry" />
        </mxCell>
        <mxCell id="au4fLTNO0eDFEzKA2mFN-386" style="shape=partialRectangle;overflow=hidden;connectable=0;fillColor=none;top=0;left=0;bottom=0;right=0;" parent="au4fLTNO0eDFEzKA2mFN-385" vertex="1">
          <mxGeometry width="30" height="30" as="geometry">
            <mxRectangle width="30" height="30" as="alternateBounds" />
          </mxGeometry>
        </mxCell>
        <mxCell id="au4fLTNO0eDFEzKA2mFN-387" value="credential_id (VARCHAR(255), UNIQUE, NOT NULL) -- Identifier generated by WebAuthn" style="shape=partialRectangle;overflow=hidden;connectable=0;fillColor=none;top=0;left=0;bottom=0;right=0;align=left;spacingLeft=6;" parent="au4fLTNO0eDFEzKA2mFN-385" vertex="1">
          <mxGeometry x="30" width="610" height="30" as="geometry">
            <mxRectangle width="610" height="30" as="alternateBounds" />
          </mxGeometry>
        </mxCell>
        <mxCell id="au4fLTNO0eDFEzKA2mFN-388" style="shape=partialRectangle;collapsible=0;dropTarget=0;pointerEvents=0;fillColor=none;points=[[0,0.5],[1,0.5]];portConstraint=eastwest;top=0;left=0;right=0;bottom=0;" parent="au4fLTNO0eDFEzKA2mFN-378" vertex="1">
          <mxGeometry y="120" width="640" height="30" as="geometry" />
        </mxCell>
        <mxCell id="au4fLTNO0eDFEzKA2mFN-389" style="shape=partialRectangle;overflow=hidden;connectable=0;fillColor=none;top=0;left=0;bottom=0;right=0;" parent="au4fLTNO0eDFEzKA2mFN-388" vertex="1">
          <mxGeometry width="30" height="30" as="geometry">
            <mxRectangle width="30" height="30" as="alternateBounds" />
          </mxGeometry>
        </mxCell>
        <mxCell id="au4fLTNO0eDFEzKA2mFN-390" value="public_key (TEXT, NOT NULL) -- Public key for passkey" style="shape=partialRectangle;overflow=hidden;connectable=0;fillColor=none;top=0;left=0;bottom=0;right=0;align=left;spacingLeft=6;" parent="au4fLTNO0eDFEzKA2mFN-388" vertex="1">
          <mxGeometry x="30" width="610" height="30" as="geometry">
            <mxRectangle width="610" height="30" as="alternateBounds" />
          </mxGeometry>
        </mxCell>
        <mxCell id="au4fLTNO0eDFEzKA2mFN-391" style="shape=partialRectangle;collapsible=0;dropTarget=0;pointerEvents=0;fillColor=none;points=[[0,0.5],[1,0.5]];portConstraint=eastwest;top=0;left=0;right=0;bottom=0;" parent="au4fLTNO0eDFEzKA2mFN-378" vertex="1">
          <mxGeometry y="150" width="640" height="30" as="geometry" />
        </mxCell>
        <mxCell id="au4fLTNO0eDFEzKA2mFN-392" style="shape=partialRectangle;overflow=hidden;connectable=0;fillColor=none;top=0;left=0;bottom=0;right=0;" parent="au4fLTNO0eDFEzKA2mFN-391" vertex="1">
          <mxGeometry width="30" height="30" as="geometry">
            <mxRectangle width="30" height="30" as="alternateBounds" />
          </mxGeometry>
        </mxCell>
        <mxCell id="au4fLTNO0eDFEzKA2mFN-393" value="sign_count (INT, NOT NULL) -- Counter for replay protection" style="shape=partialRectangle;overflow=hidden;connectable=0;fillColor=none;top=0;left=0;bottom=0;right=0;align=left;spacingLeft=6;" parent="au4fLTNO0eDFEzKA2mFN-391" vertex="1">
          <mxGeometry x="30" width="610" height="30" as="geometry">
            <mxRectangle width="610" height="30" as="alternateBounds" />
          </mxGeometry>
        </mxCell>
        <mxCell id="au4fLTNO0eDFEzKA2mFN-394" style="shape=partialRectangle;collapsible=0;dropTarget=0;pointerEvents=0;fillColor=none;points=[[0,0.5],[1,0.5]];portConstraint=eastwest;top=0;left=0;right=0;bottom=0;" parent="au4fLTNO0eDFEzKA2mFN-378" vertex="1">
          <mxGeometry y="180" width="640" height="30" as="geometry" />
        </mxCell>
        <mxCell id="au4fLTNO0eDFEzKA2mFN-395" style="shape=partialRectangle;overflow=hidden;connectable=0;fillColor=none;top=0;left=0;bottom=0;right=0;" parent="au4fLTNO0eDFEzKA2mFN-394" vertex="1">
          <mxGeometry width="30" height="30" as="geometry">
            <mxRectangle width="30" height="30" as="alternateBounds" />
          </mxGeometry>
        </mxCell>
        <mxCell id="au4fLTNO0eDFEzKA2mFN-396" value="device_name (VARCHAR(100), NULLABLE)" style="shape=partialRectangle;overflow=hidden;connectable=0;fillColor=none;top=0;left=0;bottom=0;right=0;align=left;spacingLeft=6;" parent="au4fLTNO0eDFEzKA2mFN-394" vertex="1">
          <mxGeometry x="30" width="610" height="30" as="geometry">
            <mxRectangle width="610" height="30" as="alternateBounds" />
          </mxGeometry>
        </mxCell>
        <mxCell id="au4fLTNO0eDFEzKA2mFN-397" style="shape=partialRectangle;collapsible=0;dropTarget=0;pointerEvents=0;fillColor=none;points=[[0,0.5],[1,0.5]];portConstraint=eastwest;top=0;left=0;right=0;bottom=0;" parent="au4fLTNO0eDFEzKA2mFN-378" vertex="1">
          <mxGeometry y="210" width="640" height="30" as="geometry" />
        </mxCell>
        <mxCell id="au4fLTNO0eDFEzKA2mFN-398" style="shape=partialRectangle;overflow=hidden;connectable=0;fillColor=none;top=0;left=0;bottom=0;right=0;" parent="au4fLTNO0eDFEzKA2mFN-397" vertex="1">
          <mxGeometry width="30" height="30" as="geometry">
            <mxRectangle width="30" height="30" as="alternateBounds" />
          </mxGeometry>
        </mxCell>
        <mxCell id="au4fLTNO0eDFEzKA2mFN-399" value="created_at (DATETIME, DEFAULT CURRENT_TIMESTAMP, NOT NULL)" style="shape=partialRectangle;overflow=hidden;connectable=0;fillColor=none;top=0;left=0;bottom=0;right=0;align=left;spacingLeft=6;" parent="au4fLTNO0eDFEzKA2mFN-397" vertex="1">
          <mxGeometry x="30" width="610" height="30" as="geometry">
            <mxRectangle width="610" height="30" as="alternateBounds" />
          </mxGeometry>
        </mxCell>
        <mxCell id="au4fLTNO0eDFEzKA2mFN-400" value="AuthenticationLogs" style="shape=table;startSize=30;container=1;collapsible=1;childLayout=tableLayout;fixedRows=1;rowLines=0;fontStyle=1;align=center;resizeLast=1;fillColor=#d80073;fontColor=#ffffff;strokeColor=#A50040;" parent="1" vertex="1">
          <mxGeometry x="-865" y="630" width="640" height="220" as="geometry" />
        </mxCell>
        <mxCell id="au4fLTNO0eDFEzKA2mFN-401" value="" style="shape=partialRectangle;collapsible=0;dropTarget=0;pointerEvents=0;fillColor=none;points=[[0,0.5],[1,0.5]];portConstraint=eastwest;top=0;left=0;right=0;bottom=1;" parent="au4fLTNO0eDFEzKA2mFN-400" vertex="1">
          <mxGeometry y="30" width="640" height="30" as="geometry" />
        </mxCell>
        <mxCell id="au4fLTNO0eDFEzKA2mFN-402" value="PK" style="shape=partialRectangle;overflow=hidden;connectable=0;fillColor=none;top=0;left=0;bottom=0;right=0;fontStyle=1;" parent="au4fLTNO0eDFEzKA2mFN-401" vertex="1">
          <mxGeometry width="30" height="30" as="geometry">
            <mxRectangle width="30" height="30" as="alternateBounds" />
          </mxGeometry>
        </mxCell>
        <mxCell id="au4fLTNO0eDFEzKA2mFN-403" value="id (INT, PRIMARY KEY, AUTO_INCREMENT, NOT NULL)" style="shape=partialRectangle;overflow=hidden;connectable=0;fillColor=none;top=0;left=0;bottom=0;right=0;align=left;spacingLeft=6;fontStyle=5;" parent="au4fLTNO0eDFEzKA2mFN-401" vertex="1">
          <mxGeometry x="30" width="610" height="30" as="geometry">
            <mxRectangle width="610" height="30" as="alternateBounds" />
          </mxGeometry>
        </mxCell>
        <mxCell id="au4fLTNO0eDFEzKA2mFN-404" value="" style="shape=partialRectangle;collapsible=0;dropTarget=0;pointerEvents=0;fillColor=none;points=[[0,0.5],[1,0.5]];portConstraint=eastwest;top=0;left=0;right=0;bottom=0;" parent="au4fLTNO0eDFEzKA2mFN-400" vertex="1">
          <mxGeometry y="60" width="640" height="30" as="geometry" />
        </mxCell>
        <mxCell id="au4fLTNO0eDFEzKA2mFN-405" value="FK1" style="shape=partialRectangle;overflow=hidden;connectable=0;fillColor=none;top=0;left=0;bottom=0;right=0;" parent="au4fLTNO0eDFEzKA2mFN-404" vertex="1">
          <mxGeometry width="30" height="30" as="geometry">
            <mxRectangle width="30" height="30" as="alternateBounds" />
          </mxGeometry>
        </mxCell>
        <mxCell id="au4fLTNO0eDFEzKA2mFN-406" value="user_id (UUID, FOREIGN KEY to Users, NOT NULL)" style="shape=partialRectangle;overflow=hidden;connectable=0;fillColor=none;top=0;left=0;bottom=0;right=0;align=left;spacingLeft=6;" parent="au4fLTNO0eDFEzKA2mFN-404" vertex="1">
          <mxGeometry x="30" width="610" height="30" as="geometry">
            <mxRectangle width="610" height="30" as="alternateBounds" />
          </mxGeometry>
        </mxCell>
        <mxCell id="au4fLTNO0eDFEzKA2mFN-407" style="shape=partialRectangle;collapsible=0;dropTarget=0;pointerEvents=0;fillColor=none;points=[[0,0.5],[1,0.5]];portConstraint=eastwest;top=0;left=0;right=0;bottom=0;" parent="au4fLTNO0eDFEzKA2mFN-400" vertex="1">
          <mxGeometry y="90" width="640" height="30" as="geometry" />
        </mxCell>
        <mxCell id="au4fLTNO0eDFEzKA2mFN-408" style="shape=partialRectangle;overflow=hidden;connectable=0;fillColor=none;top=0;left=0;bottom=0;right=0;" parent="au4fLTNO0eDFEzKA2mFN-407" vertex="1">
          <mxGeometry width="30" height="30" as="geometry">
            <mxRectangle width="30" height="30" as="alternateBounds" />
          </mxGeometry>
        </mxCell>
        <mxCell id="au4fLTNO0eDFEzKA2mFN-409" value="method (ENUM(&#39;password&#39;, &#39;totp&#39;, &#39;email&#39;, &#39;passkey&#39;), NOT NULL) -- Login method used" style="shape=partialRectangle;overflow=hidden;connectable=0;fillColor=none;top=0;left=0;bottom=0;right=0;align=left;spacingLeft=6;" parent="au4fLTNO0eDFEzKA2mFN-407" vertex="1">
          <mxGeometry x="30" width="610" height="30" as="geometry">
            <mxRectangle width="610" height="30" as="alternateBounds" />
          </mxGeometry>
        </mxCell>
        <mxCell id="au4fLTNO0eDFEzKA2mFN-410" style="shape=partialRectangle;collapsible=0;dropTarget=0;pointerEvents=0;fillColor=none;points=[[0,0.5],[1,0.5]];portConstraint=eastwest;top=0;left=0;right=0;bottom=0;" parent="au4fLTNO0eDFEzKA2mFN-400" vertex="1">
          <mxGeometry y="120" width="640" height="30" as="geometry" />
        </mxCell>
        <mxCell id="au4fLTNO0eDFEzKA2mFN-411" style="shape=partialRectangle;overflow=hidden;connectable=0;fillColor=none;top=0;left=0;bottom=0;right=0;" parent="au4fLTNO0eDFEzKA2mFN-410" vertex="1">
          <mxGeometry width="30" height="30" as="geometry">
            <mxRectangle width="30" height="30" as="alternateBounds" />
          </mxGeometry>
        </mxCell>
        <mxCell id="au4fLTNO0eDFEzKA2mFN-412" value="ip_address (VARCHAR(45), NOT NULL) " style="shape=partialRectangle;overflow=hidden;connectable=0;fillColor=none;top=0;left=0;bottom=0;right=0;align=left;spacingLeft=6;" parent="au4fLTNO0eDFEzKA2mFN-410" vertex="1">
          <mxGeometry x="30" width="610" height="30" as="geometry">
            <mxRectangle width="610" height="30" as="alternateBounds" />
          </mxGeometry>
        </mxCell>
        <mxCell id="au4fLTNO0eDFEzKA2mFN-413" style="shape=partialRectangle;collapsible=0;dropTarget=0;pointerEvents=0;fillColor=none;points=[[0,0.5],[1,0.5]];portConstraint=eastwest;top=0;left=0;right=0;bottom=0;" parent="au4fLTNO0eDFEzKA2mFN-400" vertex="1">
          <mxGeometry y="150" width="640" height="30" as="geometry" />
        </mxCell>
        <mxCell id="au4fLTNO0eDFEzKA2mFN-414" style="shape=partialRectangle;overflow=hidden;connectable=0;fillColor=none;top=0;left=0;bottom=0;right=0;" parent="au4fLTNO0eDFEzKA2mFN-413" vertex="1">
          <mxGeometry width="30" height="30" as="geometry">
            <mxRectangle width="30" height="30" as="alternateBounds" />
          </mxGeometry>
        </mxCell>
        <mxCell id="au4fLTNO0eDFEzKA2mFN-415" value="status (ENUM(&#39;success&#39;, &#39;failure&#39;), NOT NULL)" style="shape=partialRectangle;overflow=hidden;connectable=0;fillColor=none;top=0;left=0;bottom=0;right=0;align=left;spacingLeft=6;" parent="au4fLTNO0eDFEzKA2mFN-413" vertex="1">
          <mxGeometry x="30" width="610" height="30" as="geometry">
            <mxRectangle width="610" height="30" as="alternateBounds" />
          </mxGeometry>
        </mxCell>
        <mxCell id="au4fLTNO0eDFEzKA2mFN-416" style="shape=partialRectangle;collapsible=0;dropTarget=0;pointerEvents=0;fillColor=none;points=[[0,0.5],[1,0.5]];portConstraint=eastwest;top=0;left=0;right=0;bottom=0;" parent="au4fLTNO0eDFEzKA2mFN-400" vertex="1">
          <mxGeometry y="180" width="640" height="30" as="geometry" />
        </mxCell>
        <mxCell id="au4fLTNO0eDFEzKA2mFN-417" style="shape=partialRectangle;overflow=hidden;connectable=0;fillColor=none;top=0;left=0;bottom=0;right=0;" parent="au4fLTNO0eDFEzKA2mFN-416" vertex="1">
          <mxGeometry width="30" height="30" as="geometry">
            <mxRectangle width="30" height="30" as="alternateBounds" />
          </mxGeometry>
        </mxCell>
        <mxCell id="au4fLTNO0eDFEzKA2mFN-418" value="timestamp (DATETIME, DEFAULT CURRENT_TIMESTAMP, NOT NULL)" style="shape=partialRectangle;overflow=hidden;connectable=0;fillColor=none;top=0;left=0;bottom=0;right=0;align=left;spacingLeft=6;" parent="au4fLTNO0eDFEzKA2mFN-416" vertex="1">
          <mxGeometry x="30" width="610" height="30" as="geometry">
            <mxRectangle width="610" height="30" as="alternateBounds" />
          </mxGeometry>
        </mxCell>
        <mxCell id="au4fLTNO0eDFEzKA2mFN-423" value="AuditLogs" style="shape=table;startSize=30;container=1;collapsible=1;childLayout=tableLayout;fixedRows=1;rowLines=0;fontStyle=1;align=center;resizeLast=1;fillColor=#d80073;fontColor=#ffffff;strokeColor=#A50040;" parent="1" vertex="1">
          <mxGeometry x="-865" y="865" width="640" height="160" as="geometry" />
        </mxCell>
        <mxCell id="au4fLTNO0eDFEzKA2mFN-424" value="" style="shape=partialRectangle;collapsible=0;dropTarget=0;pointerEvents=0;fillColor=none;points=[[0,0.5],[1,0.5]];portConstraint=eastwest;top=0;left=0;right=0;bottom=1;" parent="au4fLTNO0eDFEzKA2mFN-423" vertex="1">
          <mxGeometry y="30" width="640" height="30" as="geometry" />
        </mxCell>
        <mxCell id="au4fLTNO0eDFEzKA2mFN-425" value="PK" style="shape=partialRectangle;overflow=hidden;connectable=0;fillColor=none;top=0;left=0;bottom=0;right=0;fontStyle=1;" parent="au4fLTNO0eDFEzKA2mFN-424" vertex="1">
          <mxGeometry width="30" height="30" as="geometry">
            <mxRectangle width="30" height="30" as="alternateBounds" />
          </mxGeometry>
        </mxCell>
        <mxCell id="au4fLTNO0eDFEzKA2mFN-426" value="id (INT, PRIMARY KEY, AUTO_INCREMENT, NOT NULL)" style="shape=partialRectangle;overflow=hidden;connectable=0;fillColor=none;top=0;left=0;bottom=0;right=0;align=left;spacingLeft=6;fontStyle=5;" parent="au4fLTNO0eDFEzKA2mFN-424" vertex="1">
          <mxGeometry x="30" width="610" height="30" as="geometry">
            <mxRectangle width="610" height="30" as="alternateBounds" />
          </mxGeometry>
        </mxCell>
        <mxCell id="au4fLTNO0eDFEzKA2mFN-427" value="" style="shape=partialRectangle;collapsible=0;dropTarget=0;pointerEvents=0;fillColor=none;points=[[0,0.5],[1,0.5]];portConstraint=eastwest;top=0;left=0;right=0;bottom=0;" parent="au4fLTNO0eDFEzKA2mFN-423" vertex="1">
          <mxGeometry y="60" width="640" height="30" as="geometry" />
        </mxCell>
        <mxCell id="au4fLTNO0eDFEzKA2mFN-428" value="FK1" style="shape=partialRectangle;overflow=hidden;connectable=0;fillColor=none;top=0;left=0;bottom=0;right=0;" parent="au4fLTNO0eDFEzKA2mFN-427" vertex="1">
          <mxGeometry width="30" height="30" as="geometry">
            <mxRectangle width="30" height="30" as="alternateBounds" />
          </mxGeometry>
        </mxCell>
        <mxCell id="au4fLTNO0eDFEzKA2mFN-429" value="user_id (UUID, FOREIGN KEY to Users, NOT NULL)" style="shape=partialRectangle;overflow=hidden;connectable=0;fillColor=none;top=0;left=0;bottom=0;right=0;align=left;spacingLeft=6;" parent="au4fLTNO0eDFEzKA2mFN-427" vertex="1">
          <mxGeometry x="30" width="610" height="30" as="geometry">
            <mxRectangle width="610" height="30" as="alternateBounds" />
          </mxGeometry>
        </mxCell>
        <mxCell id="au4fLTNO0eDFEzKA2mFN-430" style="shape=partialRectangle;collapsible=0;dropTarget=0;pointerEvents=0;fillColor=none;points=[[0,0.5],[1,0.5]];portConstraint=eastwest;top=0;left=0;right=0;bottom=0;" parent="au4fLTNO0eDFEzKA2mFN-423" vertex="1">
          <mxGeometry y="90" width="640" height="30" as="geometry" />
        </mxCell>
        <mxCell id="au4fLTNO0eDFEzKA2mFN-431" style="shape=partialRectangle;overflow=hidden;connectable=0;fillColor=none;top=0;left=0;bottom=0;right=0;" parent="au4fLTNO0eDFEzKA2mFN-430" vertex="1">
          <mxGeometry width="30" height="30" as="geometry">
            <mxRectangle width="30" height="30" as="alternateBounds" />
          </mxGeometry>
        </mxCell>
        <mxCell id="au4fLTNO0eDFEzKA2mFN-432" value="action (TEXT, NOT NULL) -- Description of the action (e.g. “Course booking”, “Login”)" style="shape=partialRectangle;overflow=hidden;connectable=0;fillColor=none;top=0;left=0;bottom=0;right=0;align=left;spacingLeft=6;" parent="au4fLTNO0eDFEzKA2mFN-430" vertex="1">
          <mxGeometry x="30" width="610" height="30" as="geometry">
            <mxRectangle width="610" height="30" as="alternateBounds" />
          </mxGeometry>
        </mxCell>
        <mxCell id="au4fLTNO0eDFEzKA2mFN-433" style="shape=partialRectangle;collapsible=0;dropTarget=0;pointerEvents=0;fillColor=none;points=[[0,0.5],[1,0.5]];portConstraint=eastwest;top=0;left=0;right=0;bottom=0;" parent="au4fLTNO0eDFEzKA2mFN-423" vertex="1">
          <mxGeometry y="120" width="640" height="30" as="geometry" />
        </mxCell>
        <mxCell id="au4fLTNO0eDFEzKA2mFN-434" style="shape=partialRectangle;overflow=hidden;connectable=0;fillColor=none;top=0;left=0;bottom=0;right=0;" parent="au4fLTNO0eDFEzKA2mFN-433" vertex="1">
          <mxGeometry width="30" height="30" as="geometry">
            <mxRectangle width="30" height="30" as="alternateBounds" />
          </mxGeometry>
        </mxCell>
        <mxCell id="au4fLTNO0eDFEzKA2mFN-435" value="timestamp (DATETIME, DEFAULT CURRENT_TIMESTAMP, NOT NULL)" style="shape=partialRectangle;overflow=hidden;connectable=0;fillColor=none;top=0;left=0;bottom=0;right=0;align=left;spacingLeft=6;" parent="au4fLTNO0eDFEzKA2mFN-433" vertex="1">
          <mxGeometry x="30" width="610" height="30" as="geometry">
            <mxRectangle width="610" height="30" as="alternateBounds" />
          </mxGeometry>
        </mxCell>
        <mxCell id="au4fLTNO0eDFEzKA2mFN-443" value="" style="edgeStyle=orthogonalEdgeStyle;endArrow=ERzeroToMany;startArrow=ERone;endFill=1;startFill=0;entryX=1;entryY=0.5;entryDx=0;entryDy=0;exitX=0;exitY=0.5;exitDx=0;exitDy=0;" parent="1" source="au4fLTNO0eDFEzKA2mFN-281" target="au4fLTNO0eDFEzKA2mFN-260" edge="1">
          <mxGeometry width="100" height="100" relative="1" as="geometry">
            <mxPoint x="-2220" y="920" as="sourcePoint" />
            <mxPoint x="-2310" y="1290" as="targetPoint" />
            <Array as="points">
              <mxPoint x="-1460" y="295" />
              <mxPoint x="-1460" y="505" />
            </Array>
          </mxGeometry>
        </mxCell>
        <mxCell id="au4fLTNO0eDFEzKA2mFN-444" value="" style="edgeStyle=orthogonalEdgeStyle;endArrow=ERone;startArrow=ERone;endFill=0;startFill=0;exitX=0;exitY=0.5;exitDx=0;exitDy=0;entryX=1;entryY=0.5;entryDx=0;entryDy=0;" parent="1" source="au4fLTNO0eDFEzKA2mFN-77" target="au4fLTNO0eDFEzKA2mFN-251" edge="1">
          <mxGeometry width="100" height="100" relative="1" as="geometry">
            <mxPoint x="-2820" y="885" as="sourcePoint" />
            <mxPoint x="-2780" y="885" as="targetPoint" />
            <Array as="points">
              <mxPoint x="-1480" y="-95" />
              <mxPoint x="-1480" y="415" />
            </Array>
          </mxGeometry>
        </mxCell>
        <mxCell id="au4fLTNO0eDFEzKA2mFN-445" value="" style="edgeStyle=orthogonalEdgeStyle;endArrow=ERzeroToMany;startArrow=ERone;endFill=1;startFill=0;entryX=1;entryY=0.5;entryDx=0;entryDy=0;exitX=0;exitY=0.5;exitDx=0;exitDy=0;" parent="1" source="au4fLTNO0eDFEzKA2mFN-30" target="au4fLTNO0eDFEzKA2mFN-284" edge="1">
          <mxGeometry width="100" height="100" relative="1" as="geometry">
            <mxPoint x="-1430" y="305" as="sourcePoint" />
            <mxPoint x="-1490" y="515" as="targetPoint" />
            <Array as="points">
              <mxPoint x="-910" y="265" />
              <mxPoint x="-910" y="325" />
            </Array>
          </mxGeometry>
        </mxCell>
        <mxCell id="au4fLTNO0eDFEzKA2mFN-446" value="" style="edgeStyle=orthogonalEdgeStyle;endArrow=ERzeroToMany;startArrow=ERone;endFill=1;startFill=0;entryX=0;entryY=0.5;entryDx=0;entryDy=0;exitX=1;exitY=0.5;exitDx=0;exitDy=0;" parent="1" source="au4fLTNO0eDFEzKA2mFN-316" target="au4fLTNO0eDFEzKA2mFN-329" edge="1">
          <mxGeometry width="100" height="100" relative="1" as="geometry">
            <mxPoint x="-980" y="850" as="sourcePoint" />
            <mxPoint x="-1105" y="730" as="targetPoint" />
            <Array as="points" />
          </mxGeometry>
        </mxCell>
        <mxCell id="au4fLTNO0eDFEzKA2mFN-447" value="" style="edgeStyle=orthogonalEdgeStyle;endArrow=ERzeroToMany;startArrow=ERone;endFill=1;startFill=0;entryX=1;entryY=0.5;entryDx=0;entryDy=0;exitX=0;exitY=0.5;exitDx=0;exitDy=0;" parent="1" source="au4fLTNO0eDFEzKA2mFN-30" target="au4fLTNO0eDFEzKA2mFN-326" edge="1">
          <mxGeometry width="100" height="100" relative="1" as="geometry">
            <mxPoint x="-1000" y="825" as="sourcePoint" />
            <mxPoint x="-950" y="825" as="targetPoint" />
            <Array as="points">
              <mxPoint x="-910" y="265" />
              <mxPoint x="-910" y="685" />
            </Array>
          </mxGeometry>
        </mxCell>
        <mxCell id="au4fLTNO0eDFEzKA2mFN-448" value="" style="edgeStyle=orthogonalEdgeStyle;endArrow=ERzeroToMany;startArrow=ERone;endFill=1;startFill=0;entryX=1;entryY=0.5;entryDx=0;entryDy=0;exitX=0;exitY=0.5;exitDx=0;exitDy=0;" parent="1" source="au4fLTNO0eDFEzKA2mFN-30" target="au4fLTNO0eDFEzKA2mFN-346" edge="1">
          <mxGeometry width="100" height="100" relative="1" as="geometry">
            <mxPoint x="-855" y="275" as="sourcePoint" />
            <mxPoint x="-950" y="695" as="targetPoint" />
            <Array as="points">
              <mxPoint x="-910" y="265" />
              <mxPoint x="-910" y="865" />
            </Array>
          </mxGeometry>
        </mxCell>
        <mxCell id="au4fLTNO0eDFEzKA2mFN-449" value="" style="edgeStyle=orthogonalEdgeStyle;endArrow=ERzeroToMany;startArrow=ERone;endFill=1;startFill=0;entryX=0;entryY=0.5;entryDx=0;entryDy=0;exitX=1;exitY=0.5;exitDx=0;exitDy=0;" parent="1" source="au4fLTNO0eDFEzKA2mFN-336" target="au4fLTNO0eDFEzKA2mFN-352" edge="1">
          <mxGeometry width="100" height="100" relative="1" as="geometry">
            <mxPoint x="-1440" y="725" as="sourcePoint" />
            <mxPoint x="-1390" y="725" as="targetPoint" />
            <Array as="points" />
          </mxGeometry>
        </mxCell>
        <mxCell id="au4fLTNO0eDFEzKA2mFN-453" value="" style="edgeStyle=orthogonalEdgeStyle;endArrow=ERzeroToMany;startArrow=ERone;endFill=1;startFill=0;entryX=1;entryY=0.5;entryDx=0;entryDy=0;exitX=0;exitY=0.5;exitDx=0;exitDy=0;" parent="1" source="au4fLTNO0eDFEzKA2mFN-61" target="au4fLTNO0eDFEzKA2mFN-349" edge="1">
          <mxGeometry width="100" height="100" relative="1" as="geometry">
            <mxPoint x="-855" y="70" as="sourcePoint" />
            <mxPoint x="-970" y="35" as="targetPoint" />
            <Array as="points">
              <mxPoint x="-910" y="30" />
              <mxPoint x="-910" y="895" />
            </Array>
          </mxGeometry>
        </mxCell>
        <mxCell id="au4fLTNO0eDFEzKA2mFN-454" value="" style="edgeStyle=orthogonalEdgeStyle;endArrow=ERzeroToMany;startArrow=ERone;endFill=1;startFill=0;entryX=1;entryY=0.5;entryDx=0;entryDy=0;exitX=0;exitY=0.5;exitDx=0;exitDy=0;" parent="1" source="au4fLTNO0eDFEzKA2mFN-30" target="au4fLTNO0eDFEzKA2mFN-363" edge="1">
          <mxGeometry width="100" height="100" relative="1" as="geometry">
            <mxPoint x="-855" y="275" as="sourcePoint" />
            <mxPoint x="-950" y="855" as="targetPoint" />
            <Array as="points">
              <mxPoint x="-910" y="265" />
              <mxPoint x="-910" y="1135" />
            </Array>
          </mxGeometry>
        </mxCell>
        <mxCell id="au4fLTNO0eDFEzKA2mFN-455" value="" style="edgeStyle=orthogonalEdgeStyle;endArrow=ERzeroToMany;startArrow=ERone;endFill=1;startFill=0;entryX=0;entryY=0.5;entryDx=0;entryDy=0;exitX=0;exitY=0.5;exitDx=0;exitDy=0;" parent="1" source="au4fLTNO0eDFEzKA2mFN-30" target="au4fLTNO0eDFEzKA2mFN-382" edge="1">
          <mxGeometry width="100" height="100" relative="1" as="geometry">
            <mxPoint x="-855" y="275" as="sourcePoint" />
            <mxPoint x="-950" y="1095" as="targetPoint" />
            <Array as="points">
              <mxPoint x="-910" y="265" />
              <mxPoint x="-910" y="1115" />
            </Array>
          </mxGeometry>
        </mxCell>
        <mxCell id="au4fLTNO0eDFEzKA2mFN-456" value="" style="edgeStyle=orthogonalEdgeStyle;endArrow=ERzeroToMany;startArrow=ERone;endFill=1;startFill=0;entryX=0;entryY=0.5;entryDx=0;entryDy=0;exitX=0;exitY=0.5;exitDx=0;exitDy=0;" parent="1" target="au4fLTNO0eDFEzKA2mFN-404" edge="1">
          <mxGeometry width="100" height="100" relative="1" as="geometry">
            <mxPoint x="-865.01" y="265" as="sourcePoint" />
            <mxPoint x="-950.01" y="1325" as="targetPoint" />
            <Array as="points">
              <mxPoint x="-910" y="265" />
              <mxPoint x="-910" y="705" />
            </Array>
          </mxGeometry>
        </mxCell>
        <mxCell id="au4fLTNO0eDFEzKA2mFN-457" value="" style="edgeStyle=orthogonalEdgeStyle;endArrow=ERzeroToMany;startArrow=ERone;endFill=1;startFill=0;entryX=0;entryY=0.5;entryDx=0;entryDy=0;exitX=0;exitY=0.5;exitDx=0;exitDy=0;" parent="1" source="au4fLTNO0eDFEzKA2mFN-30" target="au4fLTNO0eDFEzKA2mFN-427" edge="1">
          <mxGeometry width="100" height="100" relative="1" as="geometry">
            <mxPoint x="-855.01" y="275" as="sourcePoint" />
            <mxPoint x="-950" y="1595" as="targetPoint" />
            <Array as="points">
              <mxPoint x="-910" y="265" />
              <mxPoint x="-910" y="940" />
            </Array>
          </mxGeometry>
        </mxCell>
        <mxCell id="au4fLTNO0eDFEzKA2mFN-465" value="User Security" style="rounded=1;whiteSpace=wrap;html=1;fillColor=#a20025;fontColor=#ffffff;strokeColor=#6F0000;" parent="1" vertex="1">
          <mxGeometry x="-2650" y="-400" width="120" height="60" as="geometry" />
        </mxCell>
        <mxCell id="au4fLTNO0eDFEzKA2mFN-467" value="Logs" style="rounded=1;whiteSpace=wrap;html=1;fillColor=#d80073;fontColor=#ffffff;strokeColor=#A50040;" parent="1" vertex="1">
          <mxGeometry x="-2510" y="-400" width="120" height="60" as="geometry" />
        </mxCell>
        <mxCell id="au4fLTNO0eDFEzKA2mFN-469" value="Payment Stuff" style="rounded=1;whiteSpace=wrap;html=1;fillColor=#6d8764;fontColor=#ffffff;strokeColor=#3A5431;" parent="1" vertex="1">
          <mxGeometry x="-2510" y="-320" width="120" height="60" as="geometry" />
        </mxCell>
        <mxCell id="au4fLTNO0eDFEzKA2mFN-470" value="Club Stuff" style="rounded=1;whiteSpace=wrap;html=1;fillColor=#008a00;fontColor=#ffffff;strokeColor=#005700;" parent="1" vertex="1">
          <mxGeometry x="-2650" y="-320" width="120" height="60" as="geometry" />
        </mxCell>
        <mxCell id="au4fLTNO0eDFEzKA2mFN-471" value="Address Stuff" style="rounded=1;whiteSpace=wrap;html=1;fillColor=#1ba1e2;fontColor=#ffffff;strokeColor=#006EAF;" parent="1" vertex="1">
          <mxGeometry x="-2650" y="-240" width="120" height="60" as="geometry" />
        </mxCell>
        <mxCell id="au4fLTNO0eDFEzKA2mFN-472" value="" style="edgeStyle=orthogonalEdgeStyle;endArrow=ERzeroToMany;startArrow=ERone;endFill=1;startFill=0;entryX=0;entryY=0.5;entryDx=0;entryDy=0;exitX=1;exitY=0.5;exitDx=0;exitDy=0;" parent="1" source="au4fLTNO0eDFEzKA2mFN-103" target="au4fLTNO0eDFEzKA2mFN-86" edge="1">
          <mxGeometry width="100" height="100" relative="1" as="geometry">
            <mxPoint x="-1440" y="-72.75" as="sourcePoint" />
            <mxPoint x="-1555" y="-107.75" as="targetPoint" />
          </mxGeometry>
        </mxCell>
        <mxCell id="au4fLTNO0eDFEzKA2mFN-474" value="Legend" style="text;html=1;align=center;verticalAlign=middle;whiteSpace=wrap;rounded=0;fontSize=24;fontStyle=1" parent="1" vertex="1">
          <mxGeometry x="-2640" y="-440" width="240" height="30" as="geometry" />
        </mxCell>
      </root>
    </mxGraphModel>
  </diagram>
</mxfile>
